<?xml version="1.0" standalone="no"?>
 <!DOCTYPE svg PUBLIC "-//W3C//DTD SVG 1.1//EN" 
 "http://www.w3.org/Graphics/SVG/1.1/DTD/svg11.dtd"> 
<svg xmlns="http://www.w3.org/2000/svg" version="1.1" 
    width="29.7002cm" height="21.0007cm" viewBox="0 0 116930 82680 ">
<title>SVG Picture created as vrtackaRamku4m-Margin.svg date 2020/12/06 17:39:59 </title>
  <desc>Picture generated by PCBNEW </desc>
<g style="fill:#000000; fill-opacity:1;stroke:#000000; stroke-opacity:1;
stroke-linecap:round; stroke-linejoin:round; "
 transform="translate(0 0) scale(1 1)">
</g>
<g style="fill:#000000; fill-opacity:0.0; 
stroke:#000000; stroke-width:-0.000393701; stroke-opacity:1; 
stroke-linecap:round; stroke-linejoin:round;">
<g >
</g>
<g >
</g>
<g >
</g>
<g >
</g>
<g >
</g>
<g >
</g>
<g >
</g>
<g >
</g>
<g >
</g>
<g >
</g>
<g >
</g>
<g >
</g>
<g >
</g>
<g >
</g>
<g >
</g>
<g >
</g>
<g >
</g>
<g >
</g>
<g >
</g>
<g >
</g>
<g >
</g>
<g >
</g>
<g >
</g>
<g >
</g>
<g >
</g>
</g>
<g style="fill:#000000; fill-opacity:0.0; 
stroke:#000000; stroke-width:-0.000393701; stroke-opacity:1; 
stroke-linecap:round; stroke-linejoin:round;">
</g>
<g style="fill:#000000; fill-opacity:0.0; 
stroke:#000000; stroke-width:19.685; stroke-opacity:1; 
stroke-linecap:round; stroke-linejoin:round;">
<circle cx="68500" cy="19000" r="656.168" /> 
<path d="M67515 19000
L69484 19000
" />
<path d="M68500 18015
L68500 19984
" />
<circle cx="42500" cy="19000" r="656.168" /> 
<path d="M41515 19000
L43484 19000
" />
<path d="M42500 18015
L42500 19984
" />
<circle cx="68500" cy="49000" r="656.168" /> 
<path d="M67515 49000
L69484 49000
" />
<path d="M68500 48015
L68500 49984
" />
<circle cx="42500" cy="49000" r="656.168" /> 
<path d="M41515 49000
L43484 49000
" />
<path d="M42500 48015
L42500 49984
" />
<circle cx="38000" cy="49000" r="656.168" /> 
<path d="M37015 49000
L38984 49000
" />
<path d="M38000 48015
L38000 49984
" />
<circle cx="73000" cy="19000" r="656.168" /> 
<path d="M72015 19000
L73984 19000
" />
<path d="M73000 18015
L73000 19984
" />
<g >
</g>
<g >
</g>
<g >
</g>
<g >
</g>
<g >
</g>
<g >
</g>
<g >
</g>
<g >
</g>
<g >
</g>
<g >
</g>
<g >
</g>
<g >
</g>
<g >
</g>
<g >
</g>
<g >
</g>
<g >
</g>
<g >
</g>
<g >
</g>
<g >
</g>
<g >
</g>
<g >
</g>
<g >
</g>
<g >
</g>
<g >
</g>
<g >
</g>
</g> 
</svg>
