<?xml version="1.0" standalone="no"?>
 <!DOCTYPE svg PUBLIC "-//W3C//DTD SVG 1.1//EN" 
 "http://www.w3.org/Graphics/SVG/1.1/DTD/svg11.dtd"> 
<svg xmlns="http://www.w3.org/2000/svg" version="1.1" 
    width="29.7002cm" height="21.0007cm" viewBox="0 0 116930 82680 ">
<title>SVG Picture created as vrtackaRamku4m-F_Cu.svg date 2020/12/06 17:39:51 </title>
  <desc>Picture generated by PCBNEW </desc>
<g style="fill:#000000; fill-opacity:1;stroke:#000000; stroke-opacity:1;
stroke-linecap:round; stroke-linejoin:round; "
 transform="translate(0 0) scale(1 1)">
</g>
<g style="fill:#000000; fill-opacity:0.0; 
stroke:#000000; stroke-width:-0.000393701; stroke-opacity:1; 
stroke-linecap:round; stroke-linejoin:round;">
</g>
<g style="fill:#000000; fill-opacity:0.0; 
stroke:#000000; stroke-width:118.11; stroke-opacity:1; 
stroke-linecap:round; stroke-linejoin:round;">
<g transform="rotate(-90 65000 19500)">
<text x="65000" y="19795.3"
textLength="1953.32" font-size="787.402" lengthAdjust="spacingAndGlyphs"
text-anchor="middle" opacity="0">GND</text>
</g>
<path d="M64704 19949
L64676 20006
L64676 20090
L64704 20174
L64760 20231
L64817 20259
L64929 20287
L65014 20287
L65126 20259
L65182 20231
L65239 20174
L65267 20090
L65267 20034
L65239 19949
L65210 19921
L65014 19921
L65014 20034
" />
<path d="M65267 19668
L64676 19668
L65267 19331
L64676 19331
" />
<path d="M65267 19050
L64676 19050
L64676 18909
L64704 18825
L64760 18768
L64817 18740
L64929 18712
L65014 18712
L65126 18740
L65182 18768
L65239 18825
L65267 18909
L65267 19050
" />
<g transform="rotate(-90 64000 19500)">
<text x="64000" y="19795.3"
textLength="2262.65" font-size="787.402" lengthAdjust="spacingAndGlyphs"
text-anchor="middle" opacity="0">Echo</text>
</g>
<path d="M63957 20413
L63957 20217
" />
<path d="M64267 20132
L64267 20413
L63676 20413
L63676 20132
" />
<path d="M64239 19626
L64267 19682
L64267 19795
L64239 19851
L64210 19879
L64154 19907
L63985 19907
L63929 19879
L63901 19851
L63873 19795
L63873 19682
L63901 19626
" />
<path d="M64267 19373
L63676 19373
" />
<path d="M64267 19120
L63957 19120
L63901 19148
L63873 19204
L63873 19289
L63901 19345
L63929 19373
" />
<path d="M64267 18754
L64239 18811
L64210 18839
L64154 18867
L63985 18867
L63929 18839
L63901 18811
L63873 18754
L63873 18670
L63901 18614
L63929 18586
L63985 18557
L64154 18557
L64210 18586
L64239 18614
L64267 18670
L64267 18754
" />
<g transform="rotate(-90 63000 19500)">
<text x="63000" y="19795.3"
textLength="1784.59" font-size="787.402" lengthAdjust="spacingAndGlyphs"
text-anchor="middle" opacity="0">Trig</text>
</g>
<path d="M62676 20259
L62676 19921
" />
<path d="M63267 20090
L62676 20090
" />
<path d="M63267 19724
L62873 19724
" />
<path d="M62985 19724
L62929 19696
L62901 19668
L62873 19612
L62873 19556
" />
<path d="M63267 19359
L62873 19359
" />
<path d="M62676 19359
L62704 19387
L62732 19359
L62704 19331
L62676 19359
L62732 19359
" />
<path d="M62873 18825
L63351 18825
L63407 18853
L63435 18881
L63464 18937
L63464 19021
L63435 19078
" />
<path d="M63239 18825
L63267 18881
L63267 18993
L63239 19050
L63210 19078
L63154 19106
L62985 19106
L62929 19078
L62901 19050
L62873 18993
L62873 18881
L62901 18825
" />
<g transform="rotate(-90 62000 19500)">
<text x="62000" y="19795.3"
textLength="1953.32" font-size="787.402" lengthAdjust="spacingAndGlyphs"
text-anchor="middle" opacity="0">+5V</text>
</g>
<path d="M62042 20259
L62042 19809
" />
<path d="M62267 20034
L61817 20034
" />
<path d="M61676 19246
L61676 19528
L61957 19556
L61929 19528
L61901 19471
L61901 19331
L61929 19275
L61957 19246
L62014 19218
L62154 19218
L62210 19246
L62239 19275
L62267 19331
L62267 19471
L62239 19528
L62210 19556
" />
<path d="M61676 19050
L62267 18853
L61676 18656
" />
<text x="55000" y="47295.3"
textLength="1953.32" font-size="787.402" lengthAdjust="spacingAndGlyphs"
text-anchor="middle" opacity="0">GND</text>
<path d="M54550 46704
L54493 46676
L54409 46676
L54325 46704
L54268 46760
L54240 46817
L54212 46929
L54212 47014
L54240 47126
L54268 47182
L54325 47239
L54409 47267
L54465 47267
L54550 47239
L54578 47210
L54578 47014
L54465 47014
" />
<path d="M54831 47267
L54831 46676
L55168 47267
L55168 46676
" />
<path d="M55449 47267
L55449 46676
L55590 46676
L55674 46704
L55731 46760
L55759 46817
L55787 46929
L55787 47014
L55759 47126
L55731 47182
L55674 47239
L55590 47267
L55449 47267
" />
<text x="48000" y="47295.3"
textLength="2515.75" font-size="787.402" lengthAdjust="spacingAndGlyphs"
text-anchor="middle" opacity="0">+12V</text>
<path d="M46959 47042
L47409 47042
" />
<path d="M47184 47267
L47184 46817
" />
<path d="M48000 47267
L47662 47267
" />
<path d="M47831 47267
L47831 46676
L47775 46760
L47718 46817
L47662 46845
" />
<path d="M48224 46732
L48253 46704
L48309 46676
L48449 46676
L48506 46704
L48534 46732
L48562 46789
L48562 46845
L48534 46929
L48196 47267
L48562 47267
" />
<path d="M48731 46676
L48928 47267
L49124 46676
" />
<text x="54000" y="22795.3"
textLength="1559.62" font-size="787.402" lengthAdjust="spacingAndGlyphs"
text-anchor="middle" opacity="0">M-</text>
<path d="M53437 22767
L53437 22176
L53634 22598
L53831 22176
L53831 22767
" />
<path d="M54112 22542
L54562 22542
" />
<text x="48500" y="22795.3"
textLength="1559.62" font-size="787.402" lengthAdjust="spacingAndGlyphs"
text-anchor="middle" opacity="0">M+</text>
<path d="M47937 22767
L47937 22176
L48134 22598
L48331 22176
L48331 22767
" />
<path d="M48612 22542
L49062 22542
" />
<path d="M48837 22767
L48837 22317
" />
<g >
</g>
<g style="fill:#000000; fill-opacity:1.0; 
stroke:#000000; stroke-width:0; stroke-opacity:1; 
stroke-linecap:round; stroke-linejoin:round;">
<circle cx="42500" cy="49000" r="1377.95" /> 
</g>
<g style="fill:#000000; fill-opacity:1.0; 
stroke:#000000; stroke-width:39.3701; stroke-opacity:1; 
stroke-linecap:round; stroke-linejoin:round;">
</g>
<g >
</g>
<g style="fill:#000000; fill-opacity:1.0; 
stroke:#000000; stroke-width:39.3701; stroke-opacity:1; 
stroke-linecap:round; stroke-linejoin:round;">
</g>
<g style="fill:#000000; fill-opacity:1.0; 
stroke:#000000; stroke-width:0; stroke-opacity:1; 
stroke-linecap:round; stroke-linejoin:round;">
<circle cx="68500" cy="49000" r="1377.95" /> 
</g>
<g style="fill:#000000; fill-opacity:1.0; 
stroke:#000000; stroke-width:39.3701; stroke-opacity:1; 
stroke-linecap:round; stroke-linejoin:round;">
</g>
<g >
</g>
<g style="fill:#000000; fill-opacity:1.0; 
stroke:#000000; stroke-width:39.3701; stroke-opacity:1; 
stroke-linecap:round; stroke-linejoin:round;">
</g>
<g style="fill:#000000; fill-opacity:1.0; 
stroke:#000000; stroke-width:0; stroke-opacity:1; 
stroke-linecap:round; stroke-linejoin:round;">
<circle cx="68500" cy="19000" r="1377.95" /> 
</g>
<g style="fill:#000000; fill-opacity:1.0; 
stroke:#000000; stroke-width:39.3701; stroke-opacity:1; 
stroke-linecap:round; stroke-linejoin:round;">
</g>
<g >
</g>
<g style="fill:#000000; fill-opacity:1.0; 
stroke:#000000; stroke-width:39.3701; stroke-opacity:1; 
stroke-linecap:round; stroke-linejoin:round;">
</g>
<g style="fill:#000000; fill-opacity:1.0; 
stroke:#000000; stroke-width:0; stroke-opacity:1; 
stroke-linecap:round; stroke-linejoin:round;">
<circle cx="42500" cy="19000" r="1377.95" /> 
</g>
<g style="fill:#000000; fill-opacity:1.0; 
stroke:#000000; stroke-width:39.3701; stroke-opacity:1; 
stroke-linecap:round; stroke-linejoin:round;">
</g>
<g >
</g>
<g style="fill:#000000; fill-opacity:1.0; 
stroke:#000000; stroke-width:39.3701; stroke-opacity:1; 
stroke-linecap:round; stroke-linejoin:round;">
</g>
<g style="fill:#000000; fill-opacity:1.0; 
stroke:#000000; stroke-width:629.921; stroke-opacity:1; 
stroke-linecap:round; stroke-linejoin:round;">
</g>
<g style="fill:#000000; fill-opacity:0.0; 
stroke:#000000; stroke-width:629.921; stroke-opacity:1; 
stroke-linecap:round; stroke-linejoin:round;">
<path d="M66500 41500
L66500 41500
" />
<path d="M60500 41500
L60500 41500
" />
<path d="M66500 27500
L66500 27500
" />
<path d="M60500 40500
L60500 40500
" />
<path d="M66500 28500
L66500 28500
" />
<path d="M60500 39500
L60500 39500
" />
<path d="M66500 29500
L66500 29500
" />
<path d="M60500 38500
L60500 38500
" />
<path d="M66500 30500
L66500 30500
" />
<path d="M60500 37500
L60500 37500
" />
<path d="M66500 31500
L66500 31500
" />
<path d="M60500 36500
L60500 36500
" />
<path d="M66500 32500
L66500 32500
" />
<path d="M60500 35500
L60500 35500
" />
<path d="M66500 33500
L66500 33500
" />
<path d="M60500 34500
L60500 34500
" />
<path d="M66500 34500
L66500 34500
" />
<path d="M60500 33500
L60500 33500
" />
<path d="M66500 35500
L66500 35500
" />
<path d="M60500 32500
L60500 32500
" />
<path d="M66500 36500
L66500 36500
" />
<path d="M60500 31500
L60500 31500
" />
<path d="M66500 37500
L66500 37500
" />
<path d="M60500 30500
L60500 30500
" />
<path d="M66500 38500
L66500 38500
" />
<path d="M60500 29500
L60500 29500
" />
<path d="M66500 39500
L66500 39500
" />
<path d="M60500 28500
L60500 28500
" />
<path d="M66500 40500
L66500 40500
" />
</g>
<g style="fill:#000000; fill-opacity:0.0; 
stroke:#000000; stroke-width:0; stroke-opacity:1; 
stroke-linecap:round; stroke-linejoin:round;">
</g>
<g style="fill:#000000; fill-opacity:1.0; 
stroke:#000000; stroke-width:0; stroke-opacity:1; 
stroke-linecap:round; stroke-linejoin:round;">
<path style="fill:#000000; fill-opacity:1.0; 
stroke:#000000; stroke-width:0; stroke-opacity:1; 
stroke-linecap:round; stroke-linejoin:round;fill-rule:evenodd;"
d="M 60185,27815
60185,27185
60815,27185
60815,27815
Z" /> 
</g>
<g >
</g>
<g style="fill:#000000; fill-opacity:1.0; 
stroke:#000000; stroke-width:0; stroke-opacity:1; 
stroke-linecap:round; stroke-linejoin:round;">
<circle cx="54500" cy="34771.7" r="393.701" /> 
</g>
<g style="fill:#000000; fill-opacity:1.0; 
stroke:#000000; stroke-width:39.3701; stroke-opacity:1; 
stroke-linecap:round; stroke-linejoin:round;">
</g>
<g style="fill:#000000; fill-opacity:1.0; 
stroke:#000000; stroke-width:0; stroke-opacity:1; 
stroke-linecap:round; stroke-linejoin:round;">
<circle cx="54500" cy="33000" r="393.701" /> 
</g>
<g style="fill:#000000; fill-opacity:1.0; 
stroke:#000000; stroke-width:39.3701; stroke-opacity:1; 
stroke-linecap:round; stroke-linejoin:round;">
</g>
<g style="fill:#000000; fill-opacity:1.0; 
stroke:#000000; stroke-width:0; stroke-opacity:1; 
stroke-linecap:round; stroke-linejoin:round;">
<circle cx="57059.1" cy="34771.7" r="393.701" /> 
</g>
<g style="fill:#000000; fill-opacity:1.0; 
stroke:#000000; stroke-width:39.3701; stroke-opacity:1; 
stroke-linecap:round; stroke-linejoin:round;">
</g>
<g style="fill:#000000; fill-opacity:1.0; 
stroke:#000000; stroke-width:0; stroke-opacity:1; 
stroke-linecap:round; stroke-linejoin:round;">
<circle cx="57059.1" cy="33000" r="393.701" /> 
</g>
<g style="fill:#000000; fill-opacity:1.0; 
stroke:#000000; stroke-width:39.3701; stroke-opacity:1; 
stroke-linecap:round; stroke-linejoin:round;">
</g>
<g >
</g>
<g style="fill:#000000; fill-opacity:1.0; 
stroke:#000000; stroke-width:39.3701; stroke-opacity:1; 
stroke-linecap:round; stroke-linejoin:round;">
</g>
<g style="fill:#000000; fill-opacity:1.0; 
stroke:#000000; stroke-width:0; stroke-opacity:1; 
stroke-linecap:round; stroke-linejoin:round;">
<path style="fill:#000000; fill-opacity:1.0; 
stroke:#000000; stroke-width:0; stroke-opacity:1; 
stroke-linecap:round; stroke-linejoin:round;fill-rule:evenodd;"
d="M 49350.4,27517.7
48649.6,27517.7
48649.6,26730.3
49350.4,26730.3
Z" /> 
<path style="fill:#000000; fill-opacity:1.0; 
stroke:#000000; stroke-width:0; stroke-opacity:1; 
stroke-linecap:round; stroke-linejoin:round;fill-rule:evenodd;"
d="M 50350.4,31269.7
49649.6,31269.7
49649.6,30482.3
50350.4,30482.3
Z" /> 
<path style="fill:#000000; fill-opacity:1.0; 
stroke:#000000; stroke-width:0; stroke-opacity:1; 
stroke-linecap:round; stroke-linejoin:round;fill-rule:evenodd;"
d="M 50350.4,27517.7
49649.6,27517.7
49649.6,26730.3
50350.4,26730.3
Z" /> 
<path style="fill:#000000; fill-opacity:1.0; 
stroke:#000000; stroke-width:0; stroke-opacity:1; 
stroke-linecap:round; stroke-linejoin:round;fill-rule:evenodd;"
d="M 49350.4,31269.7
48649.6,31269.7
48649.6,30482.3
49350.4,30482.3
Z" /> 
</g>
<g >
</g>
<g style="fill:#000000; fill-opacity:1.0; 
stroke:#000000; stroke-width:0; stroke-opacity:1; 
stroke-linecap:round; stroke-linejoin:round;">
<circle cx="56500" cy="46000" r="787.402" /> 
</g>
<g style="fill:#000000; fill-opacity:1.0; 
stroke:#000000; stroke-width:39.3701; stroke-opacity:1; 
stroke-linecap:round; stroke-linejoin:round;">
</g>
<g >
</g>
<g style="fill:#000000; fill-opacity:1.0; 
stroke:#000000; stroke-width:39.3701; stroke-opacity:1; 
stroke-linecap:round; stroke-linejoin:round;">
</g>
<g style="fill:#000000; fill-opacity:1.0; 
stroke:#000000; stroke-width:0; stroke-opacity:1; 
stroke-linecap:round; stroke-linejoin:round;">
<circle cx="46500" cy="22500" r="787.402" /> 
</g>
<g style="fill:#000000; fill-opacity:1.0; 
stroke:#000000; stroke-width:39.3701; stroke-opacity:1; 
stroke-linecap:round; stroke-linejoin:round;">
</g>
<g >
</g>
<g style="fill:#000000; fill-opacity:1.0; 
stroke:#000000; stroke-width:39.3701; stroke-opacity:1; 
stroke-linecap:round; stroke-linejoin:round;">
</g>
<g style="fill:#000000; fill-opacity:1.0; 
stroke:#000000; stroke-width:0; stroke-opacity:1; 
stroke-linecap:round; stroke-linejoin:round;">
<circle cx="56000" cy="22500" r="787.402" /> 
</g>
<g style="fill:#000000; fill-opacity:1.0; 
stroke:#000000; stroke-width:39.3701; stroke-opacity:1; 
stroke-linecap:round; stroke-linejoin:round;">
</g>
<g >
</g>
<g style="fill:#000000; fill-opacity:1.0; 
stroke:#000000; stroke-width:39.3701; stroke-opacity:1; 
stroke-linecap:round; stroke-linejoin:round;">
</g>
<g style="fill:#000000; fill-opacity:1.0; 
stroke:#000000; stroke-width:0; stroke-opacity:1; 
stroke-linecap:round; stroke-linejoin:round;">
<circle cx="46500" cy="46000" r="787.402" /> 
</g>
<g style="fill:#000000; fill-opacity:1.0; 
stroke:#000000; stroke-width:39.3701; stroke-opacity:1; 
stroke-linecap:round; stroke-linejoin:round;">
</g>
<g >
</g>
<g style="fill:#000000; fill-opacity:1.0; 
stroke:#000000; stroke-width:39.3701; stroke-opacity:1; 
stroke-linecap:round; stroke-linejoin:round;">
</g>
<g style="fill:#000000; fill-opacity:1.0; 
stroke:#000000; stroke-width:669.291; stroke-opacity:1; 
stroke-linecap:round; stroke-linejoin:round;">
</g>
<g style="fill:#000000; fill-opacity:0.0; 
stroke:#000000; stroke-width:669.291; stroke-opacity:1; 
stroke-linecap:round; stroke-linejoin:round;">
<path d="M62000 22500
L62000 22500
" />
<path d="M63000 22500
L63000 22500
" />
<path d="M64000 22500
L64000 22500
" />
</g>
<g style="fill:#000000; fill-opacity:0.0; 
stroke:#000000; stroke-width:0; stroke-opacity:1; 
stroke-linecap:round; stroke-linejoin:round;">
</g>
<g style="fill:#000000; fill-opacity:1.0; 
stroke:#000000; stroke-width:0; stroke-opacity:1; 
stroke-linecap:round; stroke-linejoin:round;">
<path style="fill:#000000; fill-opacity:1.0; 
stroke:#000000; stroke-width:0; stroke-opacity:1; 
stroke-linecap:round; stroke-linejoin:round;fill-rule:evenodd;"
d="M 64665.4,22165.4
65334.6,22165.4
65334.6,22834.6
64665.4,22834.6
Z" /> 
</g>
<g >
</g>
<g style="fill:#000000; fill-opacity:1.0; 
stroke:#000000; stroke-width:0; stroke-opacity:1; 
stroke-linecap:round; stroke-linejoin:round;">
<path style="fill:#000000; fill-opacity:1.0; 
stroke:#000000; stroke-width:0; stroke-opacity:1; 
stroke-linecap:round; stroke-linejoin:round;fill-rule:evenodd;"
d="M 58777.4,37156
58786.9,37157.4
58796.3,37159.8
58805.4,37163
58814.1,37167.1
58822.4,37172.1
58830.2,37177.9
58837.3,37184.3
58843.8,37191.5
58849.6,37199.3
58854.5,37207.5
58858.6,37216.3
58861.9,37225.4
58864.3,37234.7
58865.7,37244.3
58866.1,37253.9
58866.1,37746.1
58865.7,37755.7
58864.3,37765.3
58861.9,37774.6
58858.6,37783.7
58854.5,37792.5
58849.6,37800.7
58843.8,37808.5
58837.3,37815.7
58830.2,37822.1
58822.4,37827.9
58814.1,37832.9
58805.4,37837
58796.3,37840.2
58786.9,37842.6
58777.4,37844
58767.7,37844.5
58403.5,37844.5
58393.9,37844
58384.3,37842.6
58375,37840.2
58365.9,37837
58357.1,37832.9
58348.9,37827.9
58341.1,37822.1
58333.9,37815.7
58327.5,37808.5
58321.7,37800.7
58316.7,37792.5
58312.6,37783.7
58309.4,37774.6
58307,37765.3
58305.6,37755.7
58305.1,37746.1
58305.1,37253.9
58305.6,37244.3
58307,37234.7
58309.4,37225.4
58312.6,37216.3
58316.7,37207.5
58321.7,37199.3
58327.5,37191.5
58333.9,37184.3
58341.1,37177.9
58348.9,37172.1
58357.1,37167.1
58365.9,37163
58375,37159.8
58384.3,37157.4
58393.9,37156
58403.5,37155.5
58767.7,37155.5
Z" /> 
<path style="fill:#000000; fill-opacity:1.0; 
stroke:#000000; stroke-width:0; stroke-opacity:1; 
stroke-linecap:round; stroke-linejoin:round;fill-rule:evenodd;"
d="M 57606.1,37156
57615.7,37157.4
57625,37159.8
57634.1,37163
57642.9,37167.1
57651.1,37172.1
57658.9,37177.9
57666.1,37184.3
57672.5,37191.5
57678.3,37199.3
57683.3,37207.5
57687.4,37216.3
57690.6,37225.4
57693,37234.7
57694.4,37244.3
57694.9,37253.9
57694.9,37746.1
57694.4,37755.7
57693,37765.3
57690.6,37774.6
57687.4,37783.7
57683.3,37792.5
57678.3,37800.7
57672.5,37808.5
57666.1,37815.7
57658.9,37822.1
57651.1,37827.9
57642.9,37832.9
57634.1,37837
57625,37840.2
57615.7,37842.6
57606.1,37844
57596.5,37844.5
57232.3,37844.5
57222.6,37844
57213.1,37842.6
57203.7,37840.2
57194.6,37837
57185.9,37832.9
57177.6,37827.9
57169.8,37822.1
57162.7,37815.7
57156.2,37808.5
57150.4,37800.7
57145.5,37792.5
57141.4,37783.7
57138.1,37774.6
57135.7,37765.3
57134.3,37755.7
57133.9,37746.1
57133.9,37253.9
57134.3,37244.3
57135.7,37234.7
57138.1,37225.4
57141.4,37216.3
57145.5,37207.5
57150.4,37199.3
57156.2,37191.5
57162.7,37184.3
57169.8,37177.9
57177.6,37172.1
57185.9,37167.1
57194.6,37163
57203.7,37159.8
57213.1,37157.4
57222.6,37156
57232.3,37155.5
57596.5,37155.5
Z" /> 
</g>
<g >
</g>
<g style="fill:#000000; fill-opacity:1.0; 
stroke:#000000; stroke-width:0; stroke-opacity:1; 
stroke-linecap:round; stroke-linejoin:round;">
<path style="fill:#000000; fill-opacity:1.0; 
stroke:#000000; stroke-width:0; stroke-opacity:1; 
stroke-linecap:round; stroke-linejoin:round;fill-rule:evenodd;"
d="M 49191.7,36156
49201.3,36157.4
49210.7,36159.8
49219.8,36163
49228.5,36167.1
49236.8,36172.1
49244.5,36177.9
49251.7,36184.3
49258.2,36191.5
49263.9,36199.3
49268.9,36207.5
49273,36216.3
49276.3,36225.4
49278.6,36234.7
49280,36244.3
49280.5,36253.9
49280.5,36746.1
49280,36755.7
49278.6,36765.3
49276.3,36774.6
49273,36783.7
49268.9,36792.5
49263.9,36800.7
49258.2,36808.5
49251.7,36815.7
49244.5,36822.1
49236.8,36827.9
49228.5,36832.9
49219.8,36837
49210.7,36840.2
49201.3,36842.6
49191.7,36844
49182.1,36844.5
48817.9,36844.5
48808.3,36844
48798.7,36842.6
48789.3,36840.2
48780.2,36837
48771.5,36832.9
48763.2,36827.9
48755.5,36822.1
48748.3,36815.7
48741.8,36808.5
48736.1,36800.7
48731.1,36792.5
48727,36783.7
48723.7,36774.6
48721.4,36765.3
48720,36755.7
48719.5,36746.1
48719.5,36253.9
48720,36244.3
48721.4,36234.7
48723.7,36225.4
48727,36216.3
48731.1,36207.5
48736.1,36199.3
48741.8,36191.5
48748.3,36184.3
48755.5,36177.9
48763.2,36172.1
48771.5,36167.1
48780.2,36163
48789.3,36159.8
48798.7,36157.4
48808.3,36156
48817.9,36155.5
49182.1,36155.5
Z" /> 
<path style="fill:#000000; fill-opacity:1.0; 
stroke:#000000; stroke-width:0; stroke-opacity:1; 
stroke-linecap:round; stroke-linejoin:round;fill-rule:evenodd;"
d="M 48020.5,36156
48030,36157.4
48039.4,36159.8
48048.5,36163
48057.2,36167.1
48065.5,36172.1
48073.3,36177.9
48080.4,36184.3
48086.9,36191.5
48092.7,36199.3
48097.6,36207.5
48101.8,36216.3
48105,36225.4
48107.4,36234.7
48108.8,36244.3
48109.3,36253.9
48109.3,36746.1
48108.8,36755.7
48107.4,36765.3
48105,36774.6
48101.8,36783.7
48097.6,36792.5
48092.7,36800.7
48086.9,36808.5
48080.4,36815.7
48073.3,36822.1
48065.5,36827.9
48057.2,36832.9
48048.5,36837
48039.4,36840.2
48030,36842.6
48020.5,36844
48010.8,36844.5
47646.7,36844.5
47637,36844
47627.5,36842.6
47618.1,36840.2
47609,36837
47600.3,36832.9
47592,36827.9
47584.2,36822.1
47577.1,36815.7
47570.6,36808.5
47564.8,36800.7
47559.9,36792.5
47555.7,36783.7
47552.5,36774.6
47550.1,36765.3
47548.7,36755.7
47548.2,36746.1
47548.2,36253.9
47548.7,36244.3
47550.1,36234.7
47552.5,36225.4
47555.7,36216.3
47559.9,36207.5
47564.8,36199.3
47570.6,36191.5
47577.1,36184.3
47584.2,36177.9
47592,36172.1
47600.3,36167.1
47609,36163
47618.1,36159.8
47627.5,36157.4
47637,36156
47646.7,36155.5
48010.8,36155.5
Z" /> 
</g>
<g >
</g>
<g style="fill:#000000; fill-opacity:1.0; 
stroke:#000000; stroke-width:0; stroke-opacity:1; 
stroke-linecap:round; stroke-linejoin:round;">
<circle cx="55500" cy="41000" r="354.331" /> 
</g>
<g style="fill:#000000; fill-opacity:1.0; 
stroke:#000000; stroke-width:39.3701; stroke-opacity:1; 
stroke-linecap:round; stroke-linejoin:round;">
</g>
<g style="fill:#000000; fill-opacity:1.0; 
stroke:#000000; stroke-width:0; stroke-opacity:1; 
stroke-linecap:round; stroke-linejoin:round;">
<path style="fill:#000000; fill-opacity:1.0; 
stroke:#000000; stroke-width:0; stroke-opacity:1; 
stroke-linecap:round; stroke-linejoin:round;fill-rule:evenodd;"
d="M 54145.7,41354.3
54145.7,40645.7
54854.3,40645.7
54854.3,41354.3
Z" /> 
</g>
<g >
</g>
<g style="fill:#000000; fill-opacity:1.0; 
stroke:#000000; stroke-width:0; stroke-opacity:1; 
stroke-linecap:round; stroke-linejoin:round;">
<path style="fill:#000000; fill-opacity:1.0; 
stroke:#000000; stroke-width:0; stroke-opacity:1; 
stroke-linecap:round; stroke-linejoin:round;fill-rule:evenodd;"
d="M 52149.6,24531.5
52149.6,23468.5
52740.2,23468.5
52740.2,24531.5
Z" /> 
<path style="fill:#000000; fill-opacity:1.0; 
stroke:#000000; stroke-width:0; stroke-opacity:1; 
stroke-linecap:round; stroke-linejoin:round;fill-rule:evenodd;"
d="M 50259.8,24531.5
50259.8,23468.5
50850.4,23468.5
50850.4,24531.5
Z" /> 
</g>
<g >
</g>
<g style="fill:#000000; fill-opacity:1.0; 
stroke:#000000; stroke-width:0; stroke-opacity:1; 
stroke-linecap:round; stroke-linejoin:round;">
<path style="fill:#000000; fill-opacity:1.0; 
stroke:#000000; stroke-width:0; stroke-opacity:1; 
stroke-linecap:round; stroke-linejoin:round;fill-rule:evenodd;"
d="M 55255.7,28134.3
55265.3,28135.7
55274.6,28138.1
55283.7,28141.4
55292.5,28145.5
55300.7,28150.4
55308.5,28156.2
55315.7,28162.7
55322.1,28169.8
55327.9,28177.6
55332.9,28185.9
55337,28194.6
55340.2,28203.7
55342.6,28213.1
55344,28222.6
55344.5,28232.3
55344.5,28596.5
55344,28606.1
55342.6,28615.7
55340.2,28625
55337,28634.1
55332.9,28642.9
55327.9,28651.1
55322.1,28658.9
55315.7,28666.1
55308.5,28672.5
55300.7,28678.3
55292.5,28683.3
55283.7,28687.4
55274.6,28690.6
55265.3,28693
55255.7,28694.4
55246.1,28694.9
54753.9,28694.9
54744.3,28694.4
54734.7,28693
54725.4,28690.6
54716.3,28687.4
54707.5,28683.3
54699.3,28678.3
54691.5,28672.5
54684.3,28666.1
54677.9,28658.9
54672.1,28651.1
54667.1,28642.9
54663,28634.1
54659.8,28625
54657.4,28615.7
54656,28606.1
54655.5,28596.5
54655.5,28232.3
54656,28222.6
54657.4,28213.1
54659.8,28203.7
54663,28194.6
54667.1,28185.9
54672.1,28177.6
54677.9,28169.8
54684.3,28162.7
54691.5,28156.2
54699.3,28150.4
54707.5,28145.5
54716.3,28141.4
54725.4,28138.1
54734.7,28135.7
54744.3,28134.3
54753.9,28133.9
55246.1,28133.9
Z" /> 
<path style="fill:#000000; fill-opacity:1.0; 
stroke:#000000; stroke-width:0; stroke-opacity:1; 
stroke-linecap:round; stroke-linejoin:round;fill-rule:evenodd;"
d="M 55255.7,29305.6
55265.3,29307
55274.6,29309.4
55283.7,29312.6
55292.5,29316.7
55300.7,29321.7
55308.5,29327.5
55315.7,29333.9
55322.1,29341.1
55327.9,29348.9
55332.9,29357.1
55337,29365.9
55340.2,29375
55342.6,29384.3
55344,29393.9
55344.5,29403.5
55344.5,29767.7
55344,29777.4
55342.6,29786.9
55340.2,29796.3
55337,29805.4
55332.9,29814.1
55327.9,29822.4
55322.1,29830.2
55315.7,29837.3
55308.5,29843.8
55300.7,29849.6
55292.5,29854.5
55283.7,29858.6
55274.6,29861.9
55265.3,29864.3
55255.7,29865.7
55246.1,29866.1
54753.9,29866.1
54744.3,29865.7
54734.7,29864.3
54725.4,29861.9
54716.3,29858.6
54707.5,29854.5
54699.3,29849.6
54691.5,29843.8
54684.3,29837.3
54677.9,29830.2
54672.1,29822.4
54667.1,29814.1
54663,29805.4
54659.8,29796.3
54657.4,29786.9
54656,29777.4
54655.5,29767.7
54655.5,29403.5
54656,29393.9
54657.4,29384.3
54659.8,29375
54663,29365.9
54667.1,29357.1
54672.1,29348.9
54677.9,29341.1
54684.3,29333.9
54691.5,29327.5
54699.3,29321.7
54707.5,29316.7
54716.3,29312.6
54725.4,29309.4
54734.7,29307
54744.3,29305.6
54753.9,29305.1
55246.1,29305.1
Z" /> 
</g>
<g >
</g>
<g style="fill:#000000; fill-opacity:1.0; 
stroke:#000000; stroke-width:0; stroke-opacity:1; 
stroke-linecap:round; stroke-linejoin:round;">
<path style="fill:#000000; fill-opacity:1.0; 
stroke:#000000; stroke-width:0; stroke-opacity:1; 
stroke-linecap:round; stroke-linejoin:round;fill-rule:evenodd;"
d="M 51020.5,36156
51030,36157.4
51039.4,36159.8
51048.5,36163
51057.2,36167.1
51065.5,36172.1
51073.3,36177.9
51080.4,36184.3
51086.9,36191.5
51092.7,36199.3
51097.6,36207.5
51101.8,36216.3
51105,36225.4
51107.4,36234.7
51108.8,36244.3
51109.3,36253.9
51109.3,36746.1
51108.8,36755.7
51107.4,36765.3
51105,36774.6
51101.8,36783.7
51097.6,36792.5
51092.7,36800.7
51086.9,36808.5
51080.4,36815.7
51073.3,36822.1
51065.5,36827.9
51057.2,36832.9
51048.5,36837
51039.4,36840.2
51030,36842.6
51020.5,36844
51010.8,36844.5
50646.7,36844.5
50637,36844
50627.5,36842.6
50618.1,36840.2
50609,36837
50600.3,36832.9
50592,36827.9
50584.2,36822.1
50577.1,36815.7
50570.6,36808.5
50564.8,36800.7
50559.9,36792.5
50555.7,36783.7
50552.5,36774.6
50550.1,36765.3
50548.7,36755.7
50548.2,36746.1
50548.2,36253.9
50548.7,36244.3
50550.1,36234.7
50552.5,36225.4
50555.7,36216.3
50559.9,36207.5
50564.8,36199.3
50570.6,36191.5
50577.1,36184.3
50584.2,36177.9
50592,36172.1
50600.3,36167.1
50609,36163
50618.1,36159.8
50627.5,36157.4
50637,36156
50646.7,36155.5
51010.8,36155.5
Z" /> 
<path style="fill:#000000; fill-opacity:1.0; 
stroke:#000000; stroke-width:0; stroke-opacity:1; 
stroke-linecap:round; stroke-linejoin:round;fill-rule:evenodd;"
d="M 52191.7,36156
52201.3,36157.4
52210.7,36159.8
52219.8,36163
52228.5,36167.1
52236.8,36172.1
52244.5,36177.9
52251.7,36184.3
52258.2,36191.5
52263.9,36199.3
52268.9,36207.5
52273,36216.3
52276.3,36225.4
52278.6,36234.7
52280,36244.3
52280.5,36253.9
52280.5,36746.1
52280,36755.7
52278.6,36765.3
52276.3,36774.6
52273,36783.7
52268.9,36792.5
52263.9,36800.7
52258.2,36808.5
52251.7,36815.7
52244.5,36822.1
52236.8,36827.9
52228.5,36832.9
52219.8,36837
52210.7,36840.2
52201.3,36842.6
52191.7,36844
52182.1,36844.5
51817.9,36844.5
51808.3,36844
51798.7,36842.6
51789.3,36840.2
51780.2,36837
51771.5,36832.9
51763.2,36827.9
51755.5,36822.1
51748.3,36815.7
51741.8,36808.5
51736.1,36800.7
51731.1,36792.5
51727,36783.7
51723.7,36774.6
51721.4,36765.3
51720,36755.7
51719.5,36746.1
51719.5,36253.9
51720,36244.3
51721.4,36234.7
51723.7,36225.4
51727,36216.3
51731.1,36207.5
51736.1,36199.3
51741.8,36191.5
51748.3,36184.3
51755.5,36177.9
51763.2,36172.1
51771.5,36167.1
51780.2,36163
51789.3,36159.8
51798.7,36157.4
51808.3,36156
51817.9,36155.5
52182.1,36155.5
Z" /> 
</g>
<g >
</g>
<g style="fill:#000000; fill-opacity:1.0; 
stroke:#000000; stroke-width:0; stroke-opacity:1; 
stroke-linecap:round; stroke-linejoin:round;">
<circle cx="52500" cy="41000" r="354.331" /> 
</g>
<g style="fill:#000000; fill-opacity:1.0; 
stroke:#000000; stroke-width:39.3701; stroke-opacity:1; 
stroke-linecap:round; stroke-linejoin:round;">
</g>
<g style="fill:#000000; fill-opacity:1.0; 
stroke:#000000; stroke-width:0; stroke-opacity:1; 
stroke-linecap:round; stroke-linejoin:round;">
<path style="fill:#000000; fill-opacity:1.0; 
stroke:#000000; stroke-width:0; stroke-opacity:1; 
stroke-linecap:round; stroke-linejoin:round;fill-rule:evenodd;"
d="M 51145.7,41354.3
51145.7,40645.7
51854.3,40645.7
51854.3,41354.3
Z" /> 
</g>
<g >
</g>
<g style="fill:#000000; fill-opacity:1.0; 
stroke:#000000; stroke-width:0; stroke-opacity:1; 
stroke-linecap:round; stroke-linejoin:round;">
</g>
<g style="fill:#000000; fill-opacity:1.0; 
stroke:#000000; stroke-width:750; stroke-opacity:1; 
stroke-linecap:round; stroke-linejoin:round;">
</g>
<g style="fill:#000000; fill-opacity:0.0; 
stroke:#000000; stroke-width:750; stroke-opacity:1; 
stroke-linecap:round; stroke-linejoin:round;">
<path d="M55000 26981
L55000 27018
" />
<path d="M54000 26981
L54000 27018
" />
</g>
<g style="fill:#000000; fill-opacity:0.0; 
stroke:#000000; stroke-width:0; stroke-opacity:1; 
stroke-linecap:round; stroke-linejoin:round;">
</g>
<g style="fill:#000000; fill-opacity:1.0; 
stroke:#000000; stroke-width:0; stroke-opacity:1; 
stroke-linecap:round; stroke-linejoin:round;">
<path style="fill:#000000; fill-opacity:1.0; 
stroke:#000000; stroke-width:0; stroke-opacity:1; 
stroke-linecap:round; stroke-linejoin:round;fill-rule:evenodd;"
d="M 52625,27393.7
52625,26606.3
53375,26606.3
53375,27393.7
Z" /> 
</g>
<g >
</g>
<g style="fill:#000000; fill-opacity:1.0; 
stroke:#000000; stroke-width:0; stroke-opacity:1; 
stroke-linecap:round; stroke-linejoin:round;">
<path style="fill:#000000; fill-opacity:1.0; 
stroke:#000000; stroke-width:0; stroke-opacity:1; 
stroke-linecap:round; stroke-linejoin:round;fill-rule:evenodd;"
d="M 53255.7,29305.6
53265.3,29307
53274.6,29309.4
53283.7,29312.6
53292.5,29316.7
53300.7,29321.7
53308.5,29327.5
53315.7,29333.9
53322.1,29341.1
53327.9,29348.9
53332.9,29357.1
53337,29365.9
53340.2,29375
53342.6,29384.3
53344,29393.9
53344.5,29403.5
53344.5,29767.7
53344,29777.4
53342.6,29786.9
53340.2,29796.3
53337,29805.4
53332.9,29814.1
53327.9,29822.4
53322.1,29830.2
53315.7,29837.3
53308.5,29843.8
53300.7,29849.6
53292.5,29854.5
53283.7,29858.6
53274.6,29861.9
53265.3,29864.3
53255.7,29865.7
53246.1,29866.1
52753.9,29866.1
52744.3,29865.7
52734.7,29864.3
52725.4,29861.9
52716.3,29858.6
52707.5,29854.5
52699.3,29849.6
52691.5,29843.8
52684.3,29837.3
52677.9,29830.2
52672.1,29822.4
52667.1,29814.1
52663,29805.4
52659.8,29796.3
52657.4,29786.9
52656,29777.4
52655.5,29767.7
52655.5,29403.5
52656,29393.9
52657.4,29384.3
52659.8,29375
52663,29365.9
52667.1,29357.1
52672.1,29348.9
52677.9,29341.1
52684.3,29333.9
52691.5,29327.5
52699.3,29321.7
52707.5,29316.7
52716.3,29312.6
52725.4,29309.4
52734.7,29307
52744.3,29305.6
52753.9,29305.1
53246.1,29305.1
Z" /> 
<path style="fill:#000000; fill-opacity:1.0; 
stroke:#000000; stroke-width:0; stroke-opacity:1; 
stroke-linecap:round; stroke-linejoin:round;fill-rule:evenodd;"
d="M 53255.7,28134.3
53265.3,28135.7
53274.6,28138.1
53283.7,28141.4
53292.5,28145.5
53300.7,28150.4
53308.5,28156.2
53315.7,28162.7
53322.1,28169.8
53327.9,28177.6
53332.9,28185.9
53337,28194.6
53340.2,28203.7
53342.6,28213.1
53344,28222.6
53344.5,28232.3
53344.5,28596.5
53344,28606.1
53342.6,28615.7
53340.2,28625
53337,28634.1
53332.9,28642.9
53327.9,28651.1
53322.1,28658.9
53315.7,28666.1
53308.5,28672.5
53300.7,28678.3
53292.5,28683.3
53283.7,28687.4
53274.6,28690.6
53265.3,28693
53255.7,28694.4
53246.1,28694.9
52753.9,28694.9
52744.3,28694.4
52734.7,28693
52725.4,28690.6
52716.3,28687.4
52707.5,28683.3
52699.3,28678.3
52691.5,28672.5
52684.3,28666.1
52677.9,28658.9
52672.1,28651.1
52667.1,28642.9
52663,28634.1
52659.8,28625
52657.4,28615.7
52656,28606.1
52655.5,28596.5
52655.5,28232.3
52656,28222.6
52657.4,28213.1
52659.8,28203.7
52663,28194.6
52667.1,28185.9
52672.1,28177.6
52677.9,28169.8
52684.3,28162.7
52691.5,28156.2
52699.3,28150.4
52707.5,28145.5
52716.3,28141.4
52725.4,28138.1
52734.7,28135.7
52744.3,28134.3
52753.9,28133.9
53246.1,28133.9
Z" /> 
</g>
<g >
</g>
<g style="fill:#000000; fill-opacity:1.0; 
stroke:#000000; stroke-width:0; stroke-opacity:1; 
stroke-linecap:round; stroke-linejoin:round;">
<path style="fill:#000000; fill-opacity:1.0; 
stroke:#000000; stroke-width:0; stroke-opacity:1; 
stroke-linecap:round; stroke-linejoin:round;fill-rule:evenodd;"
d="M 58777.4,38156
58786.9,38157.4
58796.3,38159.8
58805.4,38163
58814.1,38167.1
58822.4,38172.1
58830.2,38177.9
58837.3,38184.3
58843.8,38191.5
58849.6,38199.3
58854.5,38207.5
58858.6,38216.3
58861.9,38225.4
58864.3,38234.7
58865.7,38244.3
58866.1,38253.9
58866.1,38746.1
58865.7,38755.7
58864.3,38765.3
58861.9,38774.6
58858.6,38783.7
58854.5,38792.5
58849.6,38800.7
58843.8,38808.5
58837.3,38815.7
58830.2,38822.1
58822.4,38827.9
58814.1,38832.9
58805.4,38837
58796.3,38840.2
58786.9,38842.6
58777.4,38844
58767.7,38844.5
58403.5,38844.5
58393.9,38844
58384.3,38842.6
58375,38840.2
58365.9,38837
58357.1,38832.9
58348.9,38827.9
58341.1,38822.1
58333.9,38815.7
58327.5,38808.5
58321.7,38800.7
58316.7,38792.5
58312.6,38783.7
58309.4,38774.6
58307,38765.3
58305.6,38755.7
58305.1,38746.1
58305.1,38253.9
58305.6,38244.3
58307,38234.7
58309.4,38225.4
58312.6,38216.3
58316.7,38207.5
58321.7,38199.3
58327.5,38191.5
58333.9,38184.3
58341.1,38177.9
58348.9,38172.1
58357.1,38167.1
58365.9,38163
58375,38159.8
58384.3,38157.4
58393.9,38156
58403.5,38155.5
58767.7,38155.5
Z" /> 
<path style="fill:#000000; fill-opacity:1.0; 
stroke:#000000; stroke-width:0; stroke-opacity:1; 
stroke-linecap:round; stroke-linejoin:round;fill-rule:evenodd;"
d="M 57606.1,38156
57615.7,38157.4
57625,38159.8
57634.1,38163
57642.9,38167.1
57651.1,38172.1
57658.9,38177.9
57666.1,38184.3
57672.5,38191.5
57678.3,38199.3
57683.3,38207.5
57687.4,38216.3
57690.6,38225.4
57693,38234.7
57694.4,38244.3
57694.9,38253.9
57694.9,38746.1
57694.4,38755.7
57693,38765.3
57690.6,38774.6
57687.4,38783.7
57683.3,38792.5
57678.3,38800.7
57672.5,38808.5
57666.1,38815.7
57658.9,38822.1
57651.1,38827.9
57642.9,38832.9
57634.1,38837
57625,38840.2
57615.7,38842.6
57606.1,38844
57596.5,38844.5
57232.3,38844.5
57222.6,38844
57213.1,38842.6
57203.7,38840.2
57194.6,38837
57185.9,38832.9
57177.6,38827.9
57169.8,38822.1
57162.7,38815.7
57156.2,38808.5
57150.4,38800.7
57145.5,38792.5
57141.4,38783.7
57138.1,38774.6
57135.7,38765.3
57134.3,38755.7
57133.9,38746.1
57133.9,38253.9
57134.3,38244.3
57135.7,38234.7
57138.1,38225.4
57141.4,38216.3
57145.5,38207.5
57150.4,38199.3
57156.2,38191.5
57162.7,38184.3
57169.8,38177.9
57177.6,38172.1
57185.9,38167.1
57194.6,38163
57203.7,38159.8
57213.1,38157.4
57222.6,38156
57232.3,38155.5
57596.5,38155.5
Z" /> 
</g>
<g >
</g>
<g style="fill:#000000; fill-opacity:1.0; 
stroke:#000000; stroke-width:0; stroke-opacity:1; 
stroke-linecap:round; stroke-linejoin:round;">
<path style="fill:#000000; fill-opacity:1.0; 
stroke:#000000; stroke-width:0; stroke-opacity:1; 
stroke-linecap:round; stroke-linejoin:round;fill-rule:evenodd;"
d="M 58777.4,39156
58786.9,39157.4
58796.3,39159.8
58805.4,39163
58814.1,39167.1
58822.4,39172.1
58830.2,39177.9
58837.3,39184.3
58843.8,39191.5
58849.6,39199.3
58854.5,39207.5
58858.6,39216.3
58861.9,39225.4
58864.3,39234.7
58865.7,39244.3
58866.1,39253.9
58866.1,39746.1
58865.7,39755.7
58864.3,39765.3
58861.9,39774.6
58858.6,39783.7
58854.5,39792.5
58849.6,39800.7
58843.8,39808.5
58837.3,39815.7
58830.2,39822.1
58822.4,39827.9
58814.1,39832.9
58805.4,39837
58796.3,39840.2
58786.9,39842.6
58777.4,39844
58767.7,39844.5
58403.5,39844.5
58393.9,39844
58384.3,39842.6
58375,39840.2
58365.9,39837
58357.1,39832.9
58348.9,39827.9
58341.1,39822.1
58333.9,39815.7
58327.5,39808.5
58321.7,39800.7
58316.7,39792.5
58312.6,39783.7
58309.4,39774.6
58307,39765.3
58305.6,39755.7
58305.1,39746.1
58305.1,39253.9
58305.6,39244.3
58307,39234.7
58309.4,39225.4
58312.6,39216.3
58316.7,39207.5
58321.7,39199.3
58327.5,39191.5
58333.9,39184.3
58341.1,39177.9
58348.9,39172.1
58357.1,39167.1
58365.9,39163
58375,39159.8
58384.3,39157.4
58393.9,39156
58403.5,39155.5
58767.7,39155.5
Z" /> 
<path style="fill:#000000; fill-opacity:1.0; 
stroke:#000000; stroke-width:0; stroke-opacity:1; 
stroke-linecap:round; stroke-linejoin:round;fill-rule:evenodd;"
d="M 57606.1,39156
57615.7,39157.4
57625,39159.8
57634.1,39163
57642.9,39167.1
57651.1,39172.1
57658.9,39177.9
57666.1,39184.3
57672.5,39191.5
57678.3,39199.3
57683.3,39207.5
57687.4,39216.3
57690.6,39225.4
57693,39234.7
57694.4,39244.3
57694.9,39253.9
57694.9,39746.1
57694.4,39755.7
57693,39765.3
57690.6,39774.6
57687.4,39783.7
57683.3,39792.5
57678.3,39800.7
57672.5,39808.5
57666.1,39815.7
57658.9,39822.1
57651.1,39827.9
57642.9,39832.9
57634.1,39837
57625,39840.2
57615.7,39842.6
57606.1,39844
57596.5,39844.5
57232.3,39844.5
57222.6,39844
57213.1,39842.6
57203.7,39840.2
57194.6,39837
57185.9,39832.9
57177.6,39827.9
57169.8,39822.1
57162.7,39815.7
57156.2,39808.5
57150.4,39800.7
57145.5,39792.5
57141.4,39783.7
57138.1,39774.6
57135.7,39765.3
57134.3,39755.7
57133.9,39746.1
57133.9,39253.9
57134.3,39244.3
57135.7,39234.7
57138.1,39225.4
57141.4,39216.3
57145.5,39207.5
57150.4,39199.3
57156.2,39191.5
57162.7,39184.3
57169.8,39177.9
57177.6,39172.1
57185.9,39167.1
57194.6,39163
57203.7,39159.8
57213.1,39157.4
57222.6,39156
57232.3,39155.5
57596.5,39155.5
Z" /> 
</g>
<g >
</g>
<g style="fill:#000000; fill-opacity:1.0; 
stroke:#000000; stroke-width:0; stroke-opacity:1; 
stroke-linecap:round; stroke-linejoin:round;">
</g>
<g style="fill:#000000; fill-opacity:1.0; 
stroke:#000000; stroke-width:750; stroke-opacity:1; 
stroke-linecap:round; stroke-linejoin:round;">
</g>
<g style="fill:#000000; fill-opacity:0.0; 
stroke:#000000; stroke-width:750; stroke-opacity:1; 
stroke-linecap:round; stroke-linejoin:round;">
<path d="M51000 34481
L51000 34518
" />
<path d="M50000 34481
L50000 34518
" />
</g>
<g style="fill:#000000; fill-opacity:0.0; 
stroke:#000000; stroke-width:0; stroke-opacity:1; 
stroke-linecap:round; stroke-linejoin:round;">
</g>
<g style="fill:#000000; fill-opacity:1.0; 
stroke:#000000; stroke-width:0; stroke-opacity:1; 
stroke-linecap:round; stroke-linejoin:round;">
<path style="fill:#000000; fill-opacity:1.0; 
stroke:#000000; stroke-width:0; stroke-opacity:1; 
stroke-linecap:round; stroke-linejoin:round;fill-rule:evenodd;"
d="M 48625,34893.7
48625,34106.3
49375,34106.3
49375,34893.7
Z" /> 
</g>
<g >
</g>
<g >
</g>
<g style="fill:#000000; fill-opacity:1.0; 
stroke:#000000; stroke-width:0; stroke-opacity:1; 
stroke-linecap:round; stroke-linejoin:round;">
</g>
<g style="fill:#000000; fill-opacity:1.0; 
stroke:#000000; stroke-width:250; stroke-opacity:1; 
stroke-linecap:round; stroke-linejoin:round;">
</g>
<g style="fill:#000000; fill-opacity:0.0; 
stroke:#000000; stroke-width:250; stroke-opacity:1; 
stroke-linecap:round; stroke-linejoin:round;">
<path d="M58585 37500
L60500 37500
" />
<path d="M56502 34771
L54500 34771
" />
<path d="M57059 34771
L56502 34771
" />
<path d="M57059 34771
L57771 34771
" />
<path d="M58585 35585
L58585 37500
" />
<path d="M57771 34771
L58585 35585
" />
<path d="M51000 34500
L51000 35000
" />
<path d="M51000 35000
L52000 36000
" />
<path d="M52000 36000
L52000 36500
" />
<path d="M51000 34500
L51000 34000
" />
<path d="M51000 34000
L52000 33000
" />
<path d="M52000 33000
L54500 33000
" />
<path d="M54500 33000
L57059 33000
" />
<path d="M67500 28000
L67000 27500
" />
<path d="M67500 42500
L67500 28000
" />
<path d="M67000 43000
L67500 42500
" />
<path d="M57500 36500
L58000 37000
" />
<path d="M67000 27500
L66500 27500
" />
<path d="M52000 36500
L57500 36500
" />
<path d="M58000 37000
L58000 42500
" />
<path d="M58500 43000
L67000 43000
" />
<path d="M58000 42500
L58500 43000
" />
<path d="M62000 22500
L62000 21500
" />
<path d="M62000 21500
L62500 21000
" />
<path d="M62500 21000
L65500 21000
" />
<path d="M65500 21000
L66000 21500
" />
<path d="M66000 21500
L66000 27000
" />
<path d="M66000 27000
L66500 27500
" />
<path d="M58585 39500
L60500 39500
" />
</g>
<g style="fill:#000000; fill-opacity:0.0; 
stroke:#000000; stroke-width:98.4252; stroke-opacity:1; 
stroke-linecap:round; stroke-linejoin:round;">
<path d="M50000 36500
L50000 34500
" />
<path d="M62500 30000
L62500 22000
" />
<path d="M50000 37500
L50000 36500
" />
</g>
<g style="fill:#000000; fill-opacity:0.0; 
stroke:#000000; stroke-width:787.402; stroke-opacity:1; 
stroke-linecap:round; stroke-linejoin:round;">
<path d="M50000 42500
L50000 34500
" />
</g>
<g style="fill:#000000; fill-opacity:0.0; 
stroke:#000000; stroke-width:250; stroke-opacity:1; 
stroke-linecap:round; stroke-linejoin:round;">
<path d="M57414 37500
L50000 37500
" />
<path d="M49000 36500
L50000 36500
" />
<path d="M50828 36500
L50000 36500
" />
<path d="M60500 30500
L51500 30500
" />
<path d="M51500 30500
L51000 31000
" />
<path d="M51000 31000
L51000 32000
" />
<path d="M51000 32000
L50500 32500
" />
<path d="M50500 32500
L50000 32500
" />
<path d="M50000 34500
L50000 32500
" />
<path d="M50000 32500
L50000 30875
" />
<path d="M51500 30500
L53000 30500
" />
<path d="M53000 30500
L53000 29585
" />
<path d="M60500 30500
L62000 30500
" />
<path d="M62000 30500
L62500 30000
" />
<path d="M62500 30000
L62500 23500
" />
<path d="M62500 22000
L63000 21500
" />
<path d="M64500 21500
L63000 21500
" />
<path d="M64500 21500
L65000 22000
" />
<path d="M65000 22000
L65000 22500
" />
<path d="M65500 28500
L66500 28500
" />
<path d="M65500 28500
L65000 28000
" />
<path d="M65000 28000
L65000 22500
" />
<path d="M62500 23500
L62500 23000
" />
</g>
<g style="fill:#000000; fill-opacity:0.0; 
stroke:#000000; stroke-width:787.402; stroke-opacity:1; 
stroke-linecap:round; stroke-linejoin:round;">
<path d="M56500 46000
L56500 43500
" />
<path d="M56500 43500
L56000 43000
" />
</g>
<g style="fill:#000000; fill-opacity:0.0; 
stroke:#000000; stroke-width:250; stroke-opacity:1; 
stroke-linecap:round; stroke-linejoin:round;">
<path d="M51500 41000
L51500 43000
" />
</g>
<g style="fill:#000000; fill-opacity:0.0; 
stroke:#000000; stroke-width:787.402; stroke-opacity:1; 
stroke-linecap:round; stroke-linejoin:round;">
<path d="M51500 43000
L50500 43000
" />
</g>
<g style="fill:#000000; fill-opacity:0.0; 
stroke:#000000; stroke-width:250; stroke-opacity:1; 
stroke-linecap:round; stroke-linejoin:round;">
<path d="M54500 41000
L54500 43000
" />
</g>
<g style="fill:#000000; fill-opacity:0.0; 
stroke:#000000; stroke-width:787.402; stroke-opacity:1; 
stroke-linecap:round; stroke-linejoin:round;">
<path d="M56000 43000
L54500 43000
" />
<path d="M54500 43000
L51500 43000
" />
<path d="M50500 43000
L50000 43000
" />
<path d="M50000 43000
L50000 42500
" />
<path d="M50000 47500
L50000 43000
" />
<path d="M49500 48000
L50000 47500
" />
<path d="M45000 48000
L49500 48000
" />
<path d="M44000 47000
L45000 48000
" />
<path d="M58000 27000
L58000 21500
" />
<path d="M44000 22000
L44000 47000
" />
<path d="M45500 20500
L44000 22000
" />
<path d="M55000 27000
L58000 27000
" />
<path d="M58000 21500
L57000 20500
" />
<path d="M57000 20500
L45500 20500
" />
</g>
<g style="fill:#000000; fill-opacity:0.0; 
stroke:#000000; stroke-width:250; stroke-opacity:1; 
stroke-linecap:round; stroke-linejoin:round;">
<path d="M58585 38500
L60500 38500
" />
<path d="M60500 33500
L63500 33500
" />
<path d="M63500 33500
L64000 33000
" />
<path d="M64000 33000
L64000 22500
" />
<path d="M63000 32000
L63000 22500
" />
<path d="M60500 32500
L62500 32500
" />
<path d="M62500 32500
L63000 32000
" />
<path d="M55000 28414
L58585 28414
" />
<path d="M59500 27500
L60500 27500
" />
<path d="M58585 28414
L59500 27500
" />
</g>
<g style="fill:#000000; fill-opacity:0.0; 
stroke:#000000; stroke-width:787.402; stroke-opacity:1; 
stroke-linecap:round; stroke-linejoin:round;">
<path d="M46500 34500
L46500 35000
" />
<path d="M46500 22500
L46500 24000
" />
<path d="M46500 24000
L46500 34500
" />
</g>
<g style="fill:#000000; fill-opacity:0.0; 
stroke:#000000; stroke-width:98.4252; stroke-opacity:1; 
stroke-linecap:round; stroke-linejoin:round;">
<path d="M49000 24000
L50555 24000
" />
</g>
<g style="fill:#000000; fill-opacity:0.0; 
stroke:#000000; stroke-width:250; stroke-opacity:1; 
stroke-linecap:round; stroke-linejoin:round;">
<path d="M47828 36500
L46500 36500
" />
</g>
<g style="fill:#000000; fill-opacity:0.0; 
stroke:#000000; stroke-width:787.402; stroke-opacity:1; 
stroke-linecap:round; stroke-linejoin:round;">
<path d="M46500 46000
L46500 36500
" />
<path d="M46500 36500
L46500 35000
" />
</g>
<g style="fill:#000000; fill-opacity:0.0; 
stroke:#000000; stroke-width:98.4252; stroke-opacity:1; 
stroke-linecap:round; stroke-linejoin:round;">
<path d="M49000 27124
L49000 24000
" />
<path d="M50555 24000
L46500 24000
" />
</g>
<g style="fill:#000000; fill-opacity:0.0; 
stroke:#000000; stroke-width:1000; stroke-opacity:1; 
stroke-linecap:round; stroke-linejoin:round;">
<path d="M46500 46000
L46500 22500
" />
<path d="M46500 34500
L48500 34500
" />
</g>
<g style="fill:#000000; fill-opacity:0.0; 
stroke:#000000; stroke-width:787.402; stroke-opacity:1; 
stroke-linecap:round; stroke-linejoin:round;">
<path d="M48500 34500
L49000 34500
" />
</g>
<g style="fill:#000000; fill-opacity:0.0; 
stroke:#000000; stroke-width:98.4252; stroke-opacity:1; 
stroke-linecap:round; stroke-linejoin:round;">
<path d="M55500 23000
L56000 22500
" />
</g>
<g style="fill:#000000; fill-opacity:0.0; 
stroke:#000000; stroke-width:787.402; stroke-opacity:1; 
stroke-linecap:round; stroke-linejoin:round;">
<path d="M54000 26000
L56000 24000
" />
<path d="M56000 24000
L56000 22500
" />
</g>
<g style="fill:#000000; fill-opacity:0.0; 
stroke:#000000; stroke-width:98.4252; stroke-opacity:1; 
stroke-linecap:round; stroke-linejoin:round;">
<path d="M52444 24000
L56000 24000
" />
</g>
<g style="fill:#000000; fill-opacity:0.0; 
stroke:#000000; stroke-width:1000; stroke-opacity:1; 
stroke-linecap:round; stroke-linejoin:round;">
<path d="M54000 26500
L54000 26000
" />
</g>
<g style="fill:#000000; fill-opacity:0.0; 
stroke:#000000; stroke-width:787.402; stroke-opacity:1; 
stroke-linecap:round; stroke-linejoin:round;">
<path d="M54000 27000
L54000 26500
" />
</g>
<g style="fill:#000000; fill-opacity:0.0; 
stroke:#000000; stroke-width:1000; stroke-opacity:1; 
stroke-linecap:round; stroke-linejoin:round;">
<path d="M56000 23613
L56000 22500
" />
<path d="M56000 24124
L56000 23613
" />
<path d="M54124 26000
L56000 24124
" />
<path d="M54000 26000
L54124 26000
" />
</g>
<g style="fill:#000000; fill-opacity:0.0; 
stroke:#000000; stroke-width:250; stroke-opacity:1; 
stroke-linecap:round; stroke-linejoin:round;">
<path d="M52585 41085
L52500 41000
" />
<path d="M52500 41000
L52500 39000
" />
<path d="M52500 39000
L53000 38500
" />
<path d="M53000 38500
L57414 38500
" />
<path d="M55585 41085
L55500 41000
" />
<path d="M55500 41000
L55500 40000
" />
<path d="M55500 40000
L56000 39500
" />
<path d="M56000 39500
L57414 39500
" />
<path d="M50124 27000
L50000 27124
" />
<path d="M53000 27000
L50124 27000
" />
<path d="M53000 28414
L53000 27000
" />
<path d="M49000 30875
L49000 29500
" />
<path d="M49000 29500
L49500 29000
" />
<path d="M49500 29000
L54500 29000
" />
<path d="M54500 29000
L55000 29500
" />
<path d="M55000 29500
L55000 29585
" />
</g>
<g >
</g>
<g style="fill:#000000; fill-opacity:0.0; 
stroke:#000000; stroke-width:250; stroke-opacity:1; 
stroke-linecap:round; stroke-linejoin:round;">
</g>
<g style="fill:#000000; fill-opacity:1.0; 
stroke:#000000; stroke-width:157.48; stroke-opacity:1; 
stroke-linecap:round; stroke-linejoin:round;">
<path style="fill:#000000; fill-opacity:1.0; 
stroke:#000000; stroke-width:157.48; stroke-opacity:1; 
stroke-linecap:round; stroke-linejoin:round;fill-rule:evenodd;"
d="M 70921.3,51421.3
40078.7,51421.3
40078.7,48779
40255.9,48779
40255.9,49221
40342.1,49654.6
40511.3,50063
40756.9,50430.5
41069.5,50743.1
41437,50988.7
41845.4,51157.9
42279,51244.1
42721,51244.1
43154.6,51157.9
43563,50988.7
43930.5,50743.1
44243.1,50430.5
44488.7,50063
44657.9,49654.6
44744.1,49221
44744.1,48779
66255.9,48779
66255.9,49221
66342.1,49654.6
66511.3,50063
66756.9,50430.5
67069.5,50743.1
67437,50988.7
67845.4,51157.9
68279,51244.1
68721,51244.1
69154.6,51157.9
69563,50988.7
69930.5,50743.1
70243.1,50430.5
70488.7,50063
70657.9,49654.6
70744.1,49221
70744.1,48779
70657.9,48345.4
70488.7,47937
70243.1,47569.5
69930.5,47256.9
69563,47011.3
69154.6,46842.1
68721,46755.9
68279,46755.9
67845.4,46842.1
67437,47011.3
67069.5,47256.9
66756.9,47569.5
66511.3,47937
66342.1,48345.4
66255.9,48779
44744.1,48779
44657.9,48345.4
44488.7,47937
44243.1,47569.5
43930.5,47256.9
43563,47011.3
43154.6,46842.1
42721,46755.9
42279,46755.9
41845.4,46842.1
41437,47011.3
41069.5,47256.9
40756.9,47569.5
40511.3,47937
40342.1,48345.4
40255.9,48779
40078.7,48779
40078.7,22337.1
44846.5,22337.1
44846.5,22662.9
44910,22982.3
45034.6,23283.2
45133.9,23431.7
45133.9,34432.9
45127.2,34500
45133.9,34567.1
45133.9,45068.3
45034.6,45216.8
44910,45517.7
44846.5,45837.1
44846.5,46162.9
44910,46482.3
45034.6,46783.2
45215.6,47054.1
45445.9,47284.4
45716.8,47465.4
45893.7,47538.6
45893.7,48415.4
50106.3,48415.4
50106.3,45679.1
53174.9,45679.1
53174.9,48415.4
56825.1,48415.4
56825.1,47012.8
56888.1,46995.1
57074.8,46900.3
57111.8,46875.6
57192.5,46720.3
56825.1,46352.9
56825.1,46297.2
57220.3,46692.5
57375.6,46611.8
57478.1,46429.2
57543,46230.2
57567.9,46022.3
57551.7,45813.5
57495.1,45611.9
57400.3,45425.2
57375.6,45388.2
57220.3,45307.5
56825.1,45702.8
56825.1,45679.1
56793,45679.1
57192.5,45279.7
57111.8,45124.4
56929.2,45021.9
56730.2,44957
56522.3,44932.1
56313.5,44948.3
56111.9,45004.9
55925.2,45099.7
55888.2,45124.4
55807.5,45279.7
56207,45679.1
56151.3,45679.1
55779.7,45307.5
55624.4,45388.2
55521.9,45570.8
55486.5,45679.1
53174.9,45679.1
50106.3,45679.1
48122.1,45679.1
48090,45517.7
47965.4,45216.8
47866.1,45068.3
47866.1,37714.8
48010.8,37714.8
48199.8,37696.2
48381.6,37641.1
48549,37551.6
48695.8,37431.1
48816.3,37284.3
48904.1,37120.1
48911.4,37120.1
48980.3,37051.2
48980.3,36519.7
49019.7,36519.7
49019.7,37051.2
49088.6,37120.1
49280.5,37121.4
49334.5,37116.1
49386.5,37100.3
49434.4,37074.7
49476.3,37040.3
49510.8,36998.3
49536.4,36950.5
49552.1,36898.5
49557.4,36844.5
50271.3,36844.5
50276.6,36898.5
50292.4,36950.5
50318,36998.3
50352.4,37040.3
50394.4,37074.7
50442.3,37100.3
50494.2,37116.1
50548.2,37121.4
50740.2,37120.1
50809.1,37051.2
50809.1,36519.7
50341.5,36519.7
50272.6,36588.6
50271.3,36844.5
49557.4,36844.5
49556.1,36588.6
49487.2,36519.7
49019.7,36519.7
48980.3,36519.7
48979.6,36519.7
48979.6,36480.3
48980.3,36480.3
48980.3,35948.8
49019.7,35948.8
49019.7,36480.3
49487.2,36480.3
49556.1,36411.4
49557.4,36155.5
49552.1,36101.5
49536.4,36049.5
49510.8,36001.7
49476.3,35959.7
49434.4,35925.3
49386.5,35899.7
49334.5,35883.9
49280.5,35878.6
49088.6,35879.9
49019.7,35948.8
48980.3,35948.8
48911.4,35879.9
48904.1,35879.9
48869.6,35815.5
49025.3,35768.3
49033.2,35764
49375,35764
49544.8,35747.3
49708.1,35697.8
49858.5,35617.4
49990.4,35509.1
50086,35392.6
50171.9,35553.3
50295.8,35704.2
50333.6,35735.3
50485,35886.7
50442.3,35899.7
50394.4,35925.3
50352.4,35959.7
50318,36001.7
50292.4,36049.5
50276.6,36101.5
50271.3,36155.5
50272.6,36411.4
50341.5,36480.3
50809.1,36480.3
50809.1,36472.4
50848.4,36472.4
50848.4,36480.3
50849.2,36480.3
50849.2,36519.7
50848.4,36519.7
50848.4,37051.2
50917.3,37120.1
50924.7,37120.1
51012.4,37284.3
51132.9,37431.1
51279.7,37551.6
51447.2,37641.1
51628.9,37696.2
51817.9,37714.8
52182.1,37714.8
52371.1,37696.2
52444.1,37674.1
52295.8,37795.8
52264.7,37833.6
51833.6,38264.7
51795.8,38295.8
51764.7,38333.6
51671.9,38446.7
51579.9,38618.9
51523.2,38805.7
51504.1,39000
51508.9,39048.7
51508.9,40286.6
51436.4,40395
51411.4,40370.1
51145.7,40368.7
51091.6,40374.1
51039.7,40389.8
50991.8,40415.4
50949.9,40449.9
50915.4,40491.8
50889.8,40539.7
50874.1,40591.6
50868.7,40645.7
50870.1,40911.4
50939,40980.3
51279.5,40980.3
51279.5,41019.7
50939,41019.7
50870.1,41088.6
50868.7,41354.3
50874.1,41408.4
50889.8,41460.3
50915.4,41508.2
50949.9,41550.1
50991.8,41584.6
51039.7,41610.2
51091.6,41625.9
51145.7,41631.3
51411.4,41629.9
51436.4,41605
51552,41778
51722,41948
51921.9,42081.6
52144,42173.6
52379.8,42220.5
52620.2,42220.5
52856,42173.6
53078.1,42081.6
53278,41948
53448,41778
53581.6,41578.1
53673.6,41356
53720.5,41120.2
53720.5,40879.8
53673.6,40644
53581.6,40421.9
53491.1,40286.6
53491.1,39491.1
54648.1,39491.1
54579.9,39618.9
54523.2,39805.7
54508.9,39951.3
54504.1,40000
54508.9,40048.7
54508.9,40286.6
54436.4,40395
54411.4,40370.1
54145.7,40368.7
54091.6,40374.1
54039.7,40389.8
53991.8,40415.4
53949.9,40449.9
53915.4,40491.8
53889.8,40539.7
53874.1,40591.6
53868.7,40645.7
53870.1,40911.4
53939,40980.3
54279.5,40980.3
54279.5,41019.7
53939,41019.7
53870.1,41088.6
53868.7,41354.3
53874.1,41408.4
53889.8,41460.3
53915.4,41508.2
53949.9,41550.1
53991.8,41584.6
54039.7,41610.2
54091.6,41625.9
54145.7,41631.3
54411.4,41629.9
54436.4,41605
54552,41778
54722,41948
54921.9,42081.6
55144,42173.6
55379.8,42220.5
55620.2,42220.5
55856,42173.6
56078.1,42081.6
56278,41948
56448,41778
56581.6,41578.1
56673.6,41356
56720.5,41120.2
56720.5,40879.8
56673.6,40644
56610.3,40491.1
56620.5,40491.1
56694.1,40551.6
56861.6,40641.1
57008.9,40685.8
57008.9,42451.3
57004.1,42500
57023.2,42694.3
57079.9,42881.1
57079.9,42881.1
57171.9,43053.3
57295.8,43204.2
57333.6,43235.3
57764.7,43666.4
57795.8,43704.2
57946.7,43828.1
58118.9,43920.1
58305.7,43976.8
58451.3,43991.1
58451.3,43991.1
58500,43995.9
58548.7,43991.1
66951.3,43991.1
67000,43995.9
67048.7,43991.1
67048.7,43991.1
67194.3,43976.8
67381.1,43920.1
67553.3,43828.1
67704.2,43704.2
67735.3,43666.4
68166.4,43235.3
68204.2,43204.2
68328.1,43053.3
68420.1,42881.1
68476.8,42694.3
68491.1,42548.7
68491.1,42548.7
68495.9,42500
68491.1,42451.3
68491.1,28048.7
68495.9,28000
68491.1,27951.3
68476.8,27805.7
68420.1,27618.9
68328.1,27446.7
68204.2,27295.8
68166.4,27264.7
67735.3,26833.6
67704.2,26795.8
67553.3,26671.9
67381.1,26579.9
67194.3,26523.2
67158.8,26519.7
67059.5,26453.3
66991.1,26425
66991.1,21548.7
66995.9,21500
66984.2,21381.1
66976.8,21305.7
66920.1,21118.9
66828.1,20946.7
66704.2,20795.8
66666.4,20764.7
66415.4,20513.7
66415.4,19831.3
66511.3,20063
66756.9,20430.5
67069.5,20743.1
67437,20988.7
67845.4,21157.9
68279,21244.1
68721,21244.1
69154.6,21157.9
69563,20988.7
69930.5,20743.1
70243.1,20430.5
70488.7,20063
70657.9,19654.6
70744.1,19221
70744.1,18779
70657.9,18345.4
70488.7,17937
70243.1,17569.5
69930.5,17256.9
69563,17011.3
69154.6,16842.1
68721,16755.9
68279,16755.9
67845.4,16842.1
67437,17011.3
67069.5,17256.9
66756.9,17569.5
66511.3,17937
66415.4,18168.7
66415.4,17674.9
65415.4,17674.9
65415.4,17520.2
62679.1,17520.2
62679.1,17674.9
60679.1,17674.9
60679.1,21325.1
61021.3,21325.1
61015.8,21381.1
61004.1,21500
61008.9,21548.7
61008.9,21822
60935.9,21931.2
60845.4,22149.7
60799.2,22381.7
60799.2,22618.3
60845.4,22850.3
60935.9,23068.8
61067.3,23265.5
61234.5,23432.7
61431.2,23564.1
61649.7,23654.6
61881.7,23700.8
62008.9,23700.8
62008.9,31508.9
61681.1,31508.9
61681.1,31383.7
61635.7,31155.5
61546.7,30940.5
61417.4,30747.1
61252.9,30582.6
61129.3,30500
61252.9,30417.4
61417.4,30252.9
61546.7,30059.5
61635.7,29844.5
61681.1,29616.3
61681.1,29383.7
61635.7,29155.5
61571.3,29000
61635.7,28844.5
61681.1,28616.3
61681.1,28383.7
61635.7,28155.5
61624.8,28129.1
61668.6,27984.8
61685.3,27815
61685.3,27185
61668.6,27015.2
61619,26852
61538.6,26701.5
61430.4,26569.6
61298.5,26461.4
61148,26381
60984.8,26331.4
60815,26314.7
60185,26314.7
60015.2,26331.4
59852,26381
59701.5,26461.4
59643.7,26508.9
59548.7,26508.9
59500,26504.1
59451.3,26508.9
59451.3,26508.9
59305.7,26523.2
59118.9,26579.9
58946.7,26671.9
58795.8,26795.8
58764.7,26833.6
58175.1,27423.2
55777.6,27423.2
55616.8,27337.3
55571.7,27323.6
55610,27244.8
55642.4,27121.4
55581.7,27019.7
55270,27019.7
55281.9,26980.3
55581.7,26980.3
55642.4,26878.6
55610,26755.2
55554.2,26640.5
55494.6,26562.1
56918.6,25138.2
56970.7,25095.4
57141.4,24887.4
57268.3,24650.1
57346.4,24392.6
57366.1,24191.9
57366.1,24191.9
57372.8,24124.8
57366.1,24057.6
57366.1,23431.7
57465.4,23283.2
57590,22982.3
57653.5,22662.9
57653.5,22337.1
57590,22017.7
57465.4,21716.8
57284.4,21445.9
57054.1,21215.6
56783.2,21034.6
56482.3,20910
56162.9,20846.5
55837.1,20846.5
55517.7,20910
55216.8,21034.6
55000.5,21179.1
52371.8,21179.1
52371.8,22598.2
52149.6,22598.2
51979.8,22614.9
51816.5,22664.4
51666.1,22744.8
51534.2,22853.1
51500,22894.7
51465.8,22853.1
51333.9,22744.8
51183.5,22664.4
51020.2,22614.9
50850.4,22598.2
50259.8,22598.2
50128.2,22611.1
50128.2,21179.1
47499.5,21179.1
47283.2,21034.6
46982.3,20910
46662.9,20846.5
46337.1,20846.5
46017.7,20910
45716.8,21034.6
45445.9,21215.6
45215.6,21445.9
45034.6,21716.8
44910,22017.7
44846.5,22337.1
40078.7,22337.1
40078.7,18779
40255.9,18779
40255.9,19221
40342.1,19654.6
40511.3,20063
40756.9,20430.5
41069.5,20743.1
41437,20988.7
41845.4,21157.9
42279,21244.1
42721,21244.1
43154.6,21157.9
43563,20988.7
43930.5,20743.1
44243.1,20430.5
44488.7,20063
44657.9,19654.6
44744.1,19221
44744.1,18779
44657.9,18345.4
44488.7,17937
44243.1,17569.5
43930.5,17256.9
43563,17011.3
43154.6,16842.1
42721,16755.9
42279,16755.9
41845.4,16842.1
41437,17011.3
41069.5,17256.9
40756.9,17569.5
40511.3,17937
40342.1,18345.4
40255.9,18779
40078.7,18779
40078.7,16578.7
70921.3,16578.7
Z" /> 
<path style="fill:#000000; fill-opacity:1.0; 
stroke:#000000; stroke-width:157.48; stroke-opacity:1; 
stroke-linecap:round; stroke-linejoin:round;fill-rule:evenodd;"
d="M 65008.9,26951.3
65004.1,27000
65023.2,27194.3
65079.9,27381.1
65140.3,27494.2
65171.9,27553.3
65295.8,27704.2
65333.6,27735.3
65344.8,27746.5
65364.3,27844.5
65453.3,28059.5
65582.6,28252.9
65747.1,28417.4
65870.7,28500
65747.1,28582.6
65582.6,28747.1
65453.3,28940.5
65364.3,29155.5
65318.9,29383.7
65318.9,29616.3
65364.3,29844.5
65428.7,30000
65364.3,30155.5
65318.9,30383.7
65318.9,30616.3
65364.3,30844.5
65428.7,31000
65364.3,31155.5
65318.9,31383.7
65318.9,31616.3
65364.3,31844.5
65428.7,32000
65364.3,32155.5
65318.9,32383.7
65318.9,32616.3
65364.3,32844.5
65428.7,33000
65364.3,33155.5
65318.9,33383.7
65318.9,33616.3
65364.3,33844.5
65428.7,34000
65364.3,34155.5
65318.9,34383.7
65318.9,34616.3
65364.3,34844.5
65428.7,35000
65364.3,35155.5
65318.9,35383.7
65318.9,35616.3
65364.3,35844.5
65428.7,36000
65364.3,36155.5
65318.9,36383.7
65318.9,36616.3
65364.3,36844.5
65428.7,37000
65364.3,37155.5
65318.9,37383.7
65318.9,37616.3
65364.3,37844.5
65428.7,38000
65364.3,38155.5
65318.9,38383.7
65318.9,38616.3
65364.3,38844.5
65428.7,39000
65364.3,39155.5
65318.9,39383.7
65318.9,39616.3
65364.3,39844.5
65428.7,40000
65364.3,40155.5
65318.9,40383.7
65318.9,40616.3
65364.3,40844.5
65428.7,41000
65364.3,41155.5
65318.9,41383.7
65318.9,41616.3
65364.3,41844.5
65432.4,42008.9
61567.6,42008.9
61635.7,41844.5
61681.1,41616.3
61681.1,41383.7
61635.7,41155.5
61571.3,41000
61635.7,40844.5
61681.1,40616.3
61681.1,40383.7
61635.7,40155.5
61571.3,40000
61635.7,39844.5
61681.1,39616.3
61681.1,39383.7
61635.7,39155.5
61571.3,39000
61635.7,38844.5
61681.1,38616.3
61681.1,38383.7
61635.7,38155.5
61571.3,38000
61635.7,37844.5
61681.1,37616.3
61681.1,37383.7
61635.7,37155.5
61571.3,37000
61635.7,36844.5
61681.1,36616.3
61681.1,36383.7
61635.7,36155.5
61571.3,36000
61635.7,35844.5
61681.1,35616.3
61681.1,35383.7
61635.7,35155.5
61571.3,35000
61635.7,34844.5
61681.1,34616.3
61681.1,34491.1
63451.3,34491.1
63500,34495.9
63548.7,34491.1
63548.7,34491.1
63694.3,34476.8
63881.1,34420.1
64053.3,34328.1
64204.2,34204.2
64235.3,34166.4
64666.4,33735.3
64704.2,33704.2
64828.1,33553.3
64920.1,33381.1
64976.8,33194.3
64991.1,33048.7
64991.1,33048.7
64995.9,33000
64991.1,32951.3
64991.1,23178
65008.9,23151.5
Z" /> 
<path style="fill:#000000; fill-opacity:1.0; 
stroke:#000000; stroke-width:157.48; stroke-opacity:1; 
stroke-linecap:round; stroke-linejoin:round;fill-rule:evenodd;"
d="M 59428.7,29000
59364.3,29155.5
59318.9,29383.7
59318.9,29616.3
59364.3,29844.5
59453.3,30059.5
59582.6,30252.9
59747.1,30417.4
59870.7,30500
59747.1,30582.6
59582.6,30747.1
59453.3,30940.5
59364.3,31155.5
59318.9,31383.7
59318.9,31616.3
59364.3,31844.5
59428.7,32000
59364.3,32155.5
59318.9,32383.7
59318.9,32616.3
59364.3,32844.5
59428.7,33000
59364.3,33155.5
59318.9,33383.7
59318.9,33616.3
59364.3,33844.5
59428.7,34000
59364.3,34155.5
59318.9,34383.7
59318.9,34616.3
59364.3,34844.5
59428.7,35000
59414.6,35034
59413.7,35032.3
59359.3,34966
59289.9,34881.4
59252,34850.4
58506.9,34105.2
58475.9,34067.4
58325,33943.6
58152.8,33851.5
58027.3,33813.5
58037.6,33803.1
58175.5,33596.8
58270.5,33367.5
58318.9,33124.1
58318.9,32875.9
58270.5,32632.5
58175.5,32403.2
58037.6,32196.9
57862.2,32021.4
57655.8,31883.5
57426.5,31788.6
57183.1,31740.2
56935,31740.2
56691.6,31788.6
56462.3,31883.5
56274.7,32008.9
55284.3,32008.9
55096.8,31883.5
54867.5,31788.6
54624.1,31740.2
54375.9,31740.2
54132.5,31788.6
53903.2,31883.5
53715.7,32008.9
52048.7,32008.9
52000,32004.1
51951.3,32008.9
51951.3,32008.9
51805.7,32023.2
51618.9,32079.9
51457.8,32166
51446.7,32171.9
51365.8,32238.3
51295.8,32295.8
51264.7,32333.6
50333.6,33264.7
50295.8,33295.8
50171.9,33446.7
50086,33607.4
49990.4,33490.9
49858.5,33382.6
49708.1,33302.2
49544.8,33252.7
49375,33236
49033.2,33236
49025.3,33231.7
48767.8,33153.6
48567.1,33133.9
47866.1,33133.9
47866.1,31641.3
47926,31753.2
48034.2,31885.1
48166.1,31993.3
48316.5,32073.8
48479.8,32123.3
48649.6,32140
49350.4,32140
49520.2,32123.3
49683.5,32073.8
49833.9,31993.3
49965.8,31885.1
50074,31753.2
50154.5,31602.7
50171.8,31545.7
50350.4,31546.6
50404.4,31541.3
50456.4,31525.5
50504.2,31499.9
50546.2,31465.5
50580.6,31423.5
50606.2,31375.7
50622,31323.7
50627.3,31269.7
50626,30964.6
50557.1,30895.7
50220.7,30895.7
50220.7,30856.3
50557.1,30856.3
50626,30787.4
50627.3,30482.3
50622,30428.3
50606.2,30376.3
50580.6,30328.4
50546.2,30286.5
50504.2,30252
50456.4,30226.4
50404.4,30210.7
50350.4,30205.4
50171.8,30206.3
50154.5,30149.2
50074,29998.8
50067.8,29991.1
52409.8,29991.1
52425.3,30020
52459.7,30062
52501.7,30096.4
52549.5,30122
52601.5,30137.7
52655.5,30143.1
52911.4,30141.7
52980.3,30072.8
52980.3,29991.1
53019.7,29991.1
53019.7,30072.8
53088.6,30141.7
53344.5,30143.1
53398.5,30137.7
53450.5,30122
53498.3,30096.4
53540.3,30062
53574.7,30020
53590.2,29991.1
53814.2,29991.1
53858.9,30138.4
53948.4,30305.9
54068.9,30452.7
54215.7,30573.2
54383.2,30662.7
54564.9,30717.9
54753.9,30736.5
55246.1,30736.5
55435.1,30717.9
55616.8,30662.7
55784.3,30573.2
55931.1,30452.7
56051.6,30305.9
56141.1,30138.4
56196.2,29956.7
56214.8,29767.7
56214.8,29405.5
58536.9,29405.5
58585.6,29410.3
58634.3,29405.5
58634.3,29405.5
58779.9,29391.2
58966.8,29334.5
59138.9,29242.5
59289.9,29118.6
59320.9,29080.8
59420.8,28980.9
Z" /> 
</g>
</g>
<g style="fill:#FFFFFF; fill-opacity:1.0; 
stroke:#FFFFFF; stroke-width:157.48; stroke-opacity:1; 
stroke-linecap:round; stroke-linejoin:round;">
</g>
<g style="fill:#FFFFFF; fill-opacity:1.0; 
stroke:#FFFFFF; stroke-width:0; stroke-opacity:1; 
stroke-linecap:round; stroke-linejoin:round;">
<circle cx="42500" cy="49000" r="688.976" /> 
</g>
<g style="fill:#FFFFFF; fill-opacity:1.0; 
stroke:#FFFFFF; stroke-width:39.3701; stroke-opacity:1; 
stroke-linecap:round; stroke-linejoin:round;">
</g>
<g style="fill:#FFFFFF; fill-opacity:1.0; 
stroke:#FFFFFF; stroke-width:0; stroke-opacity:1; 
stroke-linecap:round; stroke-linejoin:round;">
<circle cx="68500" cy="49000" r="688.976" /> 
</g>
<g style="fill:#FFFFFF; fill-opacity:1.0; 
stroke:#FFFFFF; stroke-width:39.3701; stroke-opacity:1; 
stroke-linecap:round; stroke-linejoin:round;">
</g>
<g style="fill:#FFFFFF; fill-opacity:1.0; 
stroke:#FFFFFF; stroke-width:0; stroke-opacity:1; 
stroke-linecap:round; stroke-linejoin:round;">
<circle cx="68500" cy="19000" r="688.976" /> 
</g>
<g style="fill:#FFFFFF; fill-opacity:1.0; 
stroke:#FFFFFF; stroke-width:39.3701; stroke-opacity:1; 
stroke-linecap:round; stroke-linejoin:round;">
</g>
<g style="fill:#FFFFFF; fill-opacity:1.0; 
stroke:#FFFFFF; stroke-width:0; stroke-opacity:1; 
stroke-linecap:round; stroke-linejoin:round;">
<circle cx="42500" cy="19000" r="688.976" /> 
</g>
<g style="fill:#FFFFFF; fill-opacity:1.0; 
stroke:#FFFFFF; stroke-width:39.3701; stroke-opacity:1; 
stroke-linecap:round; stroke-linejoin:round;">
</g>
<g style="fill:#FFFFFF; fill-opacity:1.0; 
stroke:#FFFFFF; stroke-width:0; stroke-opacity:1; 
stroke-linecap:round; stroke-linejoin:round;">
<circle cx="66500" cy="41500" r="157.48" /> 
</g>
<g style="fill:#FFFFFF; fill-opacity:1.0; 
stroke:#FFFFFF; stroke-width:39.3701; stroke-opacity:1; 
stroke-linecap:round; stroke-linejoin:round;">
</g>
<g style="fill:#FFFFFF; fill-opacity:1.0; 
stroke:#FFFFFF; stroke-width:0; stroke-opacity:1; 
stroke-linecap:round; stroke-linejoin:round;">
<circle cx="60500" cy="41500" r="157.48" /> 
</g>
<g style="fill:#FFFFFF; fill-opacity:1.0; 
stroke:#FFFFFF; stroke-width:39.3701; stroke-opacity:1; 
stroke-linecap:round; stroke-linejoin:round;">
</g>
<g style="fill:#FFFFFF; fill-opacity:1.0; 
stroke:#FFFFFF; stroke-width:0; stroke-opacity:1; 
stroke-linecap:round; stroke-linejoin:round;">
<circle cx="66500" cy="27500" r="157.48" /> 
</g>
<g style="fill:#FFFFFF; fill-opacity:1.0; 
stroke:#FFFFFF; stroke-width:39.3701; stroke-opacity:1; 
stroke-linecap:round; stroke-linejoin:round;">
</g>
<g style="fill:#FFFFFF; fill-opacity:1.0; 
stroke:#FFFFFF; stroke-width:0; stroke-opacity:1; 
stroke-linecap:round; stroke-linejoin:round;">
<circle cx="60500" cy="40500" r="157.48" /> 
</g>
<g style="fill:#FFFFFF; fill-opacity:1.0; 
stroke:#FFFFFF; stroke-width:39.3701; stroke-opacity:1; 
stroke-linecap:round; stroke-linejoin:round;">
</g>
<g style="fill:#FFFFFF; fill-opacity:1.0; 
stroke:#FFFFFF; stroke-width:0; stroke-opacity:1; 
stroke-linecap:round; stroke-linejoin:round;">
<circle cx="66500" cy="28500" r="157.48" /> 
</g>
<g style="fill:#FFFFFF; fill-opacity:1.0; 
stroke:#FFFFFF; stroke-width:39.3701; stroke-opacity:1; 
stroke-linecap:round; stroke-linejoin:round;">
</g>
<g style="fill:#FFFFFF; fill-opacity:1.0; 
stroke:#FFFFFF; stroke-width:0; stroke-opacity:1; 
stroke-linecap:round; stroke-linejoin:round;">
<circle cx="60500" cy="39500" r="157.48" /> 
</g>
<g style="fill:#FFFFFF; fill-opacity:1.0; 
stroke:#FFFFFF; stroke-width:39.3701; stroke-opacity:1; 
stroke-linecap:round; stroke-linejoin:round;">
</g>
<g style="fill:#FFFFFF; fill-opacity:1.0; 
stroke:#FFFFFF; stroke-width:0; stroke-opacity:1; 
stroke-linecap:round; stroke-linejoin:round;">
<circle cx="66500" cy="29500" r="157.48" /> 
</g>
<g style="fill:#FFFFFF; fill-opacity:1.0; 
stroke:#FFFFFF; stroke-width:39.3701; stroke-opacity:1; 
stroke-linecap:round; stroke-linejoin:round;">
</g>
<g style="fill:#FFFFFF; fill-opacity:1.0; 
stroke:#FFFFFF; stroke-width:0; stroke-opacity:1; 
stroke-linecap:round; stroke-linejoin:round;">
<circle cx="60500" cy="38500" r="157.48" /> 
</g>
<g style="fill:#FFFFFF; fill-opacity:1.0; 
stroke:#FFFFFF; stroke-width:39.3701; stroke-opacity:1; 
stroke-linecap:round; stroke-linejoin:round;">
</g>
<g style="fill:#FFFFFF; fill-opacity:1.0; 
stroke:#FFFFFF; stroke-width:0; stroke-opacity:1; 
stroke-linecap:round; stroke-linejoin:round;">
<circle cx="66500" cy="30500" r="157.48" /> 
</g>
<g style="fill:#FFFFFF; fill-opacity:1.0; 
stroke:#FFFFFF; stroke-width:39.3701; stroke-opacity:1; 
stroke-linecap:round; stroke-linejoin:round;">
</g>
<g style="fill:#FFFFFF; fill-opacity:1.0; 
stroke:#FFFFFF; stroke-width:0; stroke-opacity:1; 
stroke-linecap:round; stroke-linejoin:round;">
<circle cx="60500" cy="37500" r="157.48" /> 
</g>
<g style="fill:#FFFFFF; fill-opacity:1.0; 
stroke:#FFFFFF; stroke-width:39.3701; stroke-opacity:1; 
stroke-linecap:round; stroke-linejoin:round;">
</g>
<g style="fill:#FFFFFF; fill-opacity:1.0; 
stroke:#FFFFFF; stroke-width:0; stroke-opacity:1; 
stroke-linecap:round; stroke-linejoin:round;">
<circle cx="66500" cy="31500" r="157.48" /> 
</g>
<g style="fill:#FFFFFF; fill-opacity:1.0; 
stroke:#FFFFFF; stroke-width:39.3701; stroke-opacity:1; 
stroke-linecap:round; stroke-linejoin:round;">
</g>
<g style="fill:#FFFFFF; fill-opacity:1.0; 
stroke:#FFFFFF; stroke-width:0; stroke-opacity:1; 
stroke-linecap:round; stroke-linejoin:round;">
<circle cx="60500" cy="36500" r="157.48" /> 
</g>
<g style="fill:#FFFFFF; fill-opacity:1.0; 
stroke:#FFFFFF; stroke-width:39.3701; stroke-opacity:1; 
stroke-linecap:round; stroke-linejoin:round;">
</g>
<g style="fill:#FFFFFF; fill-opacity:1.0; 
stroke:#FFFFFF; stroke-width:0; stroke-opacity:1; 
stroke-linecap:round; stroke-linejoin:round;">
<circle cx="66500" cy="32500" r="157.48" /> 
</g>
<g style="fill:#FFFFFF; fill-opacity:1.0; 
stroke:#FFFFFF; stroke-width:39.3701; stroke-opacity:1; 
stroke-linecap:round; stroke-linejoin:round;">
</g>
<g style="fill:#FFFFFF; fill-opacity:1.0; 
stroke:#FFFFFF; stroke-width:0; stroke-opacity:1; 
stroke-linecap:round; stroke-linejoin:round;">
<circle cx="60500" cy="35500" r="157.48" /> 
</g>
<g style="fill:#FFFFFF; fill-opacity:1.0; 
stroke:#FFFFFF; stroke-width:39.3701; stroke-opacity:1; 
stroke-linecap:round; stroke-linejoin:round;">
</g>
<g style="fill:#FFFFFF; fill-opacity:1.0; 
stroke:#FFFFFF; stroke-width:0; stroke-opacity:1; 
stroke-linecap:round; stroke-linejoin:round;">
<circle cx="66500" cy="33500" r="157.48" /> 
</g>
<g style="fill:#FFFFFF; fill-opacity:1.0; 
stroke:#FFFFFF; stroke-width:39.3701; stroke-opacity:1; 
stroke-linecap:round; stroke-linejoin:round;">
</g>
<g style="fill:#FFFFFF; fill-opacity:1.0; 
stroke:#FFFFFF; stroke-width:0; stroke-opacity:1; 
stroke-linecap:round; stroke-linejoin:round;">
<circle cx="60500" cy="34500" r="157.48" /> 
</g>
<g style="fill:#FFFFFF; fill-opacity:1.0; 
stroke:#FFFFFF; stroke-width:39.3701; stroke-opacity:1; 
stroke-linecap:round; stroke-linejoin:round;">
</g>
<g style="fill:#FFFFFF; fill-opacity:1.0; 
stroke:#FFFFFF; stroke-width:0; stroke-opacity:1; 
stroke-linecap:round; stroke-linejoin:round;">
<circle cx="66500" cy="34500" r="157.48" /> 
</g>
<g style="fill:#FFFFFF; fill-opacity:1.0; 
stroke:#FFFFFF; stroke-width:39.3701; stroke-opacity:1; 
stroke-linecap:round; stroke-linejoin:round;">
</g>
<g style="fill:#FFFFFF; fill-opacity:1.0; 
stroke:#FFFFFF; stroke-width:0; stroke-opacity:1; 
stroke-linecap:round; stroke-linejoin:round;">
<circle cx="60500" cy="33500" r="157.48" /> 
</g>
<g style="fill:#FFFFFF; fill-opacity:1.0; 
stroke:#FFFFFF; stroke-width:39.3701; stroke-opacity:1; 
stroke-linecap:round; stroke-linejoin:round;">
</g>
<g style="fill:#FFFFFF; fill-opacity:1.0; 
stroke:#FFFFFF; stroke-width:0; stroke-opacity:1; 
stroke-linecap:round; stroke-linejoin:round;">
<circle cx="66500" cy="35500" r="157.48" /> 
</g>
<g style="fill:#FFFFFF; fill-opacity:1.0; 
stroke:#FFFFFF; stroke-width:39.3701; stroke-opacity:1; 
stroke-linecap:round; stroke-linejoin:round;">
</g>
<g style="fill:#FFFFFF; fill-opacity:1.0; 
stroke:#FFFFFF; stroke-width:0; stroke-opacity:1; 
stroke-linecap:round; stroke-linejoin:round;">
<circle cx="60500" cy="32500" r="157.48" /> 
</g>
<g style="fill:#FFFFFF; fill-opacity:1.0; 
stroke:#FFFFFF; stroke-width:39.3701; stroke-opacity:1; 
stroke-linecap:round; stroke-linejoin:round;">
</g>
<g style="fill:#FFFFFF; fill-opacity:1.0; 
stroke:#FFFFFF; stroke-width:0; stroke-opacity:1; 
stroke-linecap:round; stroke-linejoin:round;">
<circle cx="66500" cy="36500" r="157.48" /> 
</g>
<g style="fill:#FFFFFF; fill-opacity:1.0; 
stroke:#FFFFFF; stroke-width:39.3701; stroke-opacity:1; 
stroke-linecap:round; stroke-linejoin:round;">
</g>
<g style="fill:#FFFFFF; fill-opacity:1.0; 
stroke:#FFFFFF; stroke-width:0; stroke-opacity:1; 
stroke-linecap:round; stroke-linejoin:round;">
<circle cx="60500" cy="31500" r="157.48" /> 
</g>
<g style="fill:#FFFFFF; fill-opacity:1.0; 
stroke:#FFFFFF; stroke-width:39.3701; stroke-opacity:1; 
stroke-linecap:round; stroke-linejoin:round;">
</g>
<g style="fill:#FFFFFF; fill-opacity:1.0; 
stroke:#FFFFFF; stroke-width:0; stroke-opacity:1; 
stroke-linecap:round; stroke-linejoin:round;">
<circle cx="66500" cy="37500" r="157.48" /> 
</g>
<g style="fill:#FFFFFF; fill-opacity:1.0; 
stroke:#FFFFFF; stroke-width:39.3701; stroke-opacity:1; 
stroke-linecap:round; stroke-linejoin:round;">
</g>
<g style="fill:#FFFFFF; fill-opacity:1.0; 
stroke:#FFFFFF; stroke-width:0; stroke-opacity:1; 
stroke-linecap:round; stroke-linejoin:round;">
<circle cx="60500" cy="30500" r="157.48" /> 
</g>
<g style="fill:#FFFFFF; fill-opacity:1.0; 
stroke:#FFFFFF; stroke-width:39.3701; stroke-opacity:1; 
stroke-linecap:round; stroke-linejoin:round;">
</g>
<g style="fill:#FFFFFF; fill-opacity:1.0; 
stroke:#FFFFFF; stroke-width:0; stroke-opacity:1; 
stroke-linecap:round; stroke-linejoin:round;">
<circle cx="66500" cy="38500" r="157.48" /> 
</g>
<g style="fill:#FFFFFF; fill-opacity:1.0; 
stroke:#FFFFFF; stroke-width:39.3701; stroke-opacity:1; 
stroke-linecap:round; stroke-linejoin:round;">
</g>
<g style="fill:#FFFFFF; fill-opacity:1.0; 
stroke:#FFFFFF; stroke-width:0; stroke-opacity:1; 
stroke-linecap:round; stroke-linejoin:round;">
<circle cx="60500" cy="29500" r="157.48" /> 
</g>
<g style="fill:#FFFFFF; fill-opacity:1.0; 
stroke:#FFFFFF; stroke-width:39.3701; stroke-opacity:1; 
stroke-linecap:round; stroke-linejoin:round;">
</g>
<g style="fill:#FFFFFF; fill-opacity:1.0; 
stroke:#FFFFFF; stroke-width:0; stroke-opacity:1; 
stroke-linecap:round; stroke-linejoin:round;">
<circle cx="66500" cy="39500" r="157.48" /> 
</g>
<g style="fill:#FFFFFF; fill-opacity:1.0; 
stroke:#FFFFFF; stroke-width:39.3701; stroke-opacity:1; 
stroke-linecap:round; stroke-linejoin:round;">
</g>
<g style="fill:#FFFFFF; fill-opacity:1.0; 
stroke:#FFFFFF; stroke-width:0; stroke-opacity:1; 
stroke-linecap:round; stroke-linejoin:round;">
<circle cx="60500" cy="28500" r="157.48" /> 
</g>
<g style="fill:#FFFFFF; fill-opacity:1.0; 
stroke:#FFFFFF; stroke-width:39.3701; stroke-opacity:1; 
stroke-linecap:round; stroke-linejoin:round;">
</g>
<g style="fill:#FFFFFF; fill-opacity:1.0; 
stroke:#FFFFFF; stroke-width:0; stroke-opacity:1; 
stroke-linecap:round; stroke-linejoin:round;">
<circle cx="66500" cy="40500" r="157.48" /> 
</g>
<g style="fill:#FFFFFF; fill-opacity:1.0; 
stroke:#FFFFFF; stroke-width:39.3701; stroke-opacity:1; 
stroke-linecap:round; stroke-linejoin:round;">
</g>
<g style="fill:#FFFFFF; fill-opacity:1.0; 
stroke:#FFFFFF; stroke-width:0; stroke-opacity:1; 
stroke-linecap:round; stroke-linejoin:round;">
<circle cx="60500" cy="27500" r="157.48" /> 
</g>
<g style="fill:#FFFFFF; fill-opacity:1.0; 
stroke:#FFFFFF; stroke-width:39.3701; stroke-opacity:1; 
stroke-linecap:round; stroke-linejoin:round;">
</g>
<g style="fill:#FFFFFF; fill-opacity:1.0; 
stroke:#FFFFFF; stroke-width:0; stroke-opacity:1; 
stroke-linecap:round; stroke-linejoin:round;">
<circle cx="54500" cy="34771.7" r="216.535" /> 
</g>
<g style="fill:#FFFFFF; fill-opacity:1.0; 
stroke:#FFFFFF; stroke-width:39.3701; stroke-opacity:1; 
stroke-linecap:round; stroke-linejoin:round;">
</g>
<g style="fill:#FFFFFF; fill-opacity:1.0; 
stroke:#FFFFFF; stroke-width:0; stroke-opacity:1; 
stroke-linecap:round; stroke-linejoin:round;">
<circle cx="54500" cy="33000" r="216.535" /> 
</g>
<g style="fill:#FFFFFF; fill-opacity:1.0; 
stroke:#FFFFFF; stroke-width:39.3701; stroke-opacity:1; 
stroke-linecap:round; stroke-linejoin:round;">
</g>
<g style="fill:#FFFFFF; fill-opacity:1.0; 
stroke:#FFFFFF; stroke-width:0; stroke-opacity:1; 
stroke-linecap:round; stroke-linejoin:round;">
<circle cx="57059.1" cy="34771.7" r="216.535" /> 
</g>
<g style="fill:#FFFFFF; fill-opacity:1.0; 
stroke:#FFFFFF; stroke-width:39.3701; stroke-opacity:1; 
stroke-linecap:round; stroke-linejoin:round;">
</g>
<g style="fill:#FFFFFF; fill-opacity:1.0; 
stroke:#FFFFFF; stroke-width:0; stroke-opacity:1; 
stroke-linecap:round; stroke-linejoin:round;">
<circle cx="57059.1" cy="33000" r="216.535" /> 
</g>
<g style="fill:#FFFFFF; fill-opacity:1.0; 
stroke:#FFFFFF; stroke-width:39.3701; stroke-opacity:1; 
stroke-linecap:round; stroke-linejoin:round;">
</g>
<g style="fill:#FFFFFF; fill-opacity:1.0; 
stroke:#FFFFFF; stroke-width:0; stroke-opacity:1; 
stroke-linecap:round; stroke-linejoin:round;">
<circle cx="56500" cy="46000" r="492.126" /> 
</g>
<g style="fill:#FFFFFF; fill-opacity:1.0; 
stroke:#FFFFFF; stroke-width:39.3701; stroke-opacity:1; 
stroke-linecap:round; stroke-linejoin:round;">
</g>
<g style="fill:#FFFFFF; fill-opacity:1.0; 
stroke:#FFFFFF; stroke-width:0; stroke-opacity:1; 
stroke-linecap:round; stroke-linejoin:round;">
<circle cx="46500" cy="22500" r="492.126" /> 
</g>
<g style="fill:#FFFFFF; fill-opacity:1.0; 
stroke:#FFFFFF; stroke-width:39.3701; stroke-opacity:1; 
stroke-linecap:round; stroke-linejoin:round;">
</g>
<g style="fill:#FFFFFF; fill-opacity:1.0; 
stroke:#FFFFFF; stroke-width:0; stroke-opacity:1; 
stroke-linecap:round; stroke-linejoin:round;">
<circle cx="56000" cy="22500" r="492.126" /> 
</g>
<g style="fill:#FFFFFF; fill-opacity:1.0; 
stroke:#FFFFFF; stroke-width:39.3701; stroke-opacity:1; 
stroke-linecap:round; stroke-linejoin:round;">
</g>
<g style="fill:#FFFFFF; fill-opacity:1.0; 
stroke:#FFFFFF; stroke-width:0; stroke-opacity:1; 
stroke-linecap:round; stroke-linejoin:round;">
<circle cx="46500" cy="46000" r="492.126" /> 
</g>
<g style="fill:#FFFFFF; fill-opacity:1.0; 
stroke:#FFFFFF; stroke-width:39.3701; stroke-opacity:1; 
stroke-linecap:round; stroke-linejoin:round;">
</g>
<g style="fill:#FFFFFF; fill-opacity:1.0; 
stroke:#FFFFFF; stroke-width:0; stroke-opacity:1; 
stroke-linecap:round; stroke-linejoin:round;">
<circle cx="62000" cy="22500" r="196.85" /> 
</g>
<g style="fill:#FFFFFF; fill-opacity:1.0; 
stroke:#FFFFFF; stroke-width:39.3701; stroke-opacity:1; 
stroke-linecap:round; stroke-linejoin:round;">
</g>
<g style="fill:#FFFFFF; fill-opacity:1.0; 
stroke:#FFFFFF; stroke-width:0; stroke-opacity:1; 
stroke-linecap:round; stroke-linejoin:round;">
<circle cx="63000" cy="22500" r="196.85" /> 
</g>
<g style="fill:#FFFFFF; fill-opacity:1.0; 
stroke:#FFFFFF; stroke-width:39.3701; stroke-opacity:1; 
stroke-linecap:round; stroke-linejoin:round;">
</g>
<g style="fill:#FFFFFF; fill-opacity:1.0; 
stroke:#FFFFFF; stroke-width:0; stroke-opacity:1; 
stroke-linecap:round; stroke-linejoin:round;">
<circle cx="64000" cy="22500" r="196.85" /> 
</g>
<g style="fill:#FFFFFF; fill-opacity:1.0; 
stroke:#FFFFFF; stroke-width:39.3701; stroke-opacity:1; 
stroke-linecap:round; stroke-linejoin:round;">
</g>
<g style="fill:#FFFFFF; fill-opacity:1.0; 
stroke:#FFFFFF; stroke-width:0; stroke-opacity:1; 
stroke-linecap:round; stroke-linejoin:round;">
<circle cx="65000" cy="22500" r="196.85" /> 
</g>
<g style="fill:#FFFFFF; fill-opacity:1.0; 
stroke:#FFFFFF; stroke-width:39.3701; stroke-opacity:1; 
stroke-linecap:round; stroke-linejoin:round;">
</g>
<g style="fill:#FFFFFF; fill-opacity:1.0; 
stroke:#FFFFFF; stroke-width:0; stroke-opacity:1; 
stroke-linecap:round; stroke-linejoin:round;">
<circle cx="55500" cy="41000" r="177.165" /> 
</g>
<g style="fill:#FFFFFF; fill-opacity:1.0; 
stroke:#FFFFFF; stroke-width:39.3701; stroke-opacity:1; 
stroke-linecap:round; stroke-linejoin:round;">
</g>
<g style="fill:#FFFFFF; fill-opacity:1.0; 
stroke:#FFFFFF; stroke-width:0; stroke-opacity:1; 
stroke-linecap:round; stroke-linejoin:round;">
<circle cx="54500" cy="41000" r="177.165" /> 
</g>
<g style="fill:#FFFFFF; fill-opacity:1.0; 
stroke:#FFFFFF; stroke-width:39.3701; stroke-opacity:1; 
stroke-linecap:round; stroke-linejoin:round;">
</g>
<g style="fill:#FFFFFF; fill-opacity:1.0; 
stroke:#FFFFFF; stroke-width:0; stroke-opacity:1; 
stroke-linecap:round; stroke-linejoin:round;">
<circle cx="52500" cy="41000" r="177.165" /> 
</g>
<g style="fill:#FFFFFF; fill-opacity:1.0; 
stroke:#FFFFFF; stroke-width:39.3701; stroke-opacity:1; 
stroke-linecap:round; stroke-linejoin:round;">
</g>
<g style="fill:#FFFFFF; fill-opacity:1.0; 
stroke:#FFFFFF; stroke-width:0; stroke-opacity:1; 
stroke-linecap:round; stroke-linejoin:round;">
<circle cx="51500" cy="41000" r="177.165" /> 
</g>
<g style="fill:#FFFFFF; fill-opacity:1.0; 
stroke:#FFFFFF; stroke-width:39.3701; stroke-opacity:1; 
stroke-linecap:round; stroke-linejoin:round;">
</g>
<g style="fill:#FFFFFF; fill-opacity:1.0; 
stroke:#FFFFFF; stroke-width:0; stroke-opacity:1; 
stroke-linecap:round; stroke-linejoin:round;">
<circle cx="55000" cy="27000" r="216.535" /> 
</g>
<g style="fill:#FFFFFF; fill-opacity:1.0; 
stroke:#FFFFFF; stroke-width:39.3701; stroke-opacity:1; 
stroke-linecap:round; stroke-linejoin:round;">
</g>
<g style="fill:#FFFFFF; fill-opacity:1.0; 
stroke:#FFFFFF; stroke-width:0; stroke-opacity:1; 
stroke-linecap:round; stroke-linejoin:round;">
<circle cx="54000" cy="27000" r="216.535" /> 
</g>
<g style="fill:#FFFFFF; fill-opacity:1.0; 
stroke:#FFFFFF; stroke-width:39.3701; stroke-opacity:1; 
stroke-linecap:round; stroke-linejoin:round;">
</g>
<g style="fill:#FFFFFF; fill-opacity:1.0; 
stroke:#FFFFFF; stroke-width:0; stroke-opacity:1; 
stroke-linecap:round; stroke-linejoin:round;">
<circle cx="53000" cy="27000" r="216.535" /> 
</g>
<g style="fill:#FFFFFF; fill-opacity:1.0; 
stroke:#FFFFFF; stroke-width:39.3701; stroke-opacity:1; 
stroke-linecap:round; stroke-linejoin:round;">
</g>
<g style="fill:#FFFFFF; fill-opacity:1.0; 
stroke:#FFFFFF; stroke-width:0; stroke-opacity:1; 
stroke-linecap:round; stroke-linejoin:round;">
<circle cx="51000" cy="34500" r="216.535" /> 
</g>
<g style="fill:#FFFFFF; fill-opacity:1.0; 
stroke:#FFFFFF; stroke-width:39.3701; stroke-opacity:1; 
stroke-linecap:round; stroke-linejoin:round;">
</g>
<g style="fill:#FFFFFF; fill-opacity:1.0; 
stroke:#FFFFFF; stroke-width:0; stroke-opacity:1; 
stroke-linecap:round; stroke-linejoin:round;">
<circle cx="50000" cy="34500" r="216.535" /> 
</g>
<g style="fill:#FFFFFF; fill-opacity:1.0; 
stroke:#FFFFFF; stroke-width:39.3701; stroke-opacity:1; 
stroke-linecap:round; stroke-linejoin:round;">
</g>
<g style="fill:#FFFFFF; fill-opacity:1.0; 
stroke:#FFFFFF; stroke-width:0; stroke-opacity:1; 
stroke-linecap:round; stroke-linejoin:round;">
<circle cx="49000" cy="34500" r="216.535" /> 
</g>
<g style="fill:#FFFFFF; fill-opacity:1.0; 
stroke:#FFFFFF; stroke-width:39.3701; stroke-opacity:1; 
stroke-linecap:round; stroke-linejoin:round;">
</g>
<g style="fill:#000000; fill-opacity:1.0; 
stroke:#000000; stroke-width:39.3701; stroke-opacity:1; 
stroke-linecap:round; stroke-linejoin:round;">
</g>
<g style="fill:#000000; fill-opacity:0.0; 
stroke:#000000; stroke-width:19.685; stroke-opacity:1; 
stroke-linecap:round; stroke-linejoin:round;">
<circle cx="68500" cy="19000" r="656.168" /> 
<path d="M67515 19000
L69484 19000
" />
<path d="M68500 18015
L68500 19984
" />
<circle cx="42500" cy="19000" r="656.168" /> 
<path d="M41515 19000
L43484 19000
" />
<path d="M42500 18015
L42500 19984
" />
<circle cx="68500" cy="49000" r="656.168" /> 
<path d="M67515 49000
L69484 49000
" />
<path d="M68500 48015
L68500 49984
" />
<circle cx="42500" cy="49000" r="656.168" /> 
<path d="M41515 49000
L43484 49000
" />
<path d="M42500 48015
L42500 49984
" />
<circle cx="38000" cy="49000" r="656.168" /> 
<path d="M37015 49000
L38984 49000
" />
<path d="M38000 48015
L38000 49984
" />
<circle cx="73000" cy="19000" r="656.168" /> 
<path d="M72015 19000
L73984 19000
" />
<path d="M73000 18015
L73000 19984
" />
<g >
</g>
<g >
</g>
<g >
</g>
<g >
</g>
<g >
</g>
<g >
</g>
<g >
</g>
<g >
</g>
<g >
</g>
<g >
</g>
<g >
</g>
<g >
</g>
<g >
</g>
<g >
</g>
<g >
</g>
<g >
</g>
<g >
</g>
<g >
</g>
<g >
</g>
<g >
</g>
<g >
</g>
<g >
</g>
<g >
</g>
<g >
</g>
<g >
</g>
</g> 
</svg>
