<?xml version="1.0" standalone="no"?>
 <!DOCTYPE svg PUBLIC "-//W3C//DTD SVG 1.1//EN" 
 "http://www.w3.org/Graphics/SVG/1.1/DTD/svg11.dtd"> 
<svg xmlns="http://www.w3.org/2000/svg" version="1.1" 
    width="29.7002cm" height="21.0007cm" viewBox="0 0 116930 82680 ">
<title>SVG Picture created as vrtackaRamku4m-B_Cu.svg date 2020/12/08 09:45:52 </title>
  <desc>Picture generated by PCBNEW </desc>
<g style="fill:#000000; fill-opacity:1;stroke:#000000; stroke-opacity:1;
stroke-linecap:round; stroke-linejoin:round; "
 transform="translate(0 0) scale(1 1)">
</g>
<g style="fill:#000000; fill-opacity:0.0; 
stroke:#000000; stroke-width:-0.000393701; stroke-opacity:1; 
stroke-linecap:round; stroke-linejoin:round;">
</g>
<g style="fill:#000000; fill-opacity:0.0; 
stroke:#000000; stroke-width:118.11; stroke-opacity:1; 
stroke-linecap:round; stroke-linejoin:round;">
<text x="52250" y="22295.3"
textLength="-1252.53" font-size="-787.402" lengthAdjust="spacingAndGlyphs"
text-anchor="middle" opacity="0">M+</text>
<path d="M52812 22267
L52812 21676
L52615 22098
L52418 21676
L52418 22267
" />
<path d="M52137 22042
L51687 22042
" />
<path d="M51912 22267
L51912 21817
" />
<text x="59500" y="43795.3"
textLength="-1646.23" font-size="-787.402" lengthAdjust="spacingAndGlyphs"
text-anchor="middle" opacity="0">GND</text>
<path d="M59949 43204
L60006 43176
L60090 43176
L60174 43204
L60231 43260
L60259 43317
L60287 43429
L60287 43514
L60259 43626
L60231 43682
L60174 43739
L60090 43767
L60034 43767
L59949 43739
L59921 43710
L59921 43514
L60034 43514
" />
<path d="M59668 43767
L59668 43176
L59331 43767
L59331 43176
" />
<path d="M59050 43767
L59050 43176
L58909 43176
L58825 43204
L58768 43260
L58740 43317
L58712 43429
L58712 43514
L58740 43626
L58768 43682
L58825 43739
L58909 43767
L59050 43767
" />
<text x="53500" y="43045.3"
textLength="-2208.66" font-size="-787.402" lengthAdjust="spacingAndGlyphs"
text-anchor="middle" opacity="0">+12V</text>
<path d="M54540 42792
L54090 42792
" />
<path d="M54315 43017
L54315 42567
" />
<path d="M53500 43017
L53837 43017
" />
<path d="M53668 43017
L53668 42426
L53724 42510
L53781 42567
L53837 42595
" />
<path d="M53275 42482
L53246 42454
L53190 42426
L53050 42426
L52993 42454
L52965 42482
L52937 42539
L52937 42595
L52965 42679
L53303 43017
L52937 43017
" />
<path d="M52768 42426
L52571 43017
L52375 42426
" />
<text x="59000" y="22295.3"
textLength="-1252.53" font-size="-787.402" lengthAdjust="spacingAndGlyphs"
text-anchor="middle" opacity="0">M-</text>
<path d="M59562 22267
L59562 21676
L59365 22098
L59168 21676
L59168 22267
" />
<path d="M58887 22042
L58437 22042
" />
<g >
</g>
<g style="fill:#000000; fill-opacity:1.0; 
stroke:#000000; stroke-width:0; stroke-opacity:1; 
stroke-linecap:round; stroke-linejoin:round;">
<circle cx="66000" cy="22000" r="1082.68" /> 
</g>
<g style="fill:#000000; fill-opacity:1.0; 
stroke:#000000; stroke-width:39.3701; stroke-opacity:1; 
stroke-linecap:round; stroke-linejoin:round;">
</g>
<g >
</g>
<g style="fill:#000000; fill-opacity:1.0; 
stroke:#000000; stroke-width:39.3701; stroke-opacity:1; 
stroke-linecap:round; stroke-linejoin:round;">
</g>
<g style="fill:#000000; fill-opacity:1.0; 
stroke:#000000; stroke-width:0; stroke-opacity:1; 
stroke-linecap:round; stroke-linejoin:round;">
<circle cx="51500" cy="44250" r="1082.68" /> 
</g>
<g style="fill:#000000; fill-opacity:1.0; 
stroke:#000000; stroke-width:39.3701; stroke-opacity:1; 
stroke-linecap:round; stroke-linejoin:round;">
</g>
<g >
</g>
<g style="fill:#000000; fill-opacity:1.0; 
stroke:#000000; stroke-width:39.3701; stroke-opacity:1; 
stroke-linecap:round; stroke-linejoin:round;">
</g>
<g style="fill:#000000; fill-opacity:1.0; 
stroke:#000000; stroke-width:629.921; stroke-opacity:1; 
stroke-linecap:round; stroke-linejoin:round;">
</g>
<g style="fill:#000000; fill-opacity:0.0; 
stroke:#000000; stroke-width:629.921; stroke-opacity:1; 
stroke-linecap:round; stroke-linejoin:round;">
<path d="M66500 41500
L66500 41500
" />
<path d="M60500 41500
L60500 41500
" />
<path d="M66500 27500
L66500 27500
" />
<path d="M60500 40500
L60500 40500
" />
<path d="M66500 28500
L66500 28500
" />
<path d="M60500 39500
L60500 39500
" />
<path d="M66500 29500
L66500 29500
" />
<path d="M60500 38500
L60500 38500
" />
<path d="M66500 30500
L66500 30500
" />
<path d="M60500 37500
L60500 37500
" />
<path d="M66500 31500
L66500 31500
" />
<path d="M60500 36500
L60500 36500
" />
<path d="M66500 32500
L66500 32500
" />
<path d="M60500 35500
L60500 35500
" />
<path d="M66500 33500
L66500 33500
" />
<path d="M60500 34500
L60500 34500
" />
<path d="M66500 34500
L66500 34500
" />
<path d="M60500 33500
L60500 33500
" />
<path d="M66500 35500
L66500 35500
" />
<path d="M60500 32500
L60500 32500
" />
<path d="M66500 36500
L66500 36500
" />
<path d="M60500 31500
L60500 31500
" />
<path d="M66500 37500
L66500 37500
" />
<path d="M60500 30500
L60500 30500
" />
<path d="M66500 38500
L66500 38500
" />
<path d="M60500 29500
L60500 29500
" />
<path d="M66500 39500
L66500 39500
" />
<path d="M60500 28500
L60500 28500
" />
<path d="M66500 40500
L66500 40500
" />
</g>
<g style="fill:#000000; fill-opacity:0.0; 
stroke:#000000; stroke-width:0; stroke-opacity:1; 
stroke-linecap:round; stroke-linejoin:round;">
</g>
<g style="fill:#000000; fill-opacity:1.0; 
stroke:#000000; stroke-width:0; stroke-opacity:1; 
stroke-linecap:round; stroke-linejoin:round;">
<path style="fill:#000000; fill-opacity:1.0; 
stroke:#000000; stroke-width:0; stroke-opacity:1; 
stroke-linecap:round; stroke-linejoin:round;fill-rule:evenodd;"
d="M 60185,27815
60185,27185
60815,27185
60815,27815
Z" /> 
</g>
<g >
</g>
<g style="fill:#000000; fill-opacity:1.0; 
stroke:#000000; stroke-width:0; stroke-opacity:1; 
stroke-linecap:round; stroke-linejoin:round;">
<circle cx="58271.7" cy="35250" r="393.701" /> 
</g>
<g style="fill:#000000; fill-opacity:1.0; 
stroke:#000000; stroke-width:39.3701; stroke-opacity:1; 
stroke-linecap:round; stroke-linejoin:round;">
</g>
<g style="fill:#000000; fill-opacity:1.0; 
stroke:#000000; stroke-width:0; stroke-opacity:1; 
stroke-linecap:round; stroke-linejoin:round;">
<circle cx="56500" cy="35250" r="393.701" /> 
</g>
<g style="fill:#000000; fill-opacity:1.0; 
stroke:#000000; stroke-width:39.3701; stroke-opacity:1; 
stroke-linecap:round; stroke-linejoin:round;">
</g>
<g style="fill:#000000; fill-opacity:1.0; 
stroke:#000000; stroke-width:0; stroke-opacity:1; 
stroke-linecap:round; stroke-linejoin:round;">
<circle cx="58271.7" cy="32690.9" r="393.701" /> 
</g>
<g style="fill:#000000; fill-opacity:1.0; 
stroke:#000000; stroke-width:39.3701; stroke-opacity:1; 
stroke-linecap:round; stroke-linejoin:round;">
</g>
<g style="fill:#000000; fill-opacity:1.0; 
stroke:#000000; stroke-width:0; stroke-opacity:1; 
stroke-linecap:round; stroke-linejoin:round;">
<circle cx="56500" cy="32690.9" r="393.701" /> 
</g>
<g style="fill:#000000; fill-opacity:1.0; 
stroke:#000000; stroke-width:39.3701; stroke-opacity:1; 
stroke-linecap:round; stroke-linejoin:round;">
</g>
<g >
</g>
<g style="fill:#000000; fill-opacity:1.0; 
stroke:#000000; stroke-width:39.3701; stroke-opacity:1; 
stroke-linecap:round; stroke-linejoin:round;">
</g>
<g style="fill:#000000; fill-opacity:1.0; 
stroke:#000000; stroke-width:0; stroke-opacity:1; 
stroke-linecap:round; stroke-linejoin:round;">
<path style="fill:#000000; fill-opacity:1.0; 
stroke:#000000; stroke-width:0; stroke-opacity:1; 
stroke-linecap:round; stroke-linejoin:round;fill-rule:evenodd;"
d="M 54255.7,32805.6
54265.3,32807
54274.6,32809.4
54283.7,32812.6
54292.5,32816.7
54300.7,32821.7
54308.5,32827.5
54315.7,32833.9
54322.1,32841.1
54327.9,32848.9
54332.9,32857.1
54337,32865.9
54340.2,32875
54342.6,32884.3
54344,32893.9
54344.5,32903.5
54344.5,33267.7
54344,33277.4
54342.6,33286.9
54340.2,33296.3
54337,33305.4
54332.9,33314.1
54327.9,33322.4
54322.1,33330.2
54315.7,33337.3
54308.5,33343.8
54300.7,33349.6
54292.5,33354.5
54283.7,33358.6
54274.6,33361.9
54265.3,33364.3
54255.7,33365.7
54246.1,33366.1
53753.9,33366.1
53744.3,33365.7
53734.7,33364.3
53725.4,33361.9
53716.3,33358.6
53707.5,33354.5
53699.3,33349.6
53691.5,33343.8
53684.3,33337.3
53677.9,33330.2
53672.1,33322.4
53667.1,33314.1
53663,33305.4
53659.8,33296.3
53657.4,33286.9
53656,33277.4
53655.5,33267.7
53655.5,32903.5
53656,32893.9
53657.4,32884.3
53659.8,32875
53663,32865.9
53667.1,32857.1
53672.1,32848.9
53677.9,32841.1
53684.3,32833.9
53691.5,32827.5
53699.3,32821.7
53707.5,32816.7
53716.3,32812.6
53725.4,32809.4
53734.7,32807
53744.3,32805.6
53753.9,32805.1
54246.1,32805.1
Z" /> 
<path style="fill:#000000; fill-opacity:1.0; 
stroke:#000000; stroke-width:0; stroke-opacity:1; 
stroke-linecap:round; stroke-linejoin:round;fill-rule:evenodd;"
d="M 54255.7,31634.3
54265.3,31635.7
54274.6,31638.1
54283.7,31641.4
54292.5,31645.5
54300.7,31650.4
54308.5,31656.2
54315.7,31662.7
54322.1,31669.8
54327.9,31677.6
54332.9,31685.9
54337,31694.6
54340.2,31703.7
54342.6,31713.1
54344,31722.6
54344.5,31732.3
54344.5,32096.5
54344,32106.1
54342.6,32115.7
54340.2,32125
54337,32134.1
54332.9,32142.9
54327.9,32151.1
54322.1,32158.9
54315.7,32166.1
54308.5,32172.5
54300.7,32178.3
54292.5,32183.3
54283.7,32187.4
54274.6,32190.6
54265.3,32193
54255.7,32194.4
54246.1,32194.9
53753.9,32194.9
53744.3,32194.4
53734.7,32193
53725.4,32190.6
53716.3,32187.4
53707.5,32183.3
53699.3,32178.3
53691.5,32172.5
53684.3,32166.1
53677.9,32158.9
53672.1,32151.1
53667.1,32142.9
53663,32134.1
53659.8,32125
53657.4,32115.7
53656,32106.1
53655.5,32096.5
53655.5,31732.3
53656,31722.6
53657.4,31713.1
53659.8,31703.7
53663,31694.6
53667.1,31685.9
53672.1,31677.6
53677.9,31669.8
53684.3,31662.7
53691.5,31656.2
53699.3,31650.4
53707.5,31645.5
53716.3,31641.4
53725.4,31638.1
53734.7,31635.7
53744.3,31634.3
53753.9,31633.9
54246.1,31633.9
Z" /> 
</g>
<g >
</g>
<g style="fill:#000000; fill-opacity:1.0; 
stroke:#000000; stroke-width:0; stroke-opacity:1; 
stroke-linecap:round; stroke-linejoin:round;">
<path style="fill:#000000; fill-opacity:1.0; 
stroke:#000000; stroke-width:0; stroke-opacity:1; 
stroke-linecap:round; stroke-linejoin:round;fill-rule:evenodd;"
d="M 54517.7,28399.6
54517.7,29100.4
53730.3,29100.4
53730.3,28399.6
Z" /> 
<path style="fill:#000000; fill-opacity:1.0; 
stroke:#000000; stroke-width:0; stroke-opacity:1; 
stroke-linecap:round; stroke-linejoin:round;fill-rule:evenodd;"
d="M 58269.7,29399.6
58269.7,30100.4
57482.3,30100.4
57482.3,29399.6
Z" /> 
<path style="fill:#000000; fill-opacity:1.0; 
stroke:#000000; stroke-width:0; stroke-opacity:1; 
stroke-linecap:round; stroke-linejoin:round;fill-rule:evenodd;"
d="M 54517.7,29399.6
54517.7,30100.4
53730.3,30100.4
53730.3,29399.6
Z" /> 
<path style="fill:#000000; fill-opacity:1.0; 
stroke:#000000; stroke-width:0; stroke-opacity:1; 
stroke-linecap:round; stroke-linejoin:round;fill-rule:evenodd;"
d="M 58269.7,28399.6
58269.7,29100.4
57482.3,29100.4
57482.3,28399.6
Z" /> 
</g>
<g >
</g>
<g style="fill:#000000; fill-opacity:1.0; 
stroke:#000000; stroke-width:0; stroke-opacity:1; 
stroke-linecap:round; stroke-linejoin:round;">
<circle cx="57750" cy="41500" r="787.402" /> 
</g>
<g style="fill:#000000; fill-opacity:1.0; 
stroke:#000000; stroke-width:39.3701; stroke-opacity:1; 
stroke-linecap:round; stroke-linejoin:round;">
</g>
<g >
</g>
<g style="fill:#000000; fill-opacity:1.0; 
stroke:#000000; stroke-width:39.3701; stroke-opacity:1; 
stroke-linecap:round; stroke-linejoin:round;">
</g>
<g style="fill:#000000; fill-opacity:1.0; 
stroke:#000000; stroke-width:0; stroke-opacity:1; 
stroke-linecap:round; stroke-linejoin:round;">
<circle cx="52500" cy="23500" r="787.402" /> 
</g>
<g style="fill:#000000; fill-opacity:1.0; 
stroke:#000000; stroke-width:39.3701; stroke-opacity:1; 
stroke-linecap:round; stroke-linejoin:round;">
</g>
<g >
</g>
<g style="fill:#000000; fill-opacity:1.0; 
stroke:#000000; stroke-width:39.3701; stroke-opacity:1; 
stroke-linecap:round; stroke-linejoin:round;">
</g>
<g style="fill:#000000; fill-opacity:1.0; 
stroke:#000000; stroke-width:0; stroke-opacity:1; 
stroke-linecap:round; stroke-linejoin:round;">
<circle cx="59250" cy="23500" r="787.402" /> 
</g>
<g style="fill:#000000; fill-opacity:1.0; 
stroke:#000000; stroke-width:39.3701; stroke-opacity:1; 
stroke-linecap:round; stroke-linejoin:round;">
</g>
<g >
</g>
<g style="fill:#000000; fill-opacity:1.0; 
stroke:#000000; stroke-width:39.3701; stroke-opacity:1; 
stroke-linecap:round; stroke-linejoin:round;">
</g>
<g style="fill:#000000; fill-opacity:1.0; 
stroke:#000000; stroke-width:0; stroke-opacity:1; 
stroke-linecap:round; stroke-linejoin:round;">
<circle cx="51500" cy="41500" r="787.402" /> 
</g>
<g style="fill:#000000; fill-opacity:1.0; 
stroke:#000000; stroke-width:39.3701; stroke-opacity:1; 
stroke-linecap:round; stroke-linejoin:round;">
</g>
<g >
</g>
<g style="fill:#000000; fill-opacity:1.0; 
stroke:#000000; stroke-width:39.3701; stroke-opacity:1; 
stroke-linecap:round; stroke-linejoin:round;">
</g>
<g style="fill:#000000; fill-opacity:1.0; 
stroke:#000000; stroke-width:669.291; stroke-opacity:1; 
stroke-linecap:round; stroke-linejoin:round;">
</g>
<g style="fill:#000000; fill-opacity:0.0; 
stroke:#000000; stroke-width:669.291; stroke-opacity:1; 
stroke-linecap:round; stroke-linejoin:round;">
<path d="M65250 24750
L65250 24750
" />
<path d="M64250 24750
L64250 24750
" />
<path d="M63250 24750
L63250 24750
" />
</g>
<g style="fill:#000000; fill-opacity:0.0; 
stroke:#000000; stroke-width:0; stroke-opacity:1; 
stroke-linecap:round; stroke-linejoin:round;">
</g>
<g style="fill:#000000; fill-opacity:1.0; 
stroke:#000000; stroke-width:0; stroke-opacity:1; 
stroke-linecap:round; stroke-linejoin:round;">
<path style="fill:#000000; fill-opacity:1.0; 
stroke:#000000; stroke-width:0; stroke-opacity:1; 
stroke-linecap:round; stroke-linejoin:round;fill-rule:evenodd;"
d="M 62584.6,25084.6
61915.4,25084.6
61915.4,24415.4
62584.6,24415.4
Z" /> 
</g>
<g >
</g>
<g style="fill:#000000; fill-opacity:1.0; 
stroke:#000000; stroke-width:0; stroke-opacity:1; 
stroke-linecap:round; stroke-linejoin:round;">
<path style="fill:#000000; fill-opacity:1.0; 
stroke:#000000; stroke-width:0; stroke-opacity:1; 
stroke-linecap:round; stroke-linejoin:round;fill-rule:evenodd;"
d="M 59277.4,37156
59286.9,37157.4
59296.3,37159.8
59305.4,37163
59314.1,37167.1
59322.4,37172.1
59330.2,37177.9
59337.3,37184.3
59343.8,37191.5
59349.6,37199.3
59354.5,37207.5
59358.6,37216.3
59361.9,37225.4
59364.3,37234.7
59365.7,37244.3
59366.1,37253.9
59366.1,37746.1
59365.7,37755.7
59364.3,37765.3
59361.9,37774.6
59358.6,37783.7
59354.5,37792.5
59349.6,37800.7
59343.8,37808.5
59337.3,37815.7
59330.2,37822.1
59322.4,37827.9
59314.1,37832.9
59305.4,37837
59296.3,37840.2
59286.9,37842.6
59277.4,37844
59267.7,37844.5
58903.5,37844.5
58893.9,37844
58884.3,37842.6
58875,37840.2
58865.9,37837
58857.1,37832.9
58848.9,37827.9
58841.1,37822.1
58833.9,37815.7
58827.5,37808.5
58821.7,37800.7
58816.7,37792.5
58812.6,37783.7
58809.4,37774.6
58807,37765.3
58805.6,37755.7
58805.1,37746.1
58805.1,37253.9
58805.6,37244.3
58807,37234.7
58809.4,37225.4
58812.6,37216.3
58816.7,37207.5
58821.7,37199.3
58827.5,37191.5
58833.9,37184.3
58841.1,37177.9
58848.9,37172.1
58857.1,37167.1
58865.9,37163
58875,37159.8
58884.3,37157.4
58893.9,37156
58903.5,37155.5
59267.7,37155.5
Z" /> 
<path style="fill:#000000; fill-opacity:1.0; 
stroke:#000000; stroke-width:0; stroke-opacity:1; 
stroke-linecap:round; stroke-linejoin:round;fill-rule:evenodd;"
d="M 58106.1,37156
58115.7,37157.4
58125,37159.8
58134.1,37163
58142.9,37167.1
58151.1,37172.1
58158.9,37177.9
58166.1,37184.3
58172.5,37191.5
58178.3,37199.3
58183.3,37207.5
58187.4,37216.3
58190.6,37225.4
58193,37234.7
58194.4,37244.3
58194.9,37253.9
58194.9,37746.1
58194.4,37755.7
58193,37765.3
58190.6,37774.6
58187.4,37783.7
58183.3,37792.5
58178.3,37800.7
58172.5,37808.5
58166.1,37815.7
58158.9,37822.1
58151.1,37827.9
58142.9,37832.9
58134.1,37837
58125,37840.2
58115.7,37842.6
58106.1,37844
58096.5,37844.5
57732.3,37844.5
57722.6,37844
57713.1,37842.6
57703.7,37840.2
57694.6,37837
57685.9,37832.9
57677.6,37827.9
57669.8,37822.1
57662.7,37815.7
57656.2,37808.5
57650.4,37800.7
57645.5,37792.5
57641.4,37783.7
57638.1,37774.6
57635.7,37765.3
57634.3,37755.7
57633.9,37746.1
57633.9,37253.9
57634.3,37244.3
57635.7,37234.7
57638.1,37225.4
57641.4,37216.3
57645.5,37207.5
57650.4,37199.3
57656.2,37191.5
57662.7,37184.3
57669.8,37177.9
57677.6,37172.1
57685.9,37167.1
57694.6,37163
57703.7,37159.8
57713.1,37157.4
57722.6,37156
57732.3,37155.5
58096.5,37155.5
Z" /> 
</g>
<g >
</g>
<g style="fill:#000000; fill-opacity:1.0; 
stroke:#000000; stroke-width:0; stroke-opacity:1; 
stroke-linecap:round; stroke-linejoin:round;">
<path style="fill:#000000; fill-opacity:1.0; 
stroke:#000000; stroke-width:0; stroke-opacity:1; 
stroke-linecap:round; stroke-linejoin:round;fill-rule:evenodd;"
d="M 54255.7,34134.3
54265.3,34135.7
54274.6,34138.1
54283.7,34141.4
54292.5,34145.5
54300.7,34150.4
54308.5,34156.2
54315.7,34162.7
54322.1,34169.8
54327.9,34177.6
54332.9,34185.9
54337,34194.6
54340.2,34203.7
54342.6,34213.1
54344,34222.6
54344.5,34232.3
54344.5,34596.5
54344,34606.1
54342.6,34615.7
54340.2,34625
54337,34634.1
54332.9,34642.9
54327.9,34651.1
54322.1,34658.9
54315.7,34666.1
54308.5,34672.5
54300.7,34678.3
54292.5,34683.3
54283.7,34687.4
54274.6,34690.6
54265.3,34693
54255.7,34694.4
54246.1,34694.9
53753.9,34694.9
53744.3,34694.4
53734.7,34693
53725.4,34690.6
53716.3,34687.4
53707.5,34683.3
53699.3,34678.3
53691.5,34672.5
53684.3,34666.1
53677.9,34658.9
53672.1,34651.1
53667.1,34642.9
53663,34634.1
53659.8,34625
53657.4,34615.7
53656,34606.1
53655.5,34596.5
53655.5,34232.3
53656,34222.6
53657.4,34213.1
53659.8,34203.7
53663,34194.6
53667.1,34185.9
53672.1,34177.6
53677.9,34169.8
53684.3,34162.7
53691.5,34156.2
53699.3,34150.4
53707.5,34145.5
53716.3,34141.4
53725.4,34138.1
53734.7,34135.7
53744.3,34134.3
53753.9,34133.9
54246.1,34133.9
Z" /> 
<path style="fill:#000000; fill-opacity:1.0; 
stroke:#000000; stroke-width:0; stroke-opacity:1; 
stroke-linecap:round; stroke-linejoin:round;fill-rule:evenodd;"
d="M 54255.7,35305.6
54265.3,35307
54274.6,35309.4
54283.7,35312.6
54292.5,35316.7
54300.7,35321.7
54308.5,35327.5
54315.7,35333.9
54322.1,35341.1
54327.9,35348.9
54332.9,35357.1
54337,35365.9
54340.2,35375
54342.6,35384.3
54344,35393.9
54344.5,35403.5
54344.5,35767.7
54344,35777.4
54342.6,35786.9
54340.2,35796.3
54337,35805.4
54332.9,35814.1
54327.9,35822.4
54322.1,35830.2
54315.7,35837.3
54308.5,35843.8
54300.7,35849.6
54292.5,35854.5
54283.7,35858.6
54274.6,35861.9
54265.3,35864.3
54255.7,35865.7
54246.1,35866.1
53753.9,35866.1
53744.3,35865.7
53734.7,35864.3
53725.4,35861.9
53716.3,35858.6
53707.5,35854.5
53699.3,35849.6
53691.5,35843.8
53684.3,35837.3
53677.9,35830.2
53672.1,35822.4
53667.1,35814.1
53663,35805.4
53659.8,35796.3
53657.4,35786.9
53656,35777.4
53655.5,35767.7
53655.5,35403.5
53656,35393.9
53657.4,35384.3
53659.8,35375
53663,35365.9
53667.1,35357.1
53672.1,35348.9
53677.9,35341.1
53684.3,35333.9
53691.5,35327.5
53699.3,35321.7
53707.5,35316.7
53716.3,35312.6
53725.4,35309.4
53734.7,35307
53744.3,35305.6
53753.9,35305.1
54246.1,35305.1
Z" /> 
</g>
<g >
</g>
<g style="fill:#000000; fill-opacity:1.0; 
stroke:#000000; stroke-width:0; stroke-opacity:1; 
stroke-linecap:round; stroke-linejoin:round;">
<circle cx="56000" cy="37750" r="354.331" /> 
</g>
<g style="fill:#000000; fill-opacity:1.0; 
stroke:#000000; stroke-width:39.3701; stroke-opacity:1; 
stroke-linecap:round; stroke-linejoin:round;">
</g>
<g style="fill:#000000; fill-opacity:1.0; 
stroke:#000000; stroke-width:0; stroke-opacity:1; 
stroke-linecap:round; stroke-linejoin:round;">
<path style="fill:#000000; fill-opacity:1.0; 
stroke:#000000; stroke-width:0; stroke-opacity:1; 
stroke-linecap:round; stroke-linejoin:round;fill-rule:evenodd;"
d="M 56354.3,39104.3
55645.7,39104.3
55645.7,38395.7
56354.3,38395.7
Z" /> 
</g>
<g >
</g>
<g style="fill:#000000; fill-opacity:1.0; 
stroke:#000000; stroke-width:0; stroke-opacity:1; 
stroke-linecap:round; stroke-linejoin:round;">
<path style="fill:#000000; fill-opacity:1.0; 
stroke:#000000; stroke-width:0; stroke-opacity:1; 
stroke-linecap:round; stroke-linejoin:round;fill-rule:evenodd;"
d="M 56649.6,24031.5
56649.6,22968.5
57240.2,22968.5
57240.2,24031.5
Z" /> 
<path style="fill:#000000; fill-opacity:1.0; 
stroke:#000000; stroke-width:0; stroke-opacity:1; 
stroke-linecap:round; stroke-linejoin:round;fill-rule:evenodd;"
d="M 54759.8,24031.5
54759.8,22968.5
55350.4,22968.5
55350.4,24031.5
Z" /> 
</g>
<g >
</g>
<g style="fill:#000000; fill-opacity:1.0; 
stroke:#000000; stroke-width:0; stroke-opacity:1; 
stroke-linecap:round; stroke-linejoin:round;">
<path style="fill:#000000; fill-opacity:1.0; 
stroke:#000000; stroke-width:0; stroke-opacity:1; 
stroke-linecap:round; stroke-linejoin:round;fill-rule:evenodd;"
d="M 59277.4,27156
59286.9,27157.4
59296.3,27159.8
59305.4,27163
59314.1,27167.1
59322.4,27172.1
59330.2,27177.9
59337.3,27184.3
59343.8,27191.5
59349.6,27199.3
59354.5,27207.5
59358.6,27216.3
59361.9,27225.4
59364.3,27234.7
59365.7,27244.3
59366.1,27253.9
59366.1,27746.1
59365.7,27755.7
59364.3,27765.3
59361.9,27774.6
59358.6,27783.7
59354.5,27792.5
59349.6,27800.7
59343.8,27808.5
59337.3,27815.7
59330.2,27822.1
59322.4,27827.9
59314.1,27832.9
59305.4,27837
59296.3,27840.2
59286.9,27842.6
59277.4,27844
59267.7,27844.5
58903.5,27844.5
58893.9,27844
58884.3,27842.6
58875,27840.2
58865.9,27837
58857.1,27832.9
58848.9,27827.9
58841.1,27822.1
58833.9,27815.7
58827.5,27808.5
58821.7,27800.7
58816.7,27792.5
58812.6,27783.7
58809.4,27774.6
58807,27765.3
58805.6,27755.7
58805.1,27746.1
58805.1,27253.9
58805.6,27244.3
58807,27234.7
58809.4,27225.4
58812.6,27216.3
58816.7,27207.5
58821.7,27199.3
58827.5,27191.5
58833.9,27184.3
58841.1,27177.9
58848.9,27172.1
58857.1,27167.1
58865.9,27163
58875,27159.8
58884.3,27157.4
58893.9,27156
58903.5,27155.5
59267.7,27155.5
Z" /> 
<path style="fill:#000000; fill-opacity:1.0; 
stroke:#000000; stroke-width:0; stroke-opacity:1; 
stroke-linecap:round; stroke-linejoin:round;fill-rule:evenodd;"
d="M 58106.1,27156
58115.7,27157.4
58125,27159.8
58134.1,27163
58142.9,27167.1
58151.1,27172.1
58158.9,27177.9
58166.1,27184.3
58172.5,27191.5
58178.3,27199.3
58183.3,27207.5
58187.4,27216.3
58190.6,27225.4
58193,27234.7
58194.4,27244.3
58194.9,27253.9
58194.9,27746.1
58194.4,27755.7
58193,27765.3
58190.6,27774.6
58187.4,27783.7
58183.3,27792.5
58178.3,27800.7
58172.5,27808.5
58166.1,27815.7
58158.9,27822.1
58151.1,27827.9
58142.9,27832.9
58134.1,27837
58125,27840.2
58115.7,27842.6
58106.1,27844
58096.5,27844.5
57732.3,27844.5
57722.6,27844
57713.1,27842.6
57703.7,27840.2
57694.6,27837
57685.9,27832.9
57677.6,27827.9
57669.8,27822.1
57662.7,27815.7
57656.2,27808.5
57650.4,27800.7
57645.5,27792.5
57641.4,27783.7
57638.1,27774.6
57635.7,27765.3
57634.3,27755.7
57633.9,27746.1
57633.9,27253.9
57634.3,27244.3
57635.7,27234.7
57638.1,27225.4
57641.4,27216.3
57645.5,27207.5
57650.4,27199.3
57656.2,27191.5
57662.7,27184.3
57669.8,27177.9
57677.6,27172.1
57685.9,27167.1
57694.6,27163
57703.7,27159.8
57713.1,27157.4
57722.6,27156
57732.3,27155.5
58096.5,27155.5
Z" /> 
</g>
<g >
</g>
<g style="fill:#000000; fill-opacity:1.0; 
stroke:#000000; stroke-width:0; stroke-opacity:1; 
stroke-linecap:round; stroke-linejoin:round;">
<circle cx="53750" cy="37750" r="354.331" /> 
</g>
<g style="fill:#000000; fill-opacity:1.0; 
stroke:#000000; stroke-width:39.3701; stroke-opacity:1; 
stroke-linecap:round; stroke-linejoin:round;">
</g>
<g style="fill:#000000; fill-opacity:1.0; 
stroke:#000000; stroke-width:0; stroke-opacity:1; 
stroke-linecap:round; stroke-linejoin:round;">
<path style="fill:#000000; fill-opacity:1.0; 
stroke:#000000; stroke-width:0; stroke-opacity:1; 
stroke-linecap:round; stroke-linejoin:round;fill-rule:evenodd;"
d="M 54104.3,39104.3
53395.7,39104.3
53395.7,38395.7
54104.3,38395.7
Z" /> 
</g>
<g >
</g>
<g style="fill:#000000; fill-opacity:1.0; 
stroke:#000000; stroke-width:0; stroke-opacity:1; 
stroke-linecap:round; stroke-linejoin:round;">
</g>
<g style="fill:#000000; fill-opacity:1.0; 
stroke:#000000; stroke-width:750; stroke-opacity:1; 
stroke-linecap:round; stroke-linejoin:round;">
</g>
<g style="fill:#000000; fill-opacity:0.0; 
stroke:#000000; stroke-width:750; stroke-opacity:1; 
stroke-linecap:round; stroke-linejoin:round;">
<path d="M56750 26231
L56750 26268
" />
<path d="M55750 26231
L55750 26268
" />
</g>
<g style="fill:#000000; fill-opacity:0.0; 
stroke:#000000; stroke-width:0; stroke-opacity:1; 
stroke-linecap:round; stroke-linejoin:round;">
</g>
<g style="fill:#000000; fill-opacity:1.0; 
stroke:#000000; stroke-width:0; stroke-opacity:1; 
stroke-linecap:round; stroke-linejoin:round;">
<path style="fill:#000000; fill-opacity:1.0; 
stroke:#000000; stroke-width:0; stroke-opacity:1; 
stroke-linecap:round; stroke-linejoin:round;fill-rule:evenodd;"
d="M 54375,26643.7
54375,25856.3
55125,25856.3
55125,26643.7
Z" /> 
</g>
<g >
</g>
<g style="fill:#000000; fill-opacity:1.0; 
stroke:#000000; stroke-width:0; stroke-opacity:1; 
stroke-linecap:round; stroke-linejoin:round;">
<path style="fill:#000000; fill-opacity:1.0; 
stroke:#000000; stroke-width:0; stroke-opacity:1; 
stroke-linecap:round; stroke-linejoin:round;fill-rule:evenodd;"
d="M 57027.4,27156
57036.9,27157.4
57046.3,27159.8
57055.4,27163
57064.1,27167.1
57072.4,27172.1
57080.2,27177.9
57087.3,27184.3
57093.8,27191.5
57099.6,27199.3
57104.5,27207.5
57108.6,27216.3
57111.9,27225.4
57114.3,27234.7
57115.7,27244.3
57116.1,27253.9
57116.1,27746.1
57115.7,27755.7
57114.3,27765.3
57111.9,27774.6
57108.6,27783.7
57104.5,27792.5
57099.6,27800.7
57093.8,27808.5
57087.3,27815.7
57080.2,27822.1
57072.4,27827.9
57064.1,27832.9
57055.4,27837
57046.3,27840.2
57036.9,27842.6
57027.4,27844
57017.7,27844.5
56653.5,27844.5
56643.9,27844
56634.3,27842.6
56625,27840.2
56615.9,27837
56607.1,27832.9
56598.9,27827.9
56591.1,27822.1
56583.9,27815.7
56577.5,27808.5
56571.7,27800.7
56566.7,27792.5
56562.6,27783.7
56559.4,27774.6
56557,27765.3
56555.6,27755.7
56555.1,27746.1
56555.1,27253.9
56555.6,27244.3
56557,27234.7
56559.4,27225.4
56562.6,27216.3
56566.7,27207.5
56571.7,27199.3
56577.5,27191.5
56583.9,27184.3
56591.1,27177.9
56598.9,27172.1
56607.1,27167.1
56615.9,27163
56625,27159.8
56634.3,27157.4
56643.9,27156
56653.5,27155.5
57017.7,27155.5
Z" /> 
<path style="fill:#000000; fill-opacity:1.0; 
stroke:#000000; stroke-width:0; stroke-opacity:1; 
stroke-linecap:round; stroke-linejoin:round;fill-rule:evenodd;"
d="M 55856.1,27156
55865.7,27157.4
55875,27159.8
55884.1,27163
55892.9,27167.1
55901.1,27172.1
55908.9,27177.9
55916.1,27184.3
55922.5,27191.5
55928.3,27199.3
55933.3,27207.5
55937.4,27216.3
55940.6,27225.4
55943,27234.7
55944.4,27244.3
55944.9,27253.9
55944.9,27746.1
55944.4,27755.7
55943,27765.3
55940.6,27774.6
55937.4,27783.7
55933.3,27792.5
55928.3,27800.7
55922.5,27808.5
55916.1,27815.7
55908.9,27822.1
55901.1,27827.9
55892.9,27832.9
55884.1,27837
55875,27840.2
55865.7,27842.6
55856.1,27844
55846.5,27844.5
55482.3,27844.5
55472.6,27844
55463.1,27842.6
55453.7,27840.2
55444.6,27837
55435.9,27832.9
55427.6,27827.9
55419.8,27822.1
55412.7,27815.7
55406.2,27808.5
55400.4,27800.7
55395.5,27792.5
55391.4,27783.7
55388.1,27774.6
55385.7,27765.3
55384.3,27755.7
55383.9,27746.1
55383.9,27253.9
55384.3,27244.3
55385.7,27234.7
55388.1,27225.4
55391.4,27216.3
55395.5,27207.5
55400.4,27199.3
55406.2,27191.5
55412.7,27184.3
55419.8,27177.9
55427.6,27172.1
55435.9,27167.1
55444.6,27163
55453.7,27159.8
55463.1,27157.4
55472.6,27156
55482.3,27155.5
55846.5,27155.5
Z" /> 
</g>
<g >
</g>
<g style="fill:#000000; fill-opacity:1.0; 
stroke:#000000; stroke-width:0; stroke-opacity:1; 
stroke-linecap:round; stroke-linejoin:round;">
<path style="fill:#000000; fill-opacity:1.0; 
stroke:#000000; stroke-width:0; stroke-opacity:1; 
stroke-linecap:round; stroke-linejoin:round;fill-rule:evenodd;"
d="M 59277.4,38156
59286.9,38157.4
59296.3,38159.8
59305.4,38163
59314.1,38167.1
59322.4,38172.1
59330.2,38177.9
59337.3,38184.3
59343.8,38191.5
59349.6,38199.3
59354.5,38207.5
59358.6,38216.3
59361.9,38225.4
59364.3,38234.7
59365.7,38244.3
59366.1,38253.9
59366.1,38746.1
59365.7,38755.7
59364.3,38765.3
59361.9,38774.6
59358.6,38783.7
59354.5,38792.5
59349.6,38800.7
59343.8,38808.5
59337.3,38815.7
59330.2,38822.1
59322.4,38827.9
59314.1,38832.9
59305.4,38837
59296.3,38840.2
59286.9,38842.6
59277.4,38844
59267.7,38844.5
58903.5,38844.5
58893.9,38844
58884.3,38842.6
58875,38840.2
58865.9,38837
58857.1,38832.9
58848.9,38827.9
58841.1,38822.1
58833.9,38815.7
58827.5,38808.5
58821.7,38800.7
58816.7,38792.5
58812.6,38783.7
58809.4,38774.6
58807,38765.3
58805.6,38755.7
58805.1,38746.1
58805.1,38253.9
58805.6,38244.3
58807,38234.7
58809.4,38225.4
58812.6,38216.3
58816.7,38207.5
58821.7,38199.3
58827.5,38191.5
58833.9,38184.3
58841.1,38177.9
58848.9,38172.1
58857.1,38167.1
58865.9,38163
58875,38159.8
58884.3,38157.4
58893.9,38156
58903.5,38155.5
59267.7,38155.5
Z" /> 
<path style="fill:#000000; fill-opacity:1.0; 
stroke:#000000; stroke-width:0; stroke-opacity:1; 
stroke-linecap:round; stroke-linejoin:round;fill-rule:evenodd;"
d="M 58106.1,38156
58115.7,38157.4
58125,38159.8
58134.1,38163
58142.9,38167.1
58151.1,38172.1
58158.9,38177.9
58166.1,38184.3
58172.5,38191.5
58178.3,38199.3
58183.3,38207.5
58187.4,38216.3
58190.6,38225.4
58193,38234.7
58194.4,38244.3
58194.9,38253.9
58194.9,38746.1
58194.4,38755.7
58193,38765.3
58190.6,38774.6
58187.4,38783.7
58183.3,38792.5
58178.3,38800.7
58172.5,38808.5
58166.1,38815.7
58158.9,38822.1
58151.1,38827.9
58142.9,38832.9
58134.1,38837
58125,38840.2
58115.7,38842.6
58106.1,38844
58096.5,38844.5
57732.3,38844.5
57722.6,38844
57713.1,38842.6
57703.7,38840.2
57694.6,38837
57685.9,38832.9
57677.6,38827.9
57669.8,38822.1
57662.7,38815.7
57656.2,38808.5
57650.4,38800.7
57645.5,38792.5
57641.4,38783.7
57638.1,38774.6
57635.7,38765.3
57634.3,38755.7
57633.9,38746.1
57633.9,38253.9
57634.3,38244.3
57635.7,38234.7
57638.1,38225.4
57641.4,38216.3
57645.5,38207.5
57650.4,38199.3
57656.2,38191.5
57662.7,38184.3
57669.8,38177.9
57677.6,38172.1
57685.9,38167.1
57694.6,38163
57703.7,38159.8
57713.1,38157.4
57722.6,38156
57732.3,38155.5
58096.5,38155.5
Z" /> 
</g>
<g >
</g>
<g style="fill:#000000; fill-opacity:1.0; 
stroke:#000000; stroke-width:0; stroke-opacity:1; 
stroke-linecap:round; stroke-linejoin:round;">
<path style="fill:#000000; fill-opacity:1.0; 
stroke:#000000; stroke-width:0; stroke-opacity:1; 
stroke-linecap:round; stroke-linejoin:round;fill-rule:evenodd;"
d="M 59277.4,39156
59286.9,39157.4
59296.3,39159.8
59305.4,39163
59314.1,39167.1
59322.4,39172.1
59330.2,39177.9
59337.3,39184.3
59343.8,39191.5
59349.6,39199.3
59354.5,39207.5
59358.6,39216.3
59361.9,39225.4
59364.3,39234.7
59365.7,39244.3
59366.1,39253.9
59366.1,39746.1
59365.7,39755.7
59364.3,39765.3
59361.9,39774.6
59358.6,39783.7
59354.5,39792.5
59349.6,39800.7
59343.8,39808.5
59337.3,39815.7
59330.2,39822.1
59322.4,39827.9
59314.1,39832.9
59305.4,39837
59296.3,39840.2
59286.9,39842.6
59277.4,39844
59267.7,39844.5
58903.5,39844.5
58893.9,39844
58884.3,39842.6
58875,39840.2
58865.9,39837
58857.1,39832.9
58848.9,39827.9
58841.1,39822.1
58833.9,39815.7
58827.5,39808.5
58821.7,39800.7
58816.7,39792.5
58812.6,39783.7
58809.4,39774.6
58807,39765.3
58805.6,39755.7
58805.1,39746.1
58805.1,39253.9
58805.6,39244.3
58807,39234.7
58809.4,39225.4
58812.6,39216.3
58816.7,39207.5
58821.7,39199.3
58827.5,39191.5
58833.9,39184.3
58841.1,39177.9
58848.9,39172.1
58857.1,39167.1
58865.9,39163
58875,39159.8
58884.3,39157.4
58893.9,39156
58903.5,39155.5
59267.7,39155.5
Z" /> 
<path style="fill:#000000; fill-opacity:1.0; 
stroke:#000000; stroke-width:0; stroke-opacity:1; 
stroke-linecap:round; stroke-linejoin:round;fill-rule:evenodd;"
d="M 58106.1,39156
58115.7,39157.4
58125,39159.8
58134.1,39163
58142.9,39167.1
58151.1,39172.1
58158.9,39177.9
58166.1,39184.3
58172.5,39191.5
58178.3,39199.3
58183.3,39207.5
58187.4,39216.3
58190.6,39225.4
58193,39234.7
58194.4,39244.3
58194.9,39253.9
58194.9,39746.1
58194.4,39755.7
58193,39765.3
58190.6,39774.6
58187.4,39783.7
58183.3,39792.5
58178.3,39800.7
58172.5,39808.5
58166.1,39815.7
58158.9,39822.1
58151.1,39827.9
58142.9,39832.9
58134.1,39837
58125,39840.2
58115.7,39842.6
58106.1,39844
58096.5,39844.5
57732.3,39844.5
57722.6,39844
57713.1,39842.6
57703.7,39840.2
57694.6,39837
57685.9,39832.9
57677.6,39827.9
57669.8,39822.1
57662.7,39815.7
57656.2,39808.5
57650.4,39800.7
57645.5,39792.5
57641.4,39783.7
57638.1,39774.6
57635.7,39765.3
57634.3,39755.7
57633.9,39746.1
57633.9,39253.9
57634.3,39244.3
57635.7,39234.7
57638.1,39225.4
57641.4,39216.3
57645.5,39207.5
57650.4,39199.3
57656.2,39191.5
57662.7,39184.3
57669.8,39177.9
57677.6,39172.1
57685.9,39167.1
57694.6,39163
57703.7,39159.8
57713.1,39157.4
57722.6,39156
57732.3,39155.5
58096.5,39155.5
Z" /> 
</g>
<g >
</g>
<g style="fill:#000000; fill-opacity:1.0; 
stroke:#000000; stroke-width:0; stroke-opacity:1; 
stroke-linecap:round; stroke-linejoin:round;">
</g>
<g style="fill:#000000; fill-opacity:1.0; 
stroke:#000000; stroke-width:750; stroke-opacity:1; 
stroke-linecap:round; stroke-linejoin:round;">
</g>
<g style="fill:#000000; fill-opacity:0.0; 
stroke:#000000; stroke-width:750; stroke-opacity:1; 
stroke-linecap:round; stroke-linejoin:round;">
<path d="M52731 32750
L52768 32750
" />
<path d="M52731 33750
L52768 33750
" />
</g>
<g style="fill:#000000; fill-opacity:0.0; 
stroke:#000000; stroke-width:0; stroke-opacity:1; 
stroke-linecap:round; stroke-linejoin:round;">
</g>
<g style="fill:#000000; fill-opacity:1.0; 
stroke:#000000; stroke-width:0; stroke-opacity:1; 
stroke-linecap:round; stroke-linejoin:round;">
<path style="fill:#000000; fill-opacity:1.0; 
stroke:#000000; stroke-width:0; stroke-opacity:1; 
stroke-linecap:round; stroke-linejoin:round;fill-rule:evenodd;"
d="M 53143.7,35125
52356.3,35125
52356.3,34375
53143.7,34375
Z" /> 
</g>
<g >
</g>
<g >
</g>
<g style="fill:#000000; fill-opacity:1.0; 
stroke:#000000; stroke-width:0; stroke-opacity:1; 
stroke-linecap:round; stroke-linejoin:round;">
</g>
<g style="fill:#000000; fill-opacity:1.0; 
stroke:#000000; stroke-width:250; stroke-opacity:1; 
stroke-linecap:round; stroke-linejoin:round;">
</g>
<g style="fill:#000000; fill-opacity:0.0; 
stroke:#000000; stroke-width:250; stroke-opacity:1; 
stroke-linecap:round; stroke-linejoin:round;">
<path d="M60500 37500
L59085 37500
" />
<path d="M58271 33247
L58271 35250
" />
<path d="M58271 32690
L58271 33247
" />
<path d="M59085 36063
L59085 37500
" />
<path d="M58271 35250
L59085 36063
" />
<path d="M65250 35500
L60500 35500
" />
<path d="M66054 27500
L65250 27500
" />
<path d="M66500 27500
L66054 27500
" />
<path d="M65250 27500
L65250 35500
" />
<path d="M52750 32750
L52750 32000
" />
<path d="M52835 31914
L54000 31914
" />
<path d="M52750 32000
L52835 31914
" />
<path d="M60500 35500
L59500 35500
" />
<path d="M59500 35500
L59500 32000
" />
<path d="M59414 31914
L59500 32000
" />
<path d="M54000 31914
L59414 31914
" />
<path d="M56500 32000
L56500 32690
" />
<path d="M56500 35250
L56500 32690
" />
<path d="M65250 24750
L65250 27500
" />
<path d="M60500 39500
L59085 39500
" />
<path d="M62250 30500
L60500 30500
" />
<path d="M53750 38750
L56000 38750
" />
<path d="M53750 38750
L52500 38750
" />
<path d="M52500 38750
L52500 36500
" />
<path d="M52500 36500
L55000 36500
" />
<path d="M55000 36500
L55000 33750
" />
<path d="M54000 34414
L54000 33750
" />
<path d="M55000 33750
L54000 33750
" />
<path d="M54000 33750
L52750 33750
" />
<path d="M54000 33085
L54000 33750
" />
<path d="M57914 37155
L58000 37069
" />
<path d="M57914 37500
L57914 37155
" />
<path d="M58000 37069
L58000 36500
" />
<path d="M58000 36500
L55000 36500
" />
<path d="M56750 27414
L56835 27500
" />
<path d="M56750 26250
L56750 27414
" />
<path d="M56835 27500
L56835 29585
" />
<path d="M57000 29750
L57875 29750
" />
<path d="M56835 29585
L57000 29750
" />
<path d="M60500 30500
L59500 30500
" />
<path d="M59500 30500
L59500 29750
" />
<path d="M59500 29750
L57875 29750
" />
<path d="M62250 24750
L62250 30500
" />
<path d="M62250 24750
L62250 23750
" />
<path d="M59250 41500
L57750 41500
" />
<path d="M67750 23750
L67750 42500
" />
<path d="M67750 42500
L59250 42500
" />
<path d="M62250 23750
L67750 23750
" />
<path d="M59250 42500
L59250 41500
" />
<path d="M56000 38750
L56000 41500
" />
<path d="M56000 41500
L57750 41500
" />
<path d="M60500 38500
L59085 38500
" />
<path d="M63250 32500
L60500 32500
" />
<path d="M63250 24750
L63250 32500
" />
<path d="M64250 34500
L60500 34500
" />
<path d="M64250 24750
L64250 34500
" />
<path d="M59085 27500
L60500 27500
" />
</g>
<g style="fill:#000000; fill-opacity:0.0; 
stroke:#000000; stroke-width:1000; stroke-opacity:1; 
stroke-linecap:round; stroke-linejoin:round;">
<path d="M51500 37500
L51500 36000
" />
</g>
<g style="fill:#000000; fill-opacity:0.0; 
stroke:#000000; stroke-width:250; stroke-opacity:1; 
stroke-linecap:round; stroke-linejoin:round;">
<path d="M51624 33375
L51500 33500
" />
</g>
<g style="fill:#000000; fill-opacity:0.0; 
stroke:#000000; stroke-width:1000; stroke-opacity:1; 
stroke-linecap:round; stroke-linejoin:round;">
<path d="M51500 33500
L51500 30000
" />
</g>
<g style="fill:#000000; fill-opacity:0.0; 
stroke:#000000; stroke-width:250; stroke-opacity:1; 
stroke-linecap:round; stroke-linejoin:round;">
<path d="M51624 34125
L51500 34250
" />
</g>
<g style="fill:#000000; fill-opacity:0.0; 
stroke:#000000; stroke-width:1000; stroke-opacity:1; 
stroke-linecap:round; stroke-linejoin:round;">
<path d="M51500 34250
L51500 33500
" />
</g>
<g style="fill:#000000; fill-opacity:0.0; 
stroke:#000000; stroke-width:250; stroke-opacity:1; 
stroke-linecap:round; stroke-linejoin:round;">
<path d="M51914 35585
L51500 36000
" />
<path d="M54000 35585
L51914 35585
" />
<path d="M52750 34750
L51500 34750
" />
</g>
<g style="fill:#000000; fill-opacity:0.0; 
stroke:#000000; stroke-width:1000; stroke-opacity:1; 
stroke-linecap:round; stroke-linejoin:round;">
<path d="M51500 36000
L51500 34750
" />
<path d="M51500 34750
L51500 34250
" />
<path d="M51500 30000
L51500 28750
" />
</g>
<g style="fill:#000000; fill-opacity:0.0; 
stroke:#000000; stroke-width:250; stroke-opacity:1; 
stroke-linecap:round; stroke-linejoin:round;">
<path d="M54124 28750
L51500 28750
" />
</g>
<g style="fill:#000000; fill-opacity:0.0; 
stroke:#000000; stroke-width:1000; stroke-opacity:1; 
stroke-linecap:round; stroke-linejoin:round;">
<path d="M52500 23500
L52500 26250
" />
<path d="M52500 26250
L51500 26250
" />
<path d="M51500 26250
L51500 28750
" />
</g>
<g style="fill:#000000; fill-opacity:0.0; 
stroke:#000000; stroke-width:250; stroke-opacity:1; 
stroke-linecap:round; stroke-linejoin:round;">
<path d="M52500 23500
L55055 23500
" />
</g>
<g style="fill:#000000; fill-opacity:0.0; 
stroke:#000000; stroke-width:1000; stroke-opacity:1; 
stroke-linecap:round; stroke-linejoin:round;">
<path d="M51500 37500
L51500 41500
" />
</g>
<g style="fill:#000000; fill-opacity:0.0; 
stroke:#000000; stroke-width:787.402; stroke-opacity:1; 
stroke-linecap:round; stroke-linejoin:round;">
<path d="M55750 26250
L55750 25250
" />
<path d="M55750 25250
L55750 24750
" />
</g>
<g style="fill:#000000; fill-opacity:0.0; 
stroke:#000000; stroke-width:1000; stroke-opacity:1; 
stroke-linecap:round; stroke-linejoin:round;">
<path d="M55750 24750
L59250 24750
" />
<path d="M59250 24750
L59250 23500
" />
</g>
<g style="fill:#000000; fill-opacity:0.0; 
stroke:#000000; stroke-width:250; stroke-opacity:1; 
stroke-linecap:round; stroke-linejoin:round;">
<path d="M56944 23500
L59250 23500
" />
<path d="M53750 37000
L53750 37750
" />
<path d="M57914 38500
L57250 38500
" />
<path d="M57250 37000
L53750 37000
" />
<path d="M57250 38500
L57250 37000
" />
<path d="M57914 39500
L56750 39500
" />
<path d="M56750 39500
L56750 37750
" />
<path d="M56750 37750
L56000 37750
" />
<path d="M54750 26250
L54750 27500
" />
<path d="M54750 27500
L55664 27500
" />
<path d="M55664 27500
L55664 29664
" />
<path d="M55578 29750
L54124 29750
" />
<path d="M55664 29664
L55578 29750
" />
<path d="M57914 28711
L57875 28750
" />
<path d="M57914 27500
L57914 28711
" />
</g>
<g >
</g>
<g style="fill:#000000; fill-opacity:0.0; 
stroke:#000000; stroke-width:250; stroke-opacity:1; 
stroke-linecap:round; stroke-linejoin:round;">
</g>
<g style="fill:#000000; fill-opacity:1.0; 
stroke:#000000; stroke-width:100; stroke-opacity:1; 
stroke-linecap:round; stroke-linejoin:round;">
<path style="fill:#000000; fill-opacity:1.0; 
stroke:#000000; stroke-width:100; stroke-opacity:1; 
stroke-linecap:round; stroke-linejoin:round;fill-rule:evenodd;"
d="M 68200,45950
52411.8,45950
52724,45741.4
52991.4,45474
53201.6,45159.5
53346.3,44810.1
53420.1,44439.1
53420.1,44136.6
55577.6,44136.6
55577.6,41509.1
56707.6,41509.1
56729.4,41712.3
56790.4,41907.3
56878.2,42071.6
57022.6,42156.7
57679.3,41500
57022.6,40843.3
56878.2,40928.4
56783.5,41109.5
56725.9,41305.6
56707.6,41509.1
55577.6,41509.1
55577.6,41457.9
53124.8,41457.9
53124.8,41340
53062.4,41026.1
52939.9,40730.4
52837.4,40577
52837.4,38522.8
52990.3,38675.7
53145.7,38779.5
53145.7,38800
53176.4,38800
53185.5,38806.1
53197.2,38811
53145.7,38862.5
53144.5,39104.3
53149.3,39153.3
53163.6,39200.5
53186.8,39243.9
53218,39282
53256.1,39313.2
53299.5,39336.4
53346.7,39350.7
53395.7,39355.5
53637.5,39354.3
53700,39291.8
53700,38941.7
53800,38941.7
53800,39291.8
53862.5,39354.3
54104.3,39355.5
54153.3,39350.7
54200.5,39336.4
54243.9,39313.2
54282,39282
54313.2,39243.9
54336.4,39200.5
54350.7,39153.3
54355.5,39104.3
54354.3,38862.5
54302.8,38811
54314.5,38806.1
54323.6,38800
54354.3,38800
54354.3,38779.5
54509.7,38675.7
54675.7,38509.7
54806.1,38314.5
54875,38148.2
54943.9,38314.5
55074.3,38509.7
55240.3,38675.7
55395.7,38779.5
55395.7,38800
55426.4,38800
55435.5,38806.1
55447.2,38811
55395.7,38862.5
55394.5,39104.3
55399.3,39153.3
55413.6,39200.5
55436.8,39243.9
55468,39282
55506.1,39313.2
55549.5,39336.4
55596.7,39350.7
55645.7,39355.5
55787.6,39354.8
55787.6,39452.7
55782.9,39500
55801.5,39688.7
55856.6,39870.1
55945.9,40037.3
55964.7,40060.1
56066.2,40183.8
56212.7,40304.1
56379.9,40393.4
56561.3,40448.5
56750,40467.1
56797.3,40462.4
57130.7,40462.4
57210.1,40527.5
57288.5,40569.4
57178.4,40628.2
57093.3,40772.6
57750,41429.3
58406.7,40772.6
58335,40651.1
58456.1,40614.4
58500,40590.9
58543.9,40614.4
58720.2,40667.9
58903.5,40685.9
59267.7,40685.9
59360.2,40676.8
59391.9,40836.1
59459.8,41000
59391.9,41163.9
59347.6,41386.5
59347.6,41613.5
59391.9,41836.1
59478.8,42045.8
59587.1,42207.9
58516,42207.9
58522.3,42201.6
58477.4,42156.7
58621.8,42071.6
58716.5,41890.5
58774.1,41694.4
58792.4,41490.9
58770.6,41287.7
58709.6,41092.7
58621.8,40928.4
58477.4,40843.3
57820.7,41500
57826.3,41505.6
57755.6,41576.3
57750,41570.7
57093.3,42227.4
57178.4,42371.8
57359.5,42466.5
57555.6,42524.1
57703.7,42537.4
57703.7,44886.6
61296.3,44886.6
61296.3,42333.3
61395.1,42234.6
61521.2,42045.8
61608.1,41836.1
61652.4,41613.5
61652.4,41386.5
61608.1,41163.9
61540.2,41000
61608.1,40836.1
61652.4,40613.5
61652.4,40386.5
61608.1,40163.9
61540.2,40000
61608.1,39836.1
61652.4,39613.5
61652.4,39386.5
61608.1,39163.9
61540.2,39000
61608.1,38836.1
61652.4,38613.5
61652.4,38386.5
61608.1,38163.9
61540.2,38000
61608.1,37836.1
61652.4,37613.5
61652.4,37386.5
61608.1,37163.9
61540.2,37000
61608.1,36836.1
61652.4,36613.5
61652.4,36462.4
65202.7,36462.4
65250,36467.1
65347.6,36457.4
65347.6,36613.5
65391.9,36836.1
65459.8,37000
65391.9,37163.9
65347.6,37386.5
65347.6,37613.5
65391.9,37836.1
65459.8,38000
65391.9,38163.9
65347.6,38386.5
65347.6,38613.5
65391.9,38836.1
65459.8,39000
65391.9,39163.9
65347.6,39386.5
65347.6,39613.5
65391.9,39836.1
65459.8,40000
65391.9,40163.9
65347.6,40386.5
65347.6,40613.5
65391.9,40836.1
65459.8,41000
65391.9,41163.9
65347.6,41386.5
65347.6,41613.5
65391.9,41836.1
65478.8,42045.8
65604.9,42234.6
65765.4,42395.1
65954.2,42521.2
66163.9,42608.1
66386.5,42652.4
66613.5,42652.4
66836.1,42608.1
67045.8,42521.2
67234.6,42395.1
67395.1,42234.6
67521.2,42045.8
67608.1,41836.1
67652.4,41613.5
67652.4,41386.5
67608.1,41163.9
67540.2,41000
67608.1,40836.1
67652.4,40613.5
67652.4,40386.5
67608.1,40163.9
67540.2,40000
67608.1,39836.1
67652.4,39613.5
67652.4,39386.5
67608.1,39163.9
67540.2,39000
67608.1,38836.1
67652.4,38613.5
67652.4,38386.5
67608.1,38163.9
67540.2,38000
67608.1,37836.1
67652.4,37613.5
67652.4,37386.5
67608.1,37163.9
67540.2,37000
67608.1,36836.1
67652.4,36613.5
67652.4,36386.5
67608.1,36163.9
67540.2,36000
67608.1,35836.1
67652.4,35613.5
67652.4,35386.5
67608.1,35163.9
67540.2,35000
67608.1,34836.1
67652.4,34613.5
67652.4,34386.5
67608.1,34163.9
67540.2,34000
67608.1,33836.1
67652.4,33613.5
67652.4,33386.5
67608.1,33163.9
67540.2,33000
67608.1,32836.1
67652.4,32613.5
67652.4,32386.5
67608.1,32163.9
67540.2,32000
67608.1,31836.1
67652.4,31613.5
67652.4,31386.5
67608.1,31163.9
67540.2,31000
67608.1,30836.1
67652.4,30613.5
67652.4,30386.5
67608.1,30163.9
67540.2,30000
67608.1,29836.1
67652.4,29613.5
67652.4,29386.5
67608.1,29163.9
67540.2,29000
67608.1,28836.1
67652.4,28613.5
67652.4,28386.5
67608.1,28163.9
67540.2,28000
67608.1,27836.1
67652.4,27613.5
67652.4,27386.5
67608.1,27163.9
67521.2,26954.2
67395.1,26765.4
67234.6,26604.9
67045.8,26478.8
66836.1,26391.9
66613.5,26347.6
66386.5,26347.6
66212.4,26382.3
66212.4,25419.3
66288.7,25305.2
66377,25091.9
66422,24865.4
66422,24634.6
66377,24408.1
66288.7,24194.8
66160.4,24002.9
66077.6,23920.1
66189.1,23920.1
66560.1,23846.3
66909.5,23701.6
67224,23491.4
67491.4,23224
67701.6,22909.5
67846.3,22560.1
67920.1,22189.1
67920.1,21810.9
67846.3,21439.9
67701.6,21090.5
67491.4,20776
67224,20508.6
66911.8,20300
68200,20300
Z" /> 
<path style="fill:#000000; fill-opacity:1.0; 
stroke:#000000; stroke-width:100; stroke-opacity:1; 
stroke-linecap:round; stroke-linejoin:round;fill-rule:evenodd;"
d="M 64776,20508.6
64508.6,20776
64298.4,21090.5
64153.7,21439.9
64079.9,21810.9
64079.9,22189.1
64153.7,22560.1
64298.4,22909.5
64508.6,23224
64776,23491.4
64958.1,23613.1
64908.1,23623
64750,23688.5
64591.9,23623
64365.4,23578
64134.6,23578
63908.1,23623
63750,23688.5
63591.9,23623
63365.4,23578
63134.6,23578
62908.1,23623
62694.8,23711.3
62502.9,23839.6
62339.6,24002.9
62231,24165.4
62200,24165.4
62200,24222.2
62198.3,24226.2
62137.5,24165.4
61915.4,24164.1
61866.3,24169
61819.2,24183.3
61775.8,24206.5
61737.7,24237.7
61706.5,24275.8
61683.3,24319.2
61669,24366.3
61664.1,24415.4
61665.4,24637.5
61727.9,24700
62078,24700
62078,24800
61727.9,24800
61665.4,24862.5
61664.1,25084.6
61669,25133.7
61683.3,25180.8
61706.5,25224.2
61737.7,25262.3
61775.8,25293.5
61819.2,25316.7
61866.3,25331
61915.4,25335.9
62137.5,25334.6
62198.3,25273.8
62200,25277.8
62200,25334.6
62231,25334.6
62287.6,25419.3
62287.6,31537.6
61652.4,31537.6
61652.4,31386.5
61608.1,31163.9
61521.2,30954.2
61395.1,30765.4
61234.6,30604.9
61077.6,30500
61234.6,30395.1
61395.1,30234.6
61521.2,30045.8
61608.1,29836.1
61652.4,29613.5
61652.4,29386.5
61608.1,29163.9
61540.2,29000
61608.1,28836.1
61652.4,28613.5
61652.4,28386.5
61608.1,28163.9
61594.3,28130.6
61640.2,27979.1
61656.4,27815
61656.4,27185
61640.2,27020.9
61592.4,26863
61514.6,26717.6
61410,26590
61282.4,26485.4
61137,26407.6
60979.1,26359.8
60815,26343.6
60185,26343.6
60020.9,26359.8
59863,26407.6
59765.8,26459.6
59627.4,26385.6
59451.1,26332.1
59267.7,26314.1
58903.5,26314.1
58720.2,26332.1
58543.9,26385.6
58500,26409.1
58456.1,26385.6
58279.8,26332.1
58096.5,26314.1
57732.3,26314.1
57548.9,26332.1
57372.6,26385.6
57359,26392.9
57311.2,26300
56981.1,26300
56981.1,26200
57311.2,26200
57361.2,26102.8
57356.3,26087.4
59184.3,26087.4
59250,26093.9
59315.7,26087.4
59512.2,26068.1
59764.3,25991.6
59996.6,25867.4
60200.3,25700.3
60367.4,25496.6
60491.6,25264.3
60568.1,25012.2
60593.9,24750
60587.4,24684.3
60587.4,24423
60689.9,24269.6
60812.4,23973.9
60874.8,23660
60874.8,23340
60812.4,23026.1
60689.9,22730.4
60599.5,22595.1
60599.5,20707.9
57400.5,20707.9
57400.5,22142.8
57240.2,22127.1
56649.6,22127.1
56485.4,22143.2
56327.6,22191.1
56182.1,22268.9
56054.6,22373.5
56000,22440
55945.4,22373.5
55817.9,22268.9
55672.4,22191.1
55514.6,22143.2
55350.4,22127.1
54759.8,22127.1
54595.7,22143.2
54437.8,22191.1
54292.4,22268.9
54164.8,22373.5
54060.2,22501
54040.6,22537.6
53849.5,22537.6
53849.5,20707.9
50650.5,20707.9
50650.5,23386.6
50875.2,23386.6
50875.2,23660
50937.6,23973.9
51060.1,24269.6
51162.6,24423
51162.6,24954.8
50985.7,25008.4
50753.4,25132.6
50549.7,25299.7
50382.6,25503.4
50258.4,25735.7
50181.9,25987.8
50156.1,26250
50162.6,26315.7
50162.6,28684.3
50162.6,28684.3
50162.6,30065.7
50162.6,30065.7
50162.6,33434.3
50162.6,36065.7
50162.6,36065.7
50162.6,37434.3
50162.6,37434.3
50162.6,40577
50060.1,40730.4
49937.6,41026.1
49875.2,41340
49875.2,41660
49937.6,41973.9
50060.1,42269.6
50237.9,42535.8
50386.8,42684.6
50276,42758.6
50008.6,43026
49800,43338.2
49800,20300
65088.2,20300
Z" /> 
<path style="fill:#000000; fill-opacity:1.0; 
stroke:#000000; stroke-width:100; stroke-opacity:1; 
stroke-linecap:round; stroke-linejoin:round;fill-rule:evenodd;"
d="M 55316.2,33050
55409,33274.1
55537.6,33466.5
55537.6,34474.4
55409,34666.9
55316.2,34890.9
55268.9,35128.7
55268.9,35371.3
55316.2,35609.1
55409,35833.1
55543.7,36034.8
55546.6,36037.6
55141.6,36037.6
55167.9,35951.1
55185.9,35767.7
55185.9,35403.5
55167.9,35220.2
55114.4,35043.9
55027.5,34881.4
54910.7,34738.9
54768.2,34622.1
54605.7,34535.2
54594.5,34531.8
54594.5,34526.9
54532,34464.4
54253.2,34464.4
54246.1,34463.7
53985.2,34463.7
53985.2,34375
53969,34210.8
53950,34148.3
53950,33946.4
54050,33946.4
54050,34364.4
54532,34364.4
54594.5,34301.9
54595.7,34133.9
54590.9,34084.8
54576.6,34037.7
54553.4,33994.3
54522.1,33956.2
54484.1,33925
54440.6,33901.8
54393.5,33887.5
54344.5,33882.6
54112.5,33883.9
54050,33946.4
53950,33946.4
53887.5,33883.9
53823.7,33883.5
53738.7,33780
53611.2,33675.4
53575.5,33656.3
53626.4,33614.5
53655.5,33617.4
53887.5,33616.1
53950,33553.6
53950,33135.6
54050,33135.6
54050,33553.6
54112.5,33616.1
54344.5,33617.4
54393.5,33612.5
54440.6,33598.2
54484.1,33575
54522.1,33543.8
54553.4,33505.7
54576.6,33462.3
54590.9,33415.2
54595.7,33366.1
54594.5,33198.1
54532,33135.6
54050,33135.6
53950,33135.6
53942.1,33135.6
53942.1,33058.3
53948.8,33036.3
54246.1,33036.3
54253.2,33035.6
54532,33035.6
54594.5,32973.1
54594.5,32968.2
54605.7,32964.8
54768.2,32877.9
54769.7,32876.8
55281.7,32876.8
Z" /> 
<path style="fill:#000000; fill-opacity:1.0; 
stroke:#000000; stroke-width:100; stroke-opacity:1; 
stroke-linecap:round; stroke-linejoin:round;fill-rule:evenodd;"
d="M 56657,28235.4
56640.8,28399.6
56640.8,29100.4
56657,29264.6
56704.9,29422.4
56782.6,29567.9
56887.3,29695.4
57014.8,29800
57160.3,29877.8
57232.1,29899.6
57231.1,30100.4
57235.9,30149.4
57250.2,30196.5
57273.4,30240
57304.7,30278
57342.7,30309.3
57386.1,30332.5
57433.3,30346.8
57482.3,30351.6
57763.5,30350.4
57826,30287.9
57826,29941.8
57926,29941.8
57926,30287.9
57988.5,30350.4
58269.7,30351.6
58318.7,30346.8
58365.8,30332.5
58409.2,30309.3
58447.3,30278
58478.6,30240
58501.8,30196.5
58516.1,30149.4
58520.9,30100.4
58519.9,29899.6
58591.7,29877.8
58737.2,29800
58864.7,29695.4
58969.3,29567.9
59047.1,29422.4
59095,29264.6
59111.1,29100.4
59111.1,28685.9
59267.7,28685.9
59360.2,28676.8
59391.9,28836.1
59459.8,29000
59391.9,29163.9
59347.6,29386.5
59347.6,29613.5
59391.9,29836.1
59478.8,30045.8
59604.9,30234.6
59765.4,30395.1
59922.4,30500
59765.4,30604.9
59604.9,30765.4
59479.1,30953.7
59461.6,30952
59461.6,30952
59414.4,30947.3
59367.1,30952
54769.7,30952
54768.2,30950.8
54707,30918.1
54839.7,30877.8
54985.2,30800
55092,30712.4
55531.5,30712.4
55578.7,30717.1
55626,30712.4
55626,30712.4
55767.4,30698.5
55948.8,30643.4
56116,30554.1
56262.6,30433.8
56292.7,30397.1
56311.5,30378.3
56348.2,30348.2
56468.4,30201.6
56557.8,30034.4
56612.8,29853
56626.8,29711.6
56626.8,29711.6
56631.4,29664.4
56626.8,29617.1
56626.8,28269.7
56627.9,28268.2
56672.1,28185.5
Z" /> 
<path style="fill:#000000; fill-opacity:1.0; 
stroke:#000000; stroke-width:100; stroke-opacity:1; 
stroke-linecap:round; stroke-linejoin:round;fill-rule:evenodd;"
d="M 56878.4,26867.2
56863.9,26894.3
56810.5,27070.6
56792.4,27253.9
56792.4,27557.9
56786.3,27557.9
56786.3,27253.9
56785.6,27246.8
56785.6,26968
56767.9,26950.3
56778.6,26937.3
56828.9,26843.1
Z" /> 
</g>
</g>
<g style="fill:#FFFFFF; fill-opacity:1.0; 
stroke:#FFFFFF; stroke-width:100; stroke-opacity:1; 
stroke-linecap:round; stroke-linejoin:round;">
</g>
<g style="fill:#FFFFFF; fill-opacity:1.0; 
stroke:#FFFFFF; stroke-width:0; stroke-opacity:1; 
stroke-linecap:round; stroke-linejoin:round;">
<circle cx="66000" cy="22000" r="629.921" /> 
</g>
<g style="fill:#FFFFFF; fill-opacity:1.0; 
stroke:#FFFFFF; stroke-width:39.3701; stroke-opacity:1; 
stroke-linecap:round; stroke-linejoin:round;">
</g>
<g style="fill:#FFFFFF; fill-opacity:1.0; 
stroke:#FFFFFF; stroke-width:0; stroke-opacity:1; 
stroke-linecap:round; stroke-linejoin:round;">
<circle cx="51500" cy="44250" r="629.921" /> 
</g>
<g style="fill:#FFFFFF; fill-opacity:1.0; 
stroke:#FFFFFF; stroke-width:39.3701; stroke-opacity:1; 
stroke-linecap:round; stroke-linejoin:round;">
</g>
<g style="fill:#FFFFFF; fill-opacity:1.0; 
stroke:#FFFFFF; stroke-width:0; stroke-opacity:1; 
stroke-linecap:round; stroke-linejoin:round;">
<circle cx="66500" cy="41500" r="157.48" /> 
</g>
<g style="fill:#FFFFFF; fill-opacity:1.0; 
stroke:#FFFFFF; stroke-width:39.3701; stroke-opacity:1; 
stroke-linecap:round; stroke-linejoin:round;">
</g>
<g style="fill:#FFFFFF; fill-opacity:1.0; 
stroke:#FFFFFF; stroke-width:0; stroke-opacity:1; 
stroke-linecap:round; stroke-linejoin:round;">
<circle cx="60500" cy="41500" r="157.48" /> 
</g>
<g style="fill:#FFFFFF; fill-opacity:1.0; 
stroke:#FFFFFF; stroke-width:39.3701; stroke-opacity:1; 
stroke-linecap:round; stroke-linejoin:round;">
</g>
<g style="fill:#FFFFFF; fill-opacity:1.0; 
stroke:#FFFFFF; stroke-width:0; stroke-opacity:1; 
stroke-linecap:round; stroke-linejoin:round;">
<circle cx="66500" cy="27500" r="157.48" /> 
</g>
<g style="fill:#FFFFFF; fill-opacity:1.0; 
stroke:#FFFFFF; stroke-width:39.3701; stroke-opacity:1; 
stroke-linecap:round; stroke-linejoin:round;">
</g>
<g style="fill:#FFFFFF; fill-opacity:1.0; 
stroke:#FFFFFF; stroke-width:0; stroke-opacity:1; 
stroke-linecap:round; stroke-linejoin:round;">
<circle cx="60500" cy="40500" r="157.48" /> 
</g>
<g style="fill:#FFFFFF; fill-opacity:1.0; 
stroke:#FFFFFF; stroke-width:39.3701; stroke-opacity:1; 
stroke-linecap:round; stroke-linejoin:round;">
</g>
<g style="fill:#FFFFFF; fill-opacity:1.0; 
stroke:#FFFFFF; stroke-width:0; stroke-opacity:1; 
stroke-linecap:round; stroke-linejoin:round;">
<circle cx="66500" cy="28500" r="157.48" /> 
</g>
<g style="fill:#FFFFFF; fill-opacity:1.0; 
stroke:#FFFFFF; stroke-width:39.3701; stroke-opacity:1; 
stroke-linecap:round; stroke-linejoin:round;">
</g>
<g style="fill:#FFFFFF; fill-opacity:1.0; 
stroke:#FFFFFF; stroke-width:0; stroke-opacity:1; 
stroke-linecap:round; stroke-linejoin:round;">
<circle cx="60500" cy="39500" r="157.48" /> 
</g>
<g style="fill:#FFFFFF; fill-opacity:1.0; 
stroke:#FFFFFF; stroke-width:39.3701; stroke-opacity:1; 
stroke-linecap:round; stroke-linejoin:round;">
</g>
<g style="fill:#FFFFFF; fill-opacity:1.0; 
stroke:#FFFFFF; stroke-width:0; stroke-opacity:1; 
stroke-linecap:round; stroke-linejoin:round;">
<circle cx="66500" cy="29500" r="157.48" /> 
</g>
<g style="fill:#FFFFFF; fill-opacity:1.0; 
stroke:#FFFFFF; stroke-width:39.3701; stroke-opacity:1; 
stroke-linecap:round; stroke-linejoin:round;">
</g>
<g style="fill:#FFFFFF; fill-opacity:1.0; 
stroke:#FFFFFF; stroke-width:0; stroke-opacity:1; 
stroke-linecap:round; stroke-linejoin:round;">
<circle cx="60500" cy="38500" r="157.48" /> 
</g>
<g style="fill:#FFFFFF; fill-opacity:1.0; 
stroke:#FFFFFF; stroke-width:39.3701; stroke-opacity:1; 
stroke-linecap:round; stroke-linejoin:round;">
</g>
<g style="fill:#FFFFFF; fill-opacity:1.0; 
stroke:#FFFFFF; stroke-width:0; stroke-opacity:1; 
stroke-linecap:round; stroke-linejoin:round;">
<circle cx="66500" cy="30500" r="157.48" /> 
</g>
<g style="fill:#FFFFFF; fill-opacity:1.0; 
stroke:#FFFFFF; stroke-width:39.3701; stroke-opacity:1; 
stroke-linecap:round; stroke-linejoin:round;">
</g>
<g style="fill:#FFFFFF; fill-opacity:1.0; 
stroke:#FFFFFF; stroke-width:0; stroke-opacity:1; 
stroke-linecap:round; stroke-linejoin:round;">
<circle cx="60500" cy="37500" r="157.48" /> 
</g>
<g style="fill:#FFFFFF; fill-opacity:1.0; 
stroke:#FFFFFF; stroke-width:39.3701; stroke-opacity:1; 
stroke-linecap:round; stroke-linejoin:round;">
</g>
<g style="fill:#FFFFFF; fill-opacity:1.0; 
stroke:#FFFFFF; stroke-width:0; stroke-opacity:1; 
stroke-linecap:round; stroke-linejoin:round;">
<circle cx="66500" cy="31500" r="157.48" /> 
</g>
<g style="fill:#FFFFFF; fill-opacity:1.0; 
stroke:#FFFFFF; stroke-width:39.3701; stroke-opacity:1; 
stroke-linecap:round; stroke-linejoin:round;">
</g>
<g style="fill:#FFFFFF; fill-opacity:1.0; 
stroke:#FFFFFF; stroke-width:0; stroke-opacity:1; 
stroke-linecap:round; stroke-linejoin:round;">
<circle cx="60500" cy="36500" r="157.48" /> 
</g>
<g style="fill:#FFFFFF; fill-opacity:1.0; 
stroke:#FFFFFF; stroke-width:39.3701; stroke-opacity:1; 
stroke-linecap:round; stroke-linejoin:round;">
</g>
<g style="fill:#FFFFFF; fill-opacity:1.0; 
stroke:#FFFFFF; stroke-width:0; stroke-opacity:1; 
stroke-linecap:round; stroke-linejoin:round;">
<circle cx="66500" cy="32500" r="157.48" /> 
</g>
<g style="fill:#FFFFFF; fill-opacity:1.0; 
stroke:#FFFFFF; stroke-width:39.3701; stroke-opacity:1; 
stroke-linecap:round; stroke-linejoin:round;">
</g>
<g style="fill:#FFFFFF; fill-opacity:1.0; 
stroke:#FFFFFF; stroke-width:0; stroke-opacity:1; 
stroke-linecap:round; stroke-linejoin:round;">
<circle cx="60500" cy="35500" r="157.48" /> 
</g>
<g style="fill:#FFFFFF; fill-opacity:1.0; 
stroke:#FFFFFF; stroke-width:39.3701; stroke-opacity:1; 
stroke-linecap:round; stroke-linejoin:round;">
</g>
<g style="fill:#FFFFFF; fill-opacity:1.0; 
stroke:#FFFFFF; stroke-width:0; stroke-opacity:1; 
stroke-linecap:round; stroke-linejoin:round;">
<circle cx="66500" cy="33500" r="157.48" /> 
</g>
<g style="fill:#FFFFFF; fill-opacity:1.0; 
stroke:#FFFFFF; stroke-width:39.3701; stroke-opacity:1; 
stroke-linecap:round; stroke-linejoin:round;">
</g>
<g style="fill:#FFFFFF; fill-opacity:1.0; 
stroke:#FFFFFF; stroke-width:0; stroke-opacity:1; 
stroke-linecap:round; stroke-linejoin:round;">
<circle cx="60500" cy="34500" r="157.48" /> 
</g>
<g style="fill:#FFFFFF; fill-opacity:1.0; 
stroke:#FFFFFF; stroke-width:39.3701; stroke-opacity:1; 
stroke-linecap:round; stroke-linejoin:round;">
</g>
<g style="fill:#FFFFFF; fill-opacity:1.0; 
stroke:#FFFFFF; stroke-width:0; stroke-opacity:1; 
stroke-linecap:round; stroke-linejoin:round;">
<circle cx="66500" cy="34500" r="157.48" /> 
</g>
<g style="fill:#FFFFFF; fill-opacity:1.0; 
stroke:#FFFFFF; stroke-width:39.3701; stroke-opacity:1; 
stroke-linecap:round; stroke-linejoin:round;">
</g>
<g style="fill:#FFFFFF; fill-opacity:1.0; 
stroke:#FFFFFF; stroke-width:0; stroke-opacity:1; 
stroke-linecap:round; stroke-linejoin:round;">
<circle cx="60500" cy="33500" r="157.48" /> 
</g>
<g style="fill:#FFFFFF; fill-opacity:1.0; 
stroke:#FFFFFF; stroke-width:39.3701; stroke-opacity:1; 
stroke-linecap:round; stroke-linejoin:round;">
</g>
<g style="fill:#FFFFFF; fill-opacity:1.0; 
stroke:#FFFFFF; stroke-width:0; stroke-opacity:1; 
stroke-linecap:round; stroke-linejoin:round;">
<circle cx="66500" cy="35500" r="157.48" /> 
</g>
<g style="fill:#FFFFFF; fill-opacity:1.0; 
stroke:#FFFFFF; stroke-width:39.3701; stroke-opacity:1; 
stroke-linecap:round; stroke-linejoin:round;">
</g>
<g style="fill:#FFFFFF; fill-opacity:1.0; 
stroke:#FFFFFF; stroke-width:0; stroke-opacity:1; 
stroke-linecap:round; stroke-linejoin:round;">
<circle cx="60500" cy="32500" r="157.48" /> 
</g>
<g style="fill:#FFFFFF; fill-opacity:1.0; 
stroke:#FFFFFF; stroke-width:39.3701; stroke-opacity:1; 
stroke-linecap:round; stroke-linejoin:round;">
</g>
<g style="fill:#FFFFFF; fill-opacity:1.0; 
stroke:#FFFFFF; stroke-width:0; stroke-opacity:1; 
stroke-linecap:round; stroke-linejoin:round;">
<circle cx="66500" cy="36500" r="157.48" /> 
</g>
<g style="fill:#FFFFFF; fill-opacity:1.0; 
stroke:#FFFFFF; stroke-width:39.3701; stroke-opacity:1; 
stroke-linecap:round; stroke-linejoin:round;">
</g>
<g style="fill:#FFFFFF; fill-opacity:1.0; 
stroke:#FFFFFF; stroke-width:0; stroke-opacity:1; 
stroke-linecap:round; stroke-linejoin:round;">
<circle cx="60500" cy="31500" r="157.48" /> 
</g>
<g style="fill:#FFFFFF; fill-opacity:1.0; 
stroke:#FFFFFF; stroke-width:39.3701; stroke-opacity:1; 
stroke-linecap:round; stroke-linejoin:round;">
</g>
<g style="fill:#FFFFFF; fill-opacity:1.0; 
stroke:#FFFFFF; stroke-width:0; stroke-opacity:1; 
stroke-linecap:round; stroke-linejoin:round;">
<circle cx="66500" cy="37500" r="157.48" /> 
</g>
<g style="fill:#FFFFFF; fill-opacity:1.0; 
stroke:#FFFFFF; stroke-width:39.3701; stroke-opacity:1; 
stroke-linecap:round; stroke-linejoin:round;">
</g>
<g style="fill:#FFFFFF; fill-opacity:1.0; 
stroke:#FFFFFF; stroke-width:0; stroke-opacity:1; 
stroke-linecap:round; stroke-linejoin:round;">
<circle cx="60500" cy="30500" r="157.48" /> 
</g>
<g style="fill:#FFFFFF; fill-opacity:1.0; 
stroke:#FFFFFF; stroke-width:39.3701; stroke-opacity:1; 
stroke-linecap:round; stroke-linejoin:round;">
</g>
<g style="fill:#FFFFFF; fill-opacity:1.0; 
stroke:#FFFFFF; stroke-width:0; stroke-opacity:1; 
stroke-linecap:round; stroke-linejoin:round;">
<circle cx="66500" cy="38500" r="157.48" /> 
</g>
<g style="fill:#FFFFFF; fill-opacity:1.0; 
stroke:#FFFFFF; stroke-width:39.3701; stroke-opacity:1; 
stroke-linecap:round; stroke-linejoin:round;">
</g>
<g style="fill:#FFFFFF; fill-opacity:1.0; 
stroke:#FFFFFF; stroke-width:0; stroke-opacity:1; 
stroke-linecap:round; stroke-linejoin:round;">
<circle cx="60500" cy="29500" r="157.48" /> 
</g>
<g style="fill:#FFFFFF; fill-opacity:1.0; 
stroke:#FFFFFF; stroke-width:39.3701; stroke-opacity:1; 
stroke-linecap:round; stroke-linejoin:round;">
</g>
<g style="fill:#FFFFFF; fill-opacity:1.0; 
stroke:#FFFFFF; stroke-width:0; stroke-opacity:1; 
stroke-linecap:round; stroke-linejoin:round;">
<circle cx="66500" cy="39500" r="157.48" /> 
</g>
<g style="fill:#FFFFFF; fill-opacity:1.0; 
stroke:#FFFFFF; stroke-width:39.3701; stroke-opacity:1; 
stroke-linecap:round; stroke-linejoin:round;">
</g>
<g style="fill:#FFFFFF; fill-opacity:1.0; 
stroke:#FFFFFF; stroke-width:0; stroke-opacity:1; 
stroke-linecap:round; stroke-linejoin:round;">
<circle cx="60500" cy="28500" r="157.48" /> 
</g>
<g style="fill:#FFFFFF; fill-opacity:1.0; 
stroke:#FFFFFF; stroke-width:39.3701; stroke-opacity:1; 
stroke-linecap:round; stroke-linejoin:round;">
</g>
<g style="fill:#FFFFFF; fill-opacity:1.0; 
stroke:#FFFFFF; stroke-width:0; stroke-opacity:1; 
stroke-linecap:round; stroke-linejoin:round;">
<circle cx="66500" cy="40500" r="157.48" /> 
</g>
<g style="fill:#FFFFFF; fill-opacity:1.0; 
stroke:#FFFFFF; stroke-width:39.3701; stroke-opacity:1; 
stroke-linecap:round; stroke-linejoin:round;">
</g>
<g style="fill:#FFFFFF; fill-opacity:1.0; 
stroke:#FFFFFF; stroke-width:0; stroke-opacity:1; 
stroke-linecap:round; stroke-linejoin:round;">
<circle cx="60500" cy="27500" r="157.48" /> 
</g>
<g style="fill:#FFFFFF; fill-opacity:1.0; 
stroke:#FFFFFF; stroke-width:39.3701; stroke-opacity:1; 
stroke-linecap:round; stroke-linejoin:round;">
</g>
<g style="fill:#FFFFFF; fill-opacity:1.0; 
stroke:#FFFFFF; stroke-width:0; stroke-opacity:1; 
stroke-linecap:round; stroke-linejoin:round;">
<circle cx="58271.7" cy="35250" r="216.535" /> 
</g>
<g style="fill:#FFFFFF; fill-opacity:1.0; 
stroke:#FFFFFF; stroke-width:39.3701; stroke-opacity:1; 
stroke-linecap:round; stroke-linejoin:round;">
</g>
<g style="fill:#FFFFFF; fill-opacity:1.0; 
stroke:#FFFFFF; stroke-width:0; stroke-opacity:1; 
stroke-linecap:round; stroke-linejoin:round;">
<circle cx="56500" cy="35250" r="216.535" /> 
</g>
<g style="fill:#FFFFFF; fill-opacity:1.0; 
stroke:#FFFFFF; stroke-width:39.3701; stroke-opacity:1; 
stroke-linecap:round; stroke-linejoin:round;">
</g>
<g style="fill:#FFFFFF; fill-opacity:1.0; 
stroke:#FFFFFF; stroke-width:0; stroke-opacity:1; 
stroke-linecap:round; stroke-linejoin:round;">
<circle cx="58271.7" cy="32690.9" r="216.535" /> 
</g>
<g style="fill:#FFFFFF; fill-opacity:1.0; 
stroke:#FFFFFF; stroke-width:39.3701; stroke-opacity:1; 
stroke-linecap:round; stroke-linejoin:round;">
</g>
<g style="fill:#FFFFFF; fill-opacity:1.0; 
stroke:#FFFFFF; stroke-width:0; stroke-opacity:1; 
stroke-linecap:round; stroke-linejoin:round;">
<circle cx="56500" cy="32690.9" r="216.535" /> 
</g>
<g style="fill:#FFFFFF; fill-opacity:1.0; 
stroke:#FFFFFF; stroke-width:39.3701; stroke-opacity:1; 
stroke-linecap:round; stroke-linejoin:round;">
</g>
<g style="fill:#FFFFFF; fill-opacity:1.0; 
stroke:#FFFFFF; stroke-width:0; stroke-opacity:1; 
stroke-linecap:round; stroke-linejoin:round;">
<circle cx="57750" cy="41500" r="492.126" /> 
</g>
<g style="fill:#FFFFFF; fill-opacity:1.0; 
stroke:#FFFFFF; stroke-width:39.3701; stroke-opacity:1; 
stroke-linecap:round; stroke-linejoin:round;">
</g>
<g style="fill:#FFFFFF; fill-opacity:1.0; 
stroke:#FFFFFF; stroke-width:0; stroke-opacity:1; 
stroke-linecap:round; stroke-linejoin:round;">
<circle cx="52500" cy="23500" r="492.126" /> 
</g>
<g style="fill:#FFFFFF; fill-opacity:1.0; 
stroke:#FFFFFF; stroke-width:39.3701; stroke-opacity:1; 
stroke-linecap:round; stroke-linejoin:round;">
</g>
<g style="fill:#FFFFFF; fill-opacity:1.0; 
stroke:#FFFFFF; stroke-width:0; stroke-opacity:1; 
stroke-linecap:round; stroke-linejoin:round;">
<circle cx="59250" cy="23500" r="492.126" /> 
</g>
<g style="fill:#FFFFFF; fill-opacity:1.0; 
stroke:#FFFFFF; stroke-width:39.3701; stroke-opacity:1; 
stroke-linecap:round; stroke-linejoin:round;">
</g>
<g style="fill:#FFFFFF; fill-opacity:1.0; 
stroke:#FFFFFF; stroke-width:0; stroke-opacity:1; 
stroke-linecap:round; stroke-linejoin:round;">
<circle cx="51500" cy="41500" r="492.126" /> 
</g>
<g style="fill:#FFFFFF; fill-opacity:1.0; 
stroke:#FFFFFF; stroke-width:39.3701; stroke-opacity:1; 
stroke-linecap:round; stroke-linejoin:round;">
</g>
<g style="fill:#FFFFFF; fill-opacity:1.0; 
stroke:#FFFFFF; stroke-width:0; stroke-opacity:1; 
stroke-linecap:round; stroke-linejoin:round;">
<circle cx="65250" cy="24750" r="196.85" /> 
</g>
<g style="fill:#FFFFFF; fill-opacity:1.0; 
stroke:#FFFFFF; stroke-width:39.3701; stroke-opacity:1; 
stroke-linecap:round; stroke-linejoin:round;">
</g>
<g style="fill:#FFFFFF; fill-opacity:1.0; 
stroke:#FFFFFF; stroke-width:0; stroke-opacity:1; 
stroke-linecap:round; stroke-linejoin:round;">
<circle cx="64250" cy="24750" r="196.85" /> 
</g>
<g style="fill:#FFFFFF; fill-opacity:1.0; 
stroke:#FFFFFF; stroke-width:39.3701; stroke-opacity:1; 
stroke-linecap:round; stroke-linejoin:round;">
</g>
<g style="fill:#FFFFFF; fill-opacity:1.0; 
stroke:#FFFFFF; stroke-width:0; stroke-opacity:1; 
stroke-linecap:round; stroke-linejoin:round;">
<circle cx="63250" cy="24750" r="196.85" /> 
</g>
<g style="fill:#FFFFFF; fill-opacity:1.0; 
stroke:#FFFFFF; stroke-width:39.3701; stroke-opacity:1; 
stroke-linecap:round; stroke-linejoin:round;">
</g>
<g style="fill:#FFFFFF; fill-opacity:1.0; 
stroke:#FFFFFF; stroke-width:0; stroke-opacity:1; 
stroke-linecap:round; stroke-linejoin:round;">
<circle cx="62250" cy="24750" r="196.85" /> 
</g>
<g style="fill:#FFFFFF; fill-opacity:1.0; 
stroke:#FFFFFF; stroke-width:39.3701; stroke-opacity:1; 
stroke-linecap:round; stroke-linejoin:round;">
</g>
<g style="fill:#FFFFFF; fill-opacity:1.0; 
stroke:#FFFFFF; stroke-width:0; stroke-opacity:1; 
stroke-linecap:round; stroke-linejoin:round;">
<circle cx="56000" cy="37750" r="177.165" /> 
</g>
<g style="fill:#FFFFFF; fill-opacity:1.0; 
stroke:#FFFFFF; stroke-width:39.3701; stroke-opacity:1; 
stroke-linecap:round; stroke-linejoin:round;">
</g>
<g style="fill:#FFFFFF; fill-opacity:1.0; 
stroke:#FFFFFF; stroke-width:0; stroke-opacity:1; 
stroke-linecap:round; stroke-linejoin:round;">
<circle cx="56000" cy="38750" r="177.165" /> 
</g>
<g style="fill:#FFFFFF; fill-opacity:1.0; 
stroke:#FFFFFF; stroke-width:39.3701; stroke-opacity:1; 
stroke-linecap:round; stroke-linejoin:round;">
</g>
<g style="fill:#FFFFFF; fill-opacity:1.0; 
stroke:#FFFFFF; stroke-width:0; stroke-opacity:1; 
stroke-linecap:round; stroke-linejoin:round;">
<circle cx="53750" cy="37750" r="177.165" /> 
</g>
<g style="fill:#FFFFFF; fill-opacity:1.0; 
stroke:#FFFFFF; stroke-width:39.3701; stroke-opacity:1; 
stroke-linecap:round; stroke-linejoin:round;">
</g>
<g style="fill:#FFFFFF; fill-opacity:1.0; 
stroke:#FFFFFF; stroke-width:0; stroke-opacity:1; 
stroke-linecap:round; stroke-linejoin:round;">
<circle cx="53750" cy="38750" r="177.165" /> 
</g>
<g style="fill:#FFFFFF; fill-opacity:1.0; 
stroke:#FFFFFF; stroke-width:39.3701; stroke-opacity:1; 
stroke-linecap:round; stroke-linejoin:round;">
</g>
<g style="fill:#FFFFFF; fill-opacity:1.0; 
stroke:#FFFFFF; stroke-width:0; stroke-opacity:1; 
stroke-linecap:round; stroke-linejoin:round;">
<circle cx="56750" cy="26250" r="216.535" /> 
</g>
<g style="fill:#FFFFFF; fill-opacity:1.0; 
stroke:#FFFFFF; stroke-width:39.3701; stroke-opacity:1; 
stroke-linecap:round; stroke-linejoin:round;">
</g>
<g style="fill:#FFFFFF; fill-opacity:1.0; 
stroke:#FFFFFF; stroke-width:0; stroke-opacity:1; 
stroke-linecap:round; stroke-linejoin:round;">
<circle cx="55750" cy="26250" r="216.535" /> 
</g>
<g style="fill:#FFFFFF; fill-opacity:1.0; 
stroke:#FFFFFF; stroke-width:39.3701; stroke-opacity:1; 
stroke-linecap:round; stroke-linejoin:round;">
</g>
<g style="fill:#FFFFFF; fill-opacity:1.0; 
stroke:#FFFFFF; stroke-width:0; stroke-opacity:1; 
stroke-linecap:round; stroke-linejoin:round;">
<circle cx="54750" cy="26250" r="216.535" /> 
</g>
<g style="fill:#FFFFFF; fill-opacity:1.0; 
stroke:#FFFFFF; stroke-width:39.3701; stroke-opacity:1; 
stroke-linecap:round; stroke-linejoin:round;">
</g>
<g style="fill:#FFFFFF; fill-opacity:1.0; 
stroke:#FFFFFF; stroke-width:0; stroke-opacity:1; 
stroke-linecap:round; stroke-linejoin:round;">
<circle cx="52750" cy="32750" r="216.535" /> 
</g>
<g style="fill:#FFFFFF; fill-opacity:1.0; 
stroke:#FFFFFF; stroke-width:39.3701; stroke-opacity:1; 
stroke-linecap:round; stroke-linejoin:round;">
</g>
<g style="fill:#FFFFFF; fill-opacity:1.0; 
stroke:#FFFFFF; stroke-width:0; stroke-opacity:1; 
stroke-linecap:round; stroke-linejoin:round;">
<circle cx="52750" cy="33750" r="216.535" /> 
</g>
<g style="fill:#FFFFFF; fill-opacity:1.0; 
stroke:#FFFFFF; stroke-width:39.3701; stroke-opacity:1; 
stroke-linecap:round; stroke-linejoin:round;">
</g>
<g style="fill:#FFFFFF; fill-opacity:1.0; 
stroke:#FFFFFF; stroke-width:0; stroke-opacity:1; 
stroke-linecap:round; stroke-linejoin:round;">
<circle cx="52750" cy="34750" r="216.535" /> 
</g>
<g style="fill:#FFFFFF; fill-opacity:1.0; 
stroke:#FFFFFF; stroke-width:39.3701; stroke-opacity:1; 
stroke-linecap:round; stroke-linejoin:round;">
</g>
<g style="fill:#000000; fill-opacity:1.0; 
stroke:#000000; stroke-width:39.3701; stroke-opacity:1; 
stroke-linecap:round; stroke-linejoin:round;">
<g >
</g>
<g >
</g>
<g >
</g>
<g >
</g>
<g >
</g>
<g >
</g>
<g >
</g>
<g >
</g>
<g >
</g>
<g >
</g>
<g >
</g>
<g >
</g>
<g >
</g>
<g >
</g>
<g >
</g>
<g >
</g>
<g >
</g>
<g >
</g>
<g >
</g>
<g >
</g>
<g >
</g>
<g >
</g>
<g >
</g>
</g> 
</svg>
